# Blender 5.1.1
# www.blender.org
mtllib emp_building_imp_barracks.mtl
o reference_ref
v 227.999985 159.000000 -344.400024
v 378.000031 30.000000 -344.400055
v 378.000031 0.000000 -344.400055
v 227.999985 0.000000 -344.400024
v 227.999985 159.000000 -209.400040
v 378.000031 30.000000 -209.400040
v 378.000031 0.000000 -209.400040
v 227.999985 0.000000 -209.400040
v 228.000015 159.000000 333.600006
v 378.000031 30.000000 333.599976
v 378.000031 0.000000 333.599976
v 228.000015 0.000000 333.600006
v 228.000015 159.000000 198.599991
v 378.000031 30.000000 198.599991
v 378.000031 0.000000 198.599991
v 228.000015 0.000000 198.599991
v 228.000000 159.000000 -74.400017
v 378.000031 30.000000 -74.400024
v 378.000031 0.000000 -74.400024
v 228.000000 0.000000 -74.400017
v 228.000000 159.000000 63.599976
v 378.000031 30.000000 63.599972
v 378.000031 0.000000 63.599972
v 228.000000 0.000000 63.599976
v 227.999985 0.000000 -333.600006
v 378.000031 0.000000 -333.600037
v 378.000031 30.000000 -333.600037
v 227.999985 159.000000 -333.600006
v 227.999985 0.000000 -198.600021
v 378.000031 0.000000 -198.600021
v 378.000031 30.000000 -198.600021
v 227.999985 159.000000 -198.600021
v 228.000015 0.000000 344.400024
v 378.000031 0.000000 344.399994
v 378.000031 30.000000 344.399994
v 228.000015 159.000000 344.400024
v 228.000015 0.000000 209.400009
v 378.000031 0.000000 209.400009
v 378.000031 30.000000 209.400009
v 228.000015 159.000000 209.400009
v 228.000000 0.000000 -63.599998
v 378.000031 0.000000 -63.600002
v 378.000031 30.000000 -63.600002
v 228.000000 159.000000 -63.599998
v 228.000000 0.000000 74.400002
v 378.000031 0.000000 74.399994
v 378.000031 30.000000 74.399994
v 228.000000 159.000000 74.400002
v -228.000015 159.000000 -344.400024
v -228.000015 0.000000 -344.400024
v -378.000031 0.000000 -344.399994
v -378.000031 30.000000 -344.399994
v -228.000015 159.000000 -209.400009
v -228.000015 0.000000 -209.400009
v -378.000031 0.000000 -209.400009
v -378.000031 30.000000 -209.400009
v -227.999985 159.000000 333.600006
v -227.999985 0.000000 333.600006
v -378.000031 0.000000 333.600037
v -378.000031 30.000000 333.600037
v -227.999985 159.000000 198.600021
v -227.999985 0.000000 198.600021
v -378.000031 0.000000 198.600021
v -378.000031 30.000000 198.600021
v -228.000000 159.000000 -74.400002
v -228.000000 0.000000 -74.400002
v -378.000031 0.000000 -74.399994
v -378.000031 30.000000 -74.399994
v -228.000000 159.000000 63.599998
v -228.000000 0.000000 63.599998
v -378.000031 0.000000 63.600002
v -378.000031 30.000000 63.600002
v -228.000015 159.000000 -333.600006
v -378.000031 30.000000 -333.599976
v -378.000031 0.000000 -333.599976
v -228.000015 0.000000 -333.600006
v -228.000015 159.000000 -198.599991
v -378.000031 30.000000 -198.599991
v -378.000031 0.000000 -198.599991
v -228.000015 0.000000 -198.599991
v -227.999985 159.000000 344.400024
v -378.000031 30.000000 344.400055
v -378.000031 0.000000 344.400055
v -227.999985 0.000000 344.400024
v -227.999985 159.000000 209.400040
v -378.000031 30.000000 209.400040
v -378.000031 0.000000 209.400040
v -227.999985 0.000000 209.400040
v -228.000000 159.000000 -63.599976
v -378.000031 30.000000 -63.599972
v -378.000031 0.000000 -63.599972
v -228.000000 0.000000 -63.599976
v -228.000000 159.000000 74.400017
v -378.000031 30.000000 74.400024
v -378.000031 0.000000 74.400024
v -228.000000 0.000000 74.400017
v 231.000000 0.000000 381.000000
v 210.000015 18.000000 360.000000
v -209.999985 18.000000 360.000000
v -230.999969 0.000000 381.000000
v -231.000000 0.000000 -198.599991
v -210.000015 18.000000 -198.599991
v -210.000015 18.000000 -209.400009
v -231.000000 0.000000 -209.400009
v -210.000015 18.000000 -333.600006
v -231.000000 0.000000 -333.600006
v -210.000015 18.000000 -344.400024
v -231.000000 0.000000 -344.400024
v -210.000015 18.000000 -360.000000
v -231.000000 0.000000 -381.000000
v -209.999985 18.000000 344.400024
v -230.999969 0.000000 344.400024
v -209.999985 18.000000 333.600006
v -230.999969 0.000000 333.600006
v -209.999985 18.000000 209.400040
v -230.999969 0.000000 209.400040
v -209.999985 18.000000 198.600021
v -230.999969 0.000000 198.600021
v -210.000000 18.000000 74.400017
v -230.999985 0.000000 74.400017
v -210.000000 18.000000 63.599995
v -230.999985 0.000000 63.599998
v -210.000000 18.000000 -63.599979
v -230.999985 0.000000 -63.599976
v -210.000000 18.000000 -74.400002
v -230.999985 0.000000 -74.400002
v 210.000015 18.000000 344.400024
v 231.000000 0.000000 344.400024
v 210.000015 18.000000 333.600006
v 231.000000 0.000000 333.600006
v 210.000015 18.000000 209.400009
v 231.000000 0.000000 209.400009
v 210.000015 18.000000 198.599991
v 231.000000 0.000000 198.599991
v 210.000000 18.000000 74.400002
v 230.999985 0.000000 74.400002
v 210.000000 18.000000 63.599979
v 230.999985 0.000000 63.599976
v 210.000000 18.000000 -63.599995
v 230.999985 0.000000 -63.599998
v 210.000000 18.000000 -74.400017
v 230.999985 0.000000 -74.400017
v 209.999985 18.000000 -198.600021
v 230.999969 0.000000 -198.600021
v 209.999985 18.000000 -209.400040
v 230.999969 0.000000 -209.400040
v 209.999985 18.000000 -333.600006
v 230.999969 0.000000 -333.600006
v 209.999985 18.000000 -344.400024
v 230.999969 0.000000 -344.400024
v 209.999985 18.000000 -360.000000
v 230.999969 0.000000 -381.000000
v -199.412094 157.805176 -319.949982
v -199.412094 157.805176 -223.049988
v -186.812073 169.805176 -223.049988
v -186.812073 169.805176 -319.949982
v 186.812042 169.805176 -319.949982
v 186.812042 169.805176 -223.050018
v 199.412064 157.805176 -223.050018
v 199.412064 157.805176 -319.949982
v -165.450027 178.349991 -223.050003
v -120.150009 178.349991 -223.050003
v -120.150017 178.349991 -319.949982
v -165.450027 178.349991 -319.949982
v 120.149994 178.349991 -223.050003
v 165.449997 178.349991 -223.050003
v 165.449997 178.349991 -319.949982
v 120.149986 178.349991 -319.949982
v -199.412064 157.805176 319.949982
v -186.812042 169.805176 319.949982
v -186.812042 169.805176 223.050018
v -199.412064 157.805176 223.050018
v 186.812073 169.805176 319.949982
v 199.412094 157.805176 319.949982
v 199.412094 157.805176 223.049988
v 186.812073 169.805176 223.049988
v -165.449997 178.349991 223.050003
v -165.449997 178.349991 319.949982
v -120.149986 178.349991 319.949982
v -120.149994 178.349991 223.050003
v 120.150009 178.349991 223.050003
v 120.150017 178.349991 319.949982
v 165.450027 178.349991 319.949982
v 165.450027 178.349991 223.050003
v -199.412094 157.805176 -184.949966
v -199.412079 157.805176 -88.049995
v -186.812057 169.805176 -88.049995
v -186.812073 169.805176 -184.949966
v 186.812042 169.805176 -184.949997
v 186.812057 169.805176 -88.050011
v 199.412079 157.805176 -88.050011
v 199.412064 157.805176 -184.949997
v -165.450012 178.349991 -88.049995
v -120.150009 178.349991 -88.049995
v -120.150009 178.349991 -184.949982
v -165.450027 178.349991 -184.949982
v 120.149994 178.349991 -88.050011
v 165.450012 178.349991 -88.050011
v 165.449997 178.349991 -184.949982
v 120.149994 178.349991 -184.949982
v -199.412064 157.805176 184.949997
v -186.812042 169.805176 184.949997
v -186.812057 169.805176 88.050011
v -199.412079 157.805176 88.050011
v 186.812073 169.805176 184.949966
v 199.412094 157.805176 184.949966
v 199.412079 157.805176 88.049995
v 186.812057 169.805176 88.049995
v -165.450012 178.349991 88.050011
v -165.449997 178.349991 184.949982
v -120.149994 178.349991 184.949982
v -120.149994 178.349991 88.050011
v 120.150009 178.349991 88.049995
v 120.150009 178.349991 184.949982
v 165.450027 178.349991 184.949982
v 165.450012 178.349991 88.049995
v -199.412079 157.805176 -49.950001
v -199.412079 157.805176 49.950016
v -186.812057 169.805176 49.950016
v -186.812057 169.805176 -49.950001
v 186.812057 169.805176 -49.950016
v 186.812057 169.805176 49.950001
v 199.412079 157.805176 49.950001
v 199.412079 157.805176 -49.950016
v -165.450012 178.349991 49.950016
v -120.150002 178.349991 49.950012
v -120.150002 178.349991 -49.950005
v -165.450012 178.349991 -49.950001
v 120.150002 178.349991 49.950005
v 165.450012 178.349991 49.950001
v 165.450012 178.349991 -49.950016
v 120.150002 178.349991 -49.950012
v 91.499985 141.000000 -346.500854
v 91.499985 141.000000 -376.500854
v -91.500015 141.000000 -376.500854
v -91.500015 141.000000 -346.500854
v 378.000031 -128.000000 74.399994
v 378.000031 -128.000000 63.599972
v 378.000031 -128.000000 209.400009
v 378.000031 -128.000000 198.599991
v 378.000031 -128.000000 344.399994
v 378.000031 -128.000000 333.599976
v 378.000031 -128.000000 -333.600037
v 378.000031 -128.000000 -344.400055
v 88.499985 -128.000000 -359.099976
v 88.499985 -128.000000 -411.000000
v 88.499985 0.000000 -411.000000
v 88.499985 0.000000 -359.099976
v 88.499985 9.000000 -411.000000
v 88.499985 39.300003 -359.099976
v 178.499969 180.000000 -360.000000
v 178.499969 180.000000 -345.000000
v 209.999985 150.000000 -345.000000
v 209.999985 150.000000 -360.000000
v -210.000015 150.000000 -360.000000
v -210.000015 150.000000 -345.000000
v -178.500000 180.000000 -345.000000
v -178.500000 180.000000 -360.000000
v 209.999985 18.000000 -345.000000
v -210.000015 18.000000 -345.000000
v 231.000000 -128.000000 381.000000
v -230.999969 -128.000000 381.000000
v -83.999985 9.000000 411.000000
v -83.999985 39.300003 359.099976
v -88.499985 39.300003 359.099976
v -88.499985 9.000000 411.000000
v 84.000015 9.000000 411.000000
v 88.500015 9.000000 411.000000
v 88.500015 39.300003 359.099976
v 84.000015 39.300003 359.099976
v -83.999985 6.677999 407.399963
v 84.000015 6.677999 407.399963
v 84.000015 6.678749 395.400024
v -83.999985 6.678749 395.400024
v 84.000015 13.361998 395.400024
v -83.999985 13.361998 395.400024
v 84.000015 13.363500 383.400024
v -83.999985 13.363500 383.400024
v 84.000015 20.045998 383.400024
v -83.999985 20.045998 383.400024
v 84.000015 20.047497 371.399994
v -83.999985 20.047497 371.399994
v 84.000015 26.730000 371.399994
v -83.999985 26.730000 371.399994
v 84.000015 26.730000 359.400024
v -83.999985 26.730000 359.400024
v -88.499985 138.000000 346.500854
v 88.500015 138.000000 346.500854
v 88.500015 138.000000 376.500854
v -88.499985 138.000000 376.500854
v -91.499985 141.000000 376.500854
v 91.500015 141.000000 376.500854
v 91.500015 141.000000 346.500854
v -91.499985 141.000000 346.500854
v 178.500000 180.000000 360.000000
v 210.000015 150.000000 360.000000
v 210.000015 150.000000 345.000000
v 178.500000 180.000000 345.000000
v -209.999985 150.000000 360.000000
v -178.499969 180.000000 360.000000
v -178.499969 180.000000 345.000000
v -209.999985 150.000000 345.000000
v 210.000015 18.000000 345.000000
v -209.999985 18.000000 345.000000
v -83.999977 -128.000000 559.399963
v -83.999977 -80.000000 559.399963
v -83.999985 0.000000 407.399963
v -83.999985 -128.000000 407.399963
v 84.000023 -80.000000 559.399963
v 84.000015 0.000000 407.399963
v 84.000023 -128.000000 559.399963
v 84.000015 -128.000000 407.399963
v -84.000023 -128.000000 -559.399963
v -84.000015 -128.000000 -407.399963
v -84.000015 0.000000 -407.399963
v -84.000023 -80.000000 -559.399963
v 83.999985 0.000000 -407.399963
v 83.999977 -80.000000 -559.399963
v 83.999977 -128.000000 -559.399963
v 83.999985 -128.000000 -407.399963
v 200.550003 158.999969 -88.050011
v 200.549988 158.999969 -184.949997
v 196.178452 154.409882 -184.949997
v 196.178467 154.409882 -88.050011
v 187.949997 171.000000 -88.050011
v 183.546829 166.376678 -88.050011
v 187.949982 171.000000 -184.949997
v 183.546814 166.376678 -184.949997
v 165.450012 180.000000 -88.050011
v 165.449997 180.000000 -184.949982
v 165.449997 174.000015 -184.949982
v 165.450012 174.000015 -88.050011
v 120.149994 180.000000 -88.050011
v 120.149994 174.000015 -88.050011
v 120.149994 180.000000 -184.949982
v 120.149994 174.000015 -184.949982
v 200.549988 158.999969 -223.050018
v 200.549988 158.999969 -319.949982
v 196.178452 154.409882 -319.949982
v 196.178452 154.409882 -223.050018
v 187.949982 171.000000 -223.050018
v 183.546814 166.376678 -223.050018
v 187.949982 171.000000 -319.949982
v 183.546814 166.376678 -319.949982
v 165.449997 180.000000 -223.050003
v 165.449997 180.000000 -319.949982
v 165.449997 174.000015 -319.949982
v 165.449997 174.000015 -223.050003
v 120.149994 180.000000 -223.050003
v 120.149994 174.000015 -223.050003
v 120.149986 180.000000 -319.949982
v 120.149986 174.000015 -319.949982
v 200.550003 158.999969 88.049995
v 196.178467 154.409882 88.049995
v 196.178482 154.409882 184.949966
v 200.550018 158.999969 184.949966
v 187.949997 171.000000 88.049995
v 183.546829 166.376678 88.049995
v 187.950012 171.000000 184.949966
v 183.546844 166.376678 184.949966
v 165.450012 180.000000 88.049995
v 165.450012 174.000015 88.049995
v 165.450027 174.000015 184.949982
v 165.450027 180.000000 184.949982
v 120.150009 180.000000 88.049995
v 120.150009 174.000015 88.049995
v 120.150009 180.000000 184.949982
v 120.150009 174.000015 184.949982
v 200.550018 158.999969 223.049988
v 196.178482 154.409882 223.049988
v 196.178482 154.409882 319.949982
v 200.550018 158.999969 319.949982
v 187.950012 171.000000 223.049988
v 183.546844 166.376678 223.049988
v 187.950012 171.000000 319.949982
v 183.546844 166.376678 319.949982
v 165.450027 180.000000 223.050003
v 165.450027 174.000015 223.050003
v 165.450027 174.000015 319.949982
v 165.450027 180.000000 319.949982
v 120.150009 180.000000 223.050003
v 120.150009 174.000015 223.050003
v 120.150017 180.000000 319.949982
v 120.150017 174.000015 319.949982
v 200.550003 158.999969 -49.950016
v 196.178467 154.409882 -49.950016
v 196.178467 154.409882 49.950001
v 200.550003 158.999969 49.950001
v 187.949997 171.000000 -49.950016
v 183.546829 166.376678 -49.950016
v 187.949997 171.000000 49.950001
v 183.546829 166.376678 49.950001
v 165.450012 180.000000 -49.950016
v 165.450012 174.000015 -49.950016
v 165.450012 174.000015 49.950001
v 165.450012 180.000000 49.950001
v 120.150002 180.000000 -49.950012
v 120.150002 174.000015 -49.950012
v 120.150002 180.000000 49.950005
v 120.150002 174.000015 49.950005
v -200.550003 158.999969 -88.049995
v -196.178467 154.409882 -88.049995
v -196.178482 154.409882 -184.949966
v -200.550018 158.999969 -184.949966
v -187.949997 171.000000 -88.049995
v -183.546829 166.376678 -88.049995
v -187.950012 171.000000 -184.949966
v -183.546844 166.376678 -184.949966
v -165.450012 180.000000 -88.049995
v -165.450012 174.000015 -88.049995
v -165.450027 174.000015 -184.949982
v -165.450027 180.000000 -184.949982
v -120.150009 180.000000 -88.049995
v -120.150009 174.000015 -88.049995
v -120.150009 180.000000 -184.949982
v -120.150009 174.000015 -184.949982
v -200.550018 158.999969 -223.049988
v -196.178482 154.409882 -223.049988
v -196.178482 154.409882 -319.949982
v -200.550018 158.999969 -319.949982
v -187.950012 171.000000 -223.049988
v -183.546844 166.376678 -223.049988
v -187.950012 171.000000 -319.949982
v -183.546844 166.376678 -319.949982
v -165.450027 180.000000 -223.050003
v -165.450027 174.000015 -223.050003
v -165.450027 174.000015 -319.949982
v -165.450027 180.000000 -319.949982
v -120.150009 180.000000 -223.050003
v -120.150009 174.000015 -223.050003
v -120.150017 180.000000 -319.949982
v -120.150017 174.000015 -319.949982
v -200.550003 158.999969 88.050011
v -200.549988 158.999969 184.949997
v -196.178452 154.409882 184.949997
v -196.178467 154.409882 88.050011
v -187.949997 171.000000 88.050011
v -183.546829 166.376678 88.050011
v -187.949982 171.000000 184.949997
v -183.546814 166.376678 184.949997
v -165.450012 180.000000 88.050011
v -165.449997 180.000000 184.949982
v -165.449997 174.000015 184.949982
v -165.450012 174.000015 88.050011
v -120.149994 180.000000 88.050011
v -120.149994 174.000015 88.050011
v -120.149994 180.000000 184.949982
v -120.149994 174.000015 184.949982
v -200.549988 158.999969 223.050018
v -200.549988 158.999969 319.949982
v -196.178452 154.409882 319.949982
v -196.178452 154.409882 223.050018
v -187.949982 171.000000 223.050018
v -183.546814 166.376678 223.050018
v -187.949982 171.000000 319.949982
v -183.546814 166.376678 319.949982
v -165.449997 180.000000 223.050003
v -165.449997 180.000000 319.949982
v -165.449997 174.000015 319.949982
v -165.449997 174.000015 223.050003
v -120.149994 180.000000 223.050003
v -120.149994 174.000015 223.050003
v -120.149986 180.000000 319.949982
v -120.149986 174.000015 319.949982
v -200.550003 158.999969 -49.950001
v -200.550003 158.999969 49.950016
v -196.178467 154.409882 49.950016
v -196.178467 154.409882 -49.950001
v -187.949997 171.000000 -49.950001
v -183.546829 166.376678 -49.950001
v -187.949997 171.000000 49.950016
v -183.546829 166.376678 49.950016
v -165.450012 180.000000 -49.950001
v -165.450012 180.000000 49.950016
v -165.450012 174.000015 49.950016
v -165.450012 174.000015 -49.950001
v -120.150002 180.000000 -49.950005
v -120.150002 174.000015 -49.950005
v -120.150002 180.000000 49.950012
v -120.150002 174.000015 49.950012
v -178.499985 180.000000 -62.999989
v -210.000000 150.000000 -62.999989
v -178.499985 180.000000 63.000004
v -210.000000 150.000000 63.000004
v -178.499985 180.000000 75.000008
v -210.000000 150.000000 75.000008
v -178.499969 180.000000 198.000015
v -209.999985 150.000000 198.000015
v -178.499969 180.000000 210.000015
v -209.999985 150.000000 210.000015
v -178.499969 180.000000 333.000031
v -209.999985 150.000000 333.000031
v -178.500000 180.000000 -333.000031
v -210.000015 150.000000 -333.000031
v -178.500000 180.000000 -209.999985
v -210.000015 150.000000 -209.999985
v 183.513763 192.534454 -75.000008
v 183.513763 192.534454 -63.000004
v 222.408447 155.317917 -63.000008
v 222.408447 155.317917 -75.000008
v -183.513763 192.534454 -74.999992
v -183.513763 192.534454 -62.999989
v -222.408447 155.317917 -74.999992
v -222.408447 155.317917 -62.999985
v 223.499985 4.500000 -63.000008
v 223.499985 4.500000 -75.000008
v -223.499985 4.500000 -74.999992
v -223.499985 4.500000 -62.999985
v 183.513763 192.534454 62.999989
v 183.513763 192.534454 74.999992
v 222.408447 155.317917 74.999992
v 222.408447 155.317917 62.999985
v -183.513763 192.534454 63.000004
v -183.513763 192.534454 75.000008
v -222.408447 155.317917 63.000008
v -222.408447 155.317917 75.000008
v 223.499985 4.500000 74.999992
v 223.499985 4.500000 62.999985
v -223.499985 4.500000 63.000008
v -223.499985 4.500000 75.000008
v 183.513779 192.534454 197.999985
v 183.513779 192.534454 209.999985
v 222.408463 155.317917 209.999985
v 222.408463 155.317917 197.999985
v -183.513748 192.534454 198.000015
v -183.513748 192.534454 210.000015
v -222.408432 155.317917 198.000015
v -222.408432 155.317917 210.000015
v 223.500000 4.500000 209.999985
v 223.500000 4.500000 197.999985
v -223.499969 4.500000 198.000015
v -223.499969 4.500000 210.000015
v 183.513779 192.534454 333.000031
v 183.513779 192.534454 345.000000
v 222.408463 155.317917 345.000000
v 222.408463 155.317917 333.000031
v -183.513748 192.534454 333.000031
v -183.513748 192.534454 345.000000
v -222.408432 155.317917 333.000031
v -222.408432 155.317917 345.000000
v 223.500000 4.500000 345.000000
v 223.500000 4.500000 333.000031
v -223.499969 4.500000 333.000031
v -223.499969 4.500000 345.000000
v 183.513748 192.534454 -210.000015
v 183.513748 192.534454 -198.000015
v 222.408432 155.317917 -198.000015
v 222.408432 155.317917 -210.000015
v -183.513779 192.534454 -209.999985
v -183.513779 192.534454 -197.999985
v -222.408463 155.317917 -209.999985
v -222.408463 155.317917 -197.999985
v 223.499969 4.500000 -198.000015
v 223.499969 4.500000 -210.000015
v -223.500000 4.500000 -209.999985
v -223.500000 4.500000 -197.999985
v 183.513748 192.534454 -333.000031
v 222.408432 155.317917 -333.000031
v 222.408432 155.317917 -345.000000
v 183.513748 192.534454 -345.000000
v -183.513779 192.534454 -333.000031
v -183.513779 192.534454 -345.000000
v -222.408463 155.317917 -333.000031
v -222.408463 155.317917 -345.000000
v 223.499969 4.500000 -333.000031
v 223.499969 4.500000 -345.000000
v -223.500000 4.500000 -333.000031
v -223.500000 4.500000 -345.000000
v -210.000015 159.000000 -198.599991
v -210.000015 0.000000 -198.599991
v -210.000015 0.000000 -209.400009
v -210.000015 159.000000 -209.400009
v -210.000000 159.000000 -63.599979
v -210.000000 0.000000 -63.599979
v -210.000000 0.000000 -74.400002
v -210.000000 159.000000 -74.400002
v -210.000000 159.000000 74.400017
v -210.000000 0.000000 74.400017
v -210.000000 0.000000 63.599995
v -210.000000 159.000000 63.599995
v -209.999985 159.000000 209.400040
v -209.999985 0.000000 209.400040
v -209.999985 0.000000 198.600021
v -209.999985 159.000000 198.600021
v -209.999985 159.000000 344.400024
v -209.999985 0.000000 344.400024
v -209.999985 0.000000 333.600006
v -209.999985 159.000000 333.600006
v -210.000015 159.000000 -333.600006
v -210.000015 0.000000 -333.600006
v -210.000015 0.000000 -344.400024
v -210.000015 159.000000 -344.400024
v 209.999985 159.000000 -198.600021
v 209.999985 159.000000 -209.400040
v 209.999985 0.000000 -209.400040
v 209.999985 0.000000 -198.600021
v 210.000000 159.000000 -63.599995
v 210.000000 159.000000 -74.400017
v 210.000000 0.000000 -74.400017
v 210.000000 0.000000 -63.599995
v 210.000000 159.000000 74.400002
v 210.000000 159.000000 63.599979
v 210.000000 0.000000 63.599979
v 210.000000 0.000000 74.400002
v 210.000015 159.000000 209.400009
v 210.000015 159.000000 198.599991
v 210.000015 0.000000 198.599991
v 210.000015 0.000000 209.400009
v 210.000015 159.000000 344.400024
v 210.000015 159.000000 333.600006
v 210.000015 0.000000 333.600006
v 210.000015 0.000000 344.400024
v 209.999985 159.000000 -333.600006
v 209.999985 159.000000 -344.400024
v 209.999985 0.000000 -344.400024
v 209.999985 0.000000 -333.600006
v -84.000015 6.677999 -407.399963
v 83.999985 6.677999 -407.399963
v -88.500015 138.000000 -376.500854
v -88.500015 138.000000 -346.500854
v -88.500015 0.000000 -346.500854
v -88.500015 0.000000 -376.500854
v 88.499985 138.000000 -376.500854
v 88.499985 0.000000 -376.500854
v 88.499985 0.000000 -346.500854
v 88.499985 138.000000 -346.500854
v -91.500015 0.000000 -376.500854
v -91.500015 0.000000 -346.500854
v 91.499985 0.000000 -346.500854
v 91.499985 0.000000 -376.500854
v -88.499985 0.000000 376.500854
v -88.499985 0.000000 346.500854
v 88.500015 0.000000 346.500854
v 88.500015 0.000000 376.500854
v -91.499985 0.000000 346.500854
v -91.499985 0.000000 376.500854
v 91.500015 0.000000 376.500854
v 91.500015 0.000000 346.500854
v -378.000031 -128.000000 -198.599991
v -228.000015 -128.000000 -198.599991
v -210.000015 -128.000000 -198.599991
v -378.000031 -128.000000 -63.599972
v -228.000000 -128.000000 -63.599976
v -210.000000 -128.000000 -63.599979
v -378.000031 -128.000000 74.400024
v -228.000000 -128.000000 74.400017
v -210.000000 -128.000000 74.400017
v -378.000031 -128.000000 209.400040
v -227.999985 -128.000000 209.400040
v -209.999985 -128.000000 209.400040
v -378.000031 -128.000000 344.400055
v -227.999985 -128.000000 344.400024
v -209.999985 -128.000000 344.400024
v -378.000031 -128.000000 -333.599976
v -228.000015 -128.000000 -333.600006
v -210.000015 -128.000000 -333.600006
v 230.999969 -128.000000 -381.000000
v -231.000000 -128.000000 -381.000000
v -84.000015 9.000000 -411.000000
v -88.500015 9.000000 -411.000000
v -88.500015 39.300003 -359.099976
v -84.000015 39.300003 -359.099976
v 83.999985 9.000000 -411.000000
v 83.999985 39.300003 -359.099976
v -84.000015 6.678749 -395.400024
v 83.999985 6.678749 -395.400024
v 83.999985 13.361998 -395.400024
v -84.000015 13.361998 -395.400024
v -84.000015 13.363500 -383.400024
v 83.999985 13.363500 -383.400024
v 83.999985 20.045998 -383.400024
v -84.000015 20.045998 -383.400024
v -84.000015 20.047497 -371.399994
v 83.999985 20.047497 -371.399994
v 83.999985 26.730000 -371.399994
v -84.000015 26.730000 -371.399994
v -84.000015 26.730000 -359.400024
v 83.999985 26.730000 -359.400024
v -210.000015 18.000000 -333.000031
v 178.499969 180.000000 -333.000031
v 209.999985 150.000000 -333.000031
v 209.999985 18.000000 -333.000031
v 83.999985 -128.000000 -411.000000
v 83.999985 0.000000 -411.000000
v -83.999985 0.000000 411.000000
v -83.999985 0.000000 359.099976
v -83.999985 -128.000000 359.099976
v -83.999985 -128.000000 411.000000
v -88.499985 -128.000000 359.099976
v -88.499985 -128.000000 411.000000
v -88.499985 0.000000 411.000000
v -88.499985 0.000000 359.099976
v 84.000015 -128.000000 359.099976
v 84.000015 -128.000000 411.000000
v 84.000015 0.000000 411.000000
v 84.000015 0.000000 359.099976
v 88.500015 0.000000 411.000000
v 88.500015 0.000000 359.099976
v 88.500015 -128.000000 359.099976
v 88.500015 -128.000000 411.000000
v -210.000015 -128.000000 -209.400009
v -228.000015 -128.000000 -209.400009
v -378.000031 -128.000000 -209.400009
v 210.000000 150.000000 -63.000004
v 178.499985 180.000000 -63.000004
v 178.499985 180.000000 62.999989
v 210.000000 150.000000 62.999989
v -210.000015 150.000000 -197.999985
v -210.000000 150.000000 -74.999992
v -178.500000 180.000000 -197.999985
v -178.499985 180.000000 -74.999992
v -210.000000 -128.000000 -74.400002
v -228.000000 -128.000000 -74.400002
v -378.000031 -128.000000 -74.399994
v 210.000000 18.000000 -63.000004
v -210.000000 18.000000 -62.999989
v 210.000000 18.000000 -75.000008
v 210.000000 150.000000 -75.000008
v 178.499985 180.000000 -75.000008
v -210.000000 18.000000 -74.999992
v -210.000000 -128.000000 63.599995
v -228.000000 -128.000000 63.599998
v -378.000031 -128.000000 63.600002
v 210.000000 18.000000 74.999992
v 210.000000 150.000000 74.999992
v 178.499985 180.000000 74.999992
v -210.000000 18.000000 75.000008
v 210.000000 18.000000 62.999989
v -210.000000 18.000000 63.000004
v -209.999985 -128.000000 198.600021
v -227.999985 -128.000000 198.600021
v -378.000031 -128.000000 198.600021
v 210.000015 18.000000 209.999985
v 210.000015 150.000000 209.999985
v 178.500000 180.000000 209.999985
v -209.999985 18.000000 210.000015
v 210.000015 18.000000 333.000031
v 210.000015 150.000000 333.000031
v 178.500000 180.000000 333.000031
v -209.999985 18.000000 333.000031
v -209.999985 -128.000000 333.600006
v -227.999985 -128.000000 333.600006
v -378.000031 -128.000000 333.600037
v 209.999985 18.000000 -198.000015
v 209.999985 150.000000 -198.000015
v 178.499969 180.000000 -198.000015
v -210.000015 18.000000 -197.999985
v 230.999969 -128.000000 -198.600021
v 230.999969 -128.000000 -209.400040
v 230.999969 -128.000000 -333.600006
v 230.999969 -128.000000 -344.400024
v 231.000000 -128.000000 344.400024
v 231.000000 -128.000000 333.600006
v 231.000000 -128.000000 209.400009
v 231.000000 -128.000000 198.599991
v 230.999985 -128.000000 74.400002
v 230.999985 -128.000000 63.599976
v 230.999985 -128.000000 -63.599998
v 230.999985 -128.000000 -74.400017
v -210.000015 -128.000000 -344.400024
v -228.000015 -128.000000 -344.400024
v -378.000031 -128.000000 -344.399994
v -209.999985 18.000000 198.000015
v 178.500000 180.000000 197.999985
v 210.000015 150.000000 197.999985
v 210.000015 18.000000 197.999985
v 209.999985 -128.000000 -198.600021
v 227.999985 -128.000000 -198.600021
v 378.000031 -128.000000 -198.600021
v 378.000031 -128.000000 -74.400024
v 228.000000 -128.000000 -74.400017
v 210.000000 -128.000000 -74.400017
v -231.000000 -128.000000 -344.400024
v -231.000000 -128.000000 -333.600006
v -231.000000 -128.000000 -209.400009
v -231.000000 -128.000000 -198.599991
v -230.999985 -128.000000 -74.400002
v -230.999985 -128.000000 -63.599976
v -230.999985 -128.000000 63.599998
v -230.999985 -128.000000 74.400017
v -230.999969 -128.000000 198.600021
v -230.999969 -128.000000 209.400040
v -230.999969 -128.000000 333.600006
v -230.999969 -128.000000 344.400024
v 210.000000 -128.000000 -63.599995
v 228.000000 -128.000000 -63.599998
v 378.000031 -128.000000 -63.600002
v 228.000000 -128.000000 63.599976
v 210.000000 -128.000000 63.599979
v -210.000015 18.000000 -209.999985
v 178.499969 180.000000 -210.000015
v 209.999985 150.000000 -210.000015
v 209.999985 18.000000 -210.000015
v 210.000000 -128.000000 74.400002
v 228.000000 -128.000000 74.400002
v 228.000015 -128.000000 198.599991
v 210.000015 -128.000000 198.599991
v 210.000015 -128.000000 209.400009
v 228.000015 -128.000000 209.400009
v 228.000015 -128.000000 333.600006
v 210.000015 -128.000000 333.600006
v 210.000015 -128.000000 344.400024
v 228.000015 -128.000000 344.400024
v 227.999985 -128.000000 -344.400024
v 209.999985 -128.000000 -344.400024
v 209.999985 -128.000000 -333.600006
v 227.999985 -128.000000 -333.600006
v 378.000031 -128.000000 -209.400040
v 227.999985 -128.000000 -209.400040
v 209.999985 -128.000000 -209.400040
v 83.999985 -128.000000 -359.099976
v 83.999985 0.000000 -359.099976
v -84.000015 -128.000000 -411.000000
v -88.500015 -128.000000 -411.000000
v -88.500015 0.000000 -411.000000
v -84.000015 0.000000 -411.000000
v -88.500015 -128.000000 -359.099976
v -88.500015 0.000000 -359.099976
v -84.000015 -128.000000 -359.099976
v -84.000015 0.000000 -359.099976
v -10.500016 135.000000 -360.000000
v 10.499984 135.000000 -360.000000
v 10.499984 30.000000 -360.000000
v -10.500016 30.000000 -360.000000
v -87.000023 30.000000 -360.000000
v -87.000023 135.000000 -360.000000
v 86.999992 135.000000 -360.000000
v 86.999992 30.000000 -360.000000
v 210.000000 147.000000 -63.000004
v 210.000000 21.000000 -63.000004
v -107.100014 180.000000 -198.000000
v -107.100006 180.000000 -74.999992
v 107.100006 180.000000 -75.000008
v 107.099998 180.000000 -198.000000
v -210.000000 147.000000 -62.999989
v -210.000000 21.000000 -62.999989
v 87.000023 30.000000 360.000000
v 10.500016 30.000000 360.000000
v 87.000023 135.000000 360.000000
v 10.500016 135.000000 360.000000
v -10.499984 135.000000 360.000000
v -10.499984 30.000000 360.000000
v -86.999992 30.000000 360.000000
v -86.999992 135.000000 360.000000
v -107.099991 180.000000 333.000031
v -107.099998 180.000000 210.000000
v 107.100021 180.000000 333.000031
v 107.100014 180.000000 210.000000
v 107.100006 180.000000 74.999992
v 107.100014 180.000000 198.000000
v -107.100006 180.000000 75.000008
v -107.099998 180.000000 198.000000
v -107.100006 180.000000 -62.999992
v -107.100006 180.000000 63.000000
v 107.100006 180.000000 62.999992
v 107.100006 180.000000 -63.000000
v 107.099998 180.000000 -210.000000
v 107.099991 180.000000 -333.000031
v -107.100021 180.000000 -333.000031
v -107.100014 180.000000 -210.000000
v -101.171585 128.000000 -364.000000
v -104.000015 125.171570 -356.000000
v -104.000015 125.171570 -364.000000
v -101.171585 128.000000 -356.000000
v -106.828445 128.000000 -356.000000
v -106.828445 128.000000 -364.000000
v -104.000015 130.828430 -364.000000
v -104.000015 130.828430 -356.000000
v -101.171585 136.000000 -364.000000
v -104.000015 133.171570 -356.000000
v -104.000015 133.171570 -364.000000
v -101.171585 136.000000 -356.000000
v -106.828445 136.000000 -364.000000
v -106.828445 136.000000 -356.000000
v -104.000015 138.828430 -364.000000
v -104.000015 138.828430 -356.000000
v 106.828415 128.000000 -364.000000
v 103.999985 125.171570 -356.000000
v 103.999985 125.171570 -364.000000
v 106.828415 128.000000 -356.000000
v 101.171555 128.000000 -364.000000
v 101.171555 128.000000 -356.000000
v 103.999985 130.828430 -364.000000
v 103.999985 130.828430 -356.000000
v 106.828415 136.000000 -364.000000
v 103.999985 133.171570 -356.000000
v 103.999985 133.171570 -364.000000
v 106.828415 136.000000 -356.000000
v 101.171555 136.000000 -364.000000
v 101.171555 136.000000 -356.000000
v 103.999985 138.828430 -364.000000
v 103.999985 138.828430 -356.000000
v -106.828415 128.000000 364.000000
v -103.999985 125.171570 356.000000
v -103.999985 125.171570 364.000000
v -106.828415 128.000000 356.000000
v -101.171555 128.000000 364.000000
v -101.171555 128.000000 356.000000
v -103.999985 130.828430 364.000000
v -103.999985 130.828430 356.000000
v -106.828415 136.000000 364.000000
v -103.999985 133.171570 356.000000
v -103.999985 133.171570 364.000000
v -106.828415 136.000000 356.000000
v -101.171555 136.000000 364.000000
v -101.171555 136.000000 356.000000
v -103.999985 138.828430 364.000000
v -103.999985 138.828430 356.000000
v 101.171585 136.000000 364.000000
v 104.000015 133.171570 356.000000
v 104.000015 133.171570 364.000000
v 101.171585 136.000000 356.000000
v 106.828445 136.000000 364.000000
v 106.828445 136.000000 356.000000
v 104.000015 138.828430 364.000000
v 104.000015 138.828430 356.000000
v 101.171585 128.000000 364.000000
v 104.000015 125.171570 356.000000
v 104.000015 125.171570 364.000000
v 101.171585 128.000000 356.000000
v 106.828445 128.000000 364.000000
v 106.828445 128.000000 356.000000
v 104.000015 130.828430 364.000000
v 104.000015 130.828430 356.000000
vn -0.0000 -0.0000 -1.0000
vn -0.0000 -0.0000 1.0000
vn -0.0000 0.7593 0.6508
vn -0.6508 0.7593 -0.0000
vn 0.6508 0.7593 -0.0000
vn -0.0000 0.7593 -0.6508
vn -0.6897 0.7241 -0.0000
vn 0.6897 0.7241 -0.0000
vn -0.0000 1.0000 -0.0000
vn 1.0000 -0.0000 -0.0000
vn -1.0000 -0.0000 -0.0000
vn -0.0000 0.8636 0.5042
vn -0.0000 1.0000 0.0001
vn -0.0000 -1.0000 -0.0000
vn -0.0000 0.8849 0.4657
vn -0.0000 0.8849 -0.4657
vn -0.7241 0.6897 -0.0000
vn 0.7241 -0.6897 -0.0000
vn 0.7241 0.6897 -0.0000
vn -0.7241 -0.6897 -0.0000
vn 0.6913 0.7225 -0.0000
vn -0.6913 0.7225 -0.0000
vn 1.0000 0.0072 -0.0000
vn -1.0000 0.0072 -0.0000
vn -0.6520 0.7582 -0.0000
vn 0.6520 0.7582 -0.0000
vn -0.0000 0.8636 -0.5042
vn -0.0000 1.0000 -0.0001
vn 0.7071 -0.2358 -0.6667
vn -0.0000 -0.8165 -0.5774
vn 0.9487 0.3162 -0.0000
vn -0.9487 0.3162 -0.0000
vn -0.7071 -0.2358 -0.6667
vn -0.0000 0.9428 -0.3333
vn -0.7071 -0.2358 0.6667
vn -0.0000 -0.8165 0.5774
vn 0.7071 -0.2358 0.6667
vn -0.0000 0.9428 0.3333
vt 0.000000 1.000000
vt 1.000000 0.188679
vt 1.000000 0.000000
vt 0.000000 0.000000
vt 8.876485 0.000001
vt 8.114986 0.999999
vt -7.114986 0.999999
vt -7.876485 0.000001
vt 7.701601 0.000001
vt 7.701601 0.999999
vt 8.093229 0.999999
vt 8.093229 0.000001
vt 12.596950 0.999999
vt 12.596950 0.000001
vt 12.988578 0.999999
vt 12.988578 0.000001
vt 13.554262 0.999999
vt 14.315761 0.000001
vt -13.315761 0.000001
vt -12.554262 0.999999
vt -11.988578 0.999999
vt -11.988578 0.000001
vt -11.596950 0.999999
vt -11.596950 0.000001
vt -7.093230 0.999999
vt -7.093230 0.000001
vt -6.701601 0.999999
vt -6.701601 0.000001
vt -2.197881 0.999999
vt -2.197881 0.000001
vt -1.806253 0.999999
vt -1.806253 0.000001
vt 2.806253 0.999999
vt 2.806253 0.000001
vt 3.197881 0.999999
vt 3.197881 0.000001
vt 1.000000 1.000000
vt 0.960000 0.000000
vt 1.000000 0.273973
vt 0.960000 0.273973
vt 1.000000 0.410959
vt 0.960000 0.410959
vt 0.000000 0.604230
vt 1.000000 0.604230
vt 0.000000 0.694864
vt 4.350000 0.000000
vt 4.350000 1.000000
vt -3.350000 1.000000
vt -3.350000 0.000000
vt -6.500000 0.000000
vt 7.500000 0.000000
vt 7.500000 1.000000
vt -6.500000 1.000000
vt 1.000000 0.375000
vt 0.893902 0.700000
vt 0.106098 0.700000
vt 0.106098 0.299999
vt 0.893902 0.299999
vt 0.089455 1.000000
vt 0.089455 0.000000
vt 0.910545 0.000000
vt 0.910545 1.000000
vt 1.995000 1.000000
vt -0.995000 1.000000
vt -0.995000 0.000000
vt 1.995000 0.000000
vt 0.000000 -0.550000
vt 1.000000 -0.550000
vt 1.000000 1.550000
vt 0.000000 1.550000
vt 1.000000 0.899847
vt 0.000000 0.899847
vt -0.674643 1.000000
vt -0.674643 0.000000
vt 2.750000 0.000000
vt -1.750000 0.000000
vt -1.750000 1.000000
vt 2.750000 1.000000
vt 0.002442 0.802076
vt 0.030201 0.071795
vt 0.030201 0.773794
vt 0.100671 0.933340
vt 0.899329 0.933340
vt 0.969799 0.773794
vt 0.997558 0.802076
vt 0.969799 0.071795
vt 0.000000 0.869565
vt 1.000000 0.869565
vt 0.983607 0.978723
vt 0.983607 0.000000
vt 0.016393 0.978723
vt 0.016393 0.000000
vt 3.990000 1.000000
vt 3.810000 1.000000
vt 3.810000 0.000000
vt 3.990000 0.000000
vt 6.060000 1.000000
vt 6.060000 0.000000
vt 6.240000 1.000000
vt 6.240000 0.000000
vt 6.850000 1.000000
vt 6.850000 0.000000
vt -5.850000 1.000000
vt -5.850000 0.000000
vt -5.240000 0.000000
vt -5.240000 1.000000
vt -5.060000 1.000000
vt -5.060000 0.000000
vt -2.990000 1.000000
vt -2.990000 0.000000
vt -2.810000 1.000000
vt -2.810000 0.000000
vt -0.740000 1.000000
vt -0.740000 0.000000
vt -0.560000 1.000000
vt -0.560000 0.000000
vt 1.560000 1.000000
vt 1.560000 0.000000
vt 1.740000 1.000000
vt 1.740000 0.000000
vt 1.601852 1.000000
vt 1.796296 0.814815
vt 1.796296 0.000000
vt 0.435185 0.722222
vt 0.564815 0.722222
vt 0.564815 0.074074
vt 0.435185 0.074074
vt -0.037037 0.074074
vt -0.796296 0.000000
vt -0.037037 0.722222
vt -0.601852 1.000000
vt 1.037037 0.722222
vt 1.037037 0.074074
vt -0.796296 0.814815
vt 1.000000 0.977273
vt 1.000000 0.022727
vt -0.476829 0.893902
vt -0.370732 1.000000
vt -0.951219 1.000000
vt -0.845122 0.893902
vt -0.951219 0.000000
vt -0.845122 0.106098
vt -0.476829 0.106098
vt -0.370732 0.000000
vt 1.370732 0.000000
vt 1.370732 1.000000
vt 1.476829 0.893902
vt 1.845122 0.893902
vt 1.951220 1.000000
vt 1.951220 0.000000
vt 1.845122 0.106098
vt 1.476829 0.106098
vt -0.350000 1.000000
vt -0.453571 0.896429
vt -0.453571 0.103571
vt -0.916667 1.000000
vt -0.813095 0.896429
vt -0.916667 0.000000
vt -0.813095 0.103571
vt -0.350000 0.000000
vt 1.350000 0.000000
vt 1.350000 1.000000
vt 1.453571 0.896429
vt 1.813095 0.896429
vt 1.916667 1.000000
vt 1.916667 0.000000
vt 1.813095 0.103571
vt 1.453571 0.103571
vt 0.125000 0.875000
vt 0.375000 0.750000
vt 0.125000 0.750000
vt 0.375000 0.875000
vt 1.030000 0.500000
vt -0.030000 0.500000
vt 0.500000 -0.030000
vt 0.500000 1.030000
s 1
usemtl imp_buildingTextureswall16
f 1/1/1 2/2/1 3/3/1
f 3/3/1 4/4/1 1/1/1
f 5/1/1 6/2/1 7/3/1
f 7/3/1 8/4/1 5/1/1
f 9/1/1 10/2/1 11/3/1
f 11/3/1 12/4/1 9/1/1
f 13/1/1 14/2/1 15/3/1
f 15/3/1 16/4/1 13/1/1
f 17/1/1 18/2/1 19/3/1
f 19/3/1 20/4/1 17/1/1
f 21/1/1 22/2/1 23/3/1
f 23/3/1 24/4/1 21/1/1
f 25/4/2 26/3/2 27/2/2
f 27/2/2 28/1/2 25/4/2
f 29/4/2 30/3/2 31/2/2
f 31/2/2 32/1/2 29/4/2
f 33/4/2 34/3/2 35/2/2
f 35/2/2 36/1/2 33/4/2
f 37/4/2 38/3/2 39/2/2
f 39/2/2 40/1/2 37/4/2
f 41/4/2 42/3/2 43/2/2
f 43/2/2 44/1/2 41/4/2
f 45/4/2 46/3/2 47/2/2
f 47/2/2 48/1/2 45/4/2
f 49/1/1 50/4/1 51/3/1
f 51/3/1 52/2/1 49/1/1
f 53/1/1 54/4/1 55/3/1
f 55/3/1 56/2/1 53/1/1
f 57/1/1 58/4/1 59/3/1
f 59/3/1 60/2/1 57/1/1
f 61/1/1 62/4/1 63/3/1
f 63/3/1 64/2/1 61/1/1
f 65/1/1 66/4/1 67/3/1
f 67/3/1 68/2/1 65/1/1
f 69/1/1 70/4/1 71/3/1
f 71/3/1 72/2/1 69/1/1
f 73/1/2 74/2/2 75/3/2
f 75/3/2 76/4/2 73/1/2
f 77/1/2 78/2/2 79/3/2
f 79/3/2 80/4/2 77/1/2
f 81/1/2 82/2/2 83/3/2
f 83/3/2 84/4/2 81/1/2
f 85/1/2 86/2/2 87/3/2
f 87/3/2 88/4/2 85/1/2
f 89/1/2 90/2/2 91/3/2
f 91/3/2 92/4/2 89/1/2
f 93/1/2 94/2/2 95/3/2
f 95/3/2 96/4/2 93/1/2
usemtl imp_buildingTextureswall10
f 97/5/3 98/6/3 99/7/3
f 99/7/3 100/8/3 97/5/3
f 101/9/4 102/10/4 103/11/4
f 103/11/4 104/12/4 101/9/4
f 104/12/4 103/11/4 105/13/4
f 105/13/4 106/14/4 104/12/4
f 106/14/4 105/13/4 107/15/4
f 107/15/4 108/16/4 106/14/4
f 108/16/4 107/15/4 109/17/4
f 109/17/4 110/18/4 108/16/4
f 100/19/4 99/20/4 111/21/4
f 111/21/4 112/22/4 100/19/4
f 112/22/4 111/21/4 113/23/4
f 113/23/4 114/24/4 112/22/4
f 114/24/4 113/23/4 115/25/4
f 115/25/4 116/26/4 114/24/4
f 116/26/4 115/25/4 117/27/4
f 117/27/4 118/28/4 116/26/4
f 118/28/4 117/27/4 119/29/4
f 119/29/4 120/30/4 118/28/4
f 120/30/4 119/29/4 121/31/4
f 121/31/4 122/32/4 120/30/4
f 122/32/4 121/31/4 123/33/4
f 123/33/4 124/34/4 122/32/4
f 124/34/4 123/33/4 125/35/4
f 125/35/4 126/36/4 124/34/4
f 126/36/4 125/35/4 102/10/4
f 102/10/4 101/9/4 126/36/4
f 127/21/5 98/20/5 97/19/5
f 97/19/5 128/22/5 127/21/5
f 129/23/5 127/21/5 128/22/5
f 128/22/5 130/24/5 129/23/5
f 131/25/5 129/23/5 130/24/5
f 130/24/5 132/26/5 131/25/5
f 133/27/5 131/25/5 132/26/5
f 132/26/5 134/28/5 133/27/5
f 135/29/5 133/27/5 134/28/5
f 134/28/5 136/30/5 135/29/5
f 137/31/5 135/29/5 136/30/5
f 136/30/5 138/32/5 137/31/5
f 139/33/5 137/31/5 138/32/5
f 138/32/5 140/34/5 139/33/5
f 141/35/5 139/33/5 140/34/5
f 140/34/5 142/36/5 141/35/5
f 143/10/5 141/35/5 142/36/5
f 142/36/5 144/9/5 143/10/5
f 145/11/5 143/10/5 144/9/5
f 144/9/5 146/12/5 145/11/5
f 147/13/5 145/11/5 146/12/5
f 146/12/5 148/14/5 147/13/5
f 149/15/5 147/13/5 148/14/5
f 148/14/5 150/16/5 149/15/5
f 151/17/5 149/15/5 150/16/5
f 150/16/5 152/18/5 151/17/5
f 109/7/6 151/6/6 152/5/6
f 152/5/6 110/8/6 109/7/6
usemtl glassPanel01
f 153/4/7 154/1/7 155/37/7
f 155/37/7 156/3/7 153/4/7
f 157/4/8 158/1/8 159/37/8
f 159/37/8 160/3/8 157/4/8
f 161/4/9 162/1/9 163/37/9
f 163/37/9 164/3/9 161/4/9
f 165/4/9 166/1/9 167/37/9
f 167/37/9 168/3/9 165/4/9
f 169/4/7 170/1/7 171/37/7
f 171/37/7 172/3/7 169/4/7
f 173/4/8 174/1/8 175/37/8
f 175/37/8 176/3/8 173/4/8
f 177/4/9 178/1/9 179/37/9
f 179/37/9 180/3/9 177/4/9
f 181/4/9 182/1/9 183/37/9
f 183/37/9 184/3/9 181/4/9
f 185/4/7 186/1/7 187/37/7
f 187/37/7 188/3/7 185/4/7
f 189/4/8 190/1/8 191/37/8
f 191/37/8 192/3/8 189/4/8
f 193/4/9 194/1/9 195/37/9
f 195/37/9 196/3/9 193/4/9
f 197/4/9 198/1/9 199/37/9
f 199/37/9 200/3/9 197/4/9
f 201/4/7 202/1/7 203/37/7
f 203/37/7 204/3/7 201/4/7
f 205/4/8 206/1/8 207/37/8
f 207/37/8 208/3/8 205/4/8
f 209/4/9 210/1/9 211/37/9
f 211/37/9 212/3/9 209/4/9
f 213/4/9 214/1/9 215/37/9
f 215/37/9 216/3/9 213/4/9
f 217/4/7 218/1/7 219/37/7
f 219/37/7 220/3/7 217/4/7
f 221/4/8 222/1/8 223/37/8
f 223/37/8 224/3/8 221/4/8
f 225/4/9 226/1/9 227/37/9
f 227/37/9 228/3/9 225/4/9
f 229/4/9 230/1/9 231/37/9
f 231/37/9 232/3/9 229/4/9
usemtl imp_buildingTextureswall08
f 233/37/9 234/3/9 235/4/9
f 235/4/9 236/1/9 233/37/9
f 237/38/10 238/3/10 23/39/10
f 23/39/10 46/40/10 237/38/10
f 46/40/10 23/39/10 22/41/10
f 22/41/10 47/42/10 46/40/10
f 239/38/10 240/3/10 15/39/10
f 15/39/10 38/40/10 239/38/10
f 38/40/10 15/39/10 14/41/10
f 14/41/10 39/42/10 38/40/10
f 241/38/10 242/3/10 11/39/10
f 11/39/10 34/40/10 241/38/10
f 34/40/10 11/39/10 10/41/10
f 10/41/10 35/42/10 34/40/10
f 243/38/10 244/3/10 3/39/10
f 3/39/10 26/40/10 243/38/10
f 26/40/10 3/39/10 2/41/10
f 2/41/10 27/42/10 26/40/10
f 245/3/10 246/4/10 247/43/10
f 247/43/10 248/44/10 245/3/10
f 248/44/10 247/43/10 249/45/10
f 249/45/10 250/37/10 248/44/10
f 251/1/8 252/37/8 253/3/8
f 253/3/8 254/4/8 251/1/8
f 255/4/7 256/3/7 257/37/7
f 257/37/7 258/1/7 255/4/7
f 254/1/10 253/37/10 259/3/10
f 259/3/10 151/4/10 254/1/10
f 258/4/9 257/1/9 252/37/9
f 252/37/9 251/3/9 258/4/9
f 109/4/11 260/3/11 256/37/11
f 256/37/11 255/1/11 109/4/11
f 261/46/2 97/47/2 100/48/2
f 100/48/2 262/49/2 261/46/2
f 263/3/12 264/37/12 265/1/12
f 265/1/12 266/4/12 263/3/12
f 267/4/12 268/3/12 269/37/12
f 269/37/12 270/1/12 267/4/12
f 271/50/13 272/51/13 273/52/13
f 273/52/13 274/53/13 271/50/13
f 275/52/2 276/53/2 274/50/2
f 274/50/2 273/51/2 275/52/2
f 276/50/13 275/51/13 277/52/13
f 277/52/13 278/53/13 276/50/13
f 279/52/2 280/53/2 278/50/2
f 278/50/2 277/51/2 279/52/2
f 280/50/13 279/51/13 281/52/13
f 281/52/13 282/53/13 280/50/13
f 283/52/2 284/53/2 282/50/2
f 282/50/2 281/51/2 283/52/2
f 284/50/9 283/51/9 285/52/9
f 285/52/9 286/53/9 284/50/9
f 287/1/14 288/37/14 289/3/14
f 289/3/14 290/4/14 287/1/14
f 291/4/9 292/3/9 293/37/9
f 293/37/9 294/1/9 291/4/9
f 295/1/8 296/4/8 297/3/8
f 297/3/8 298/37/8 295/1/8
f 299/4/7 300/1/7 301/37/7
f 301/37/7 302/3/7 299/4/7
f 296/1/10 98/4/10 303/3/10
f 303/3/10 297/37/10 296/1/10
f 300/4/9 295/3/9 298/37/9
f 298/37/9 301/1/9 300/4/9
f 99/4/11 299/1/11 302/37/11
f 302/37/11 304/3/11 99/4/11
f 305/3/11 306/54/11 307/1/11
f 307/1/11 308/4/11 305/3/11
f 306/1/15 309/37/15 310/3/15
f 310/3/15 307/4/15 306/1/15
f 311/3/10 312/4/10 310/1/10
f 310/1/10 309/54/10 311/3/10
f 311/3/2 309/37/2 306/1/2
f 306/1/2 305/4/2 311/3/2
f 313/3/11 314/4/11 315/1/11
f 315/1/11 316/54/11 313/3/11
f 316/1/16 315/4/16 317/3/16
f 317/3/16 318/37/16 316/1/16
f 319/3/10 318/54/10 317/1/10
f 317/1/10 320/4/10 319/3/10
f 319/3/1 313/4/1 316/1/1
f 316/1/1 318/37/1 319/3/1
f 321/4/17 322/1/17 323/37/17
f 323/37/17 324/3/17 321/4/17
f 325/4/1 321/1/1 324/37/1
f 324/37/1 326/3/1 325/4/1
f 327/4/18 325/1/18 326/37/18
f 326/37/18 328/3/18 327/4/18
f 327/4/2 328/1/2 323/37/2
f 323/37/2 322/3/2 327/4/2
f 329/4/11 330/1/11 331/37/11
f 331/37/11 332/3/11 329/4/11
f 333/4/1 329/1/1 332/37/1
f 332/37/1 334/3/1 333/4/1
f 335/4/10 333/1/10 334/37/10
f 334/37/10 336/3/10 335/4/10
f 330/4/2 335/1/2 336/37/2
f 336/37/2 331/3/2 330/4/2
f 337/4/17 338/1/17 339/37/17
f 339/37/17 340/3/17 337/4/17
f 341/4/1 337/1/1 340/37/1
f 340/37/1 342/3/1 341/4/1
f 343/4/18 341/1/18 342/37/18
f 342/37/18 344/3/18 343/4/18
f 343/4/2 344/1/2 339/37/2
f 339/37/2 338/3/2 343/4/2
f 345/4/11 346/1/11 347/37/11
f 347/37/11 348/3/11 345/4/11
f 349/4/1 345/1/1 348/37/1
f 348/37/1 350/3/1 349/4/1
f 351/4/10 349/1/10 350/37/10
f 350/37/10 352/3/10 351/4/10
f 346/4/2 351/1/2 352/37/2
f 352/37/2 347/3/2 346/4/2
f 353/4/17 354/3/17 355/37/17
f 355/37/17 356/1/17 353/4/17
f 357/4/2 358/3/2 354/37/2
f 354/37/2 353/1/2 357/4/2
f 359/4/18 360/3/18 358/37/18
f 358/37/18 357/1/18 359/4/18
f 359/4/1 356/3/1 355/37/1
f 355/37/1 360/1/1 359/4/1
f 361/4/11 362/3/11 363/37/11
f 363/37/11 364/1/11 361/4/11
f 365/4/2 366/3/2 362/37/2
f 362/37/2 361/1/2 365/4/2
f 367/4/10 368/3/10 366/37/10
f 366/37/10 365/1/10 367/4/10
f 364/4/1 363/3/1 368/37/1
f 368/37/1 367/1/1 364/4/1
f 369/4/17 370/3/17 371/37/17
f 371/37/17 372/1/17 369/4/17
f 373/4/2 374/3/2 370/37/2
f 370/37/2 369/1/2 373/4/2
f 375/4/18 376/3/18 374/37/18
f 374/37/18 373/1/18 375/4/18
f 375/4/1 372/3/1 371/37/1
f 371/37/1 376/1/1 375/4/1
f 377/4/11 378/3/11 379/37/11
f 379/37/11 380/1/11 377/4/11
f 381/4/2 382/3/2 378/37/2
f 378/37/2 377/1/2 381/4/2
f 383/4/10 384/3/10 382/37/10
f 382/37/10 381/1/10 383/4/10
f 380/4/1 379/3/1 384/37/1
f 384/37/1 383/1/1 380/4/1
f 385/4/17 386/3/17 387/37/17
f 387/37/17 388/1/17 385/4/17
f 389/4/2 390/3/2 386/37/2
f 386/37/2 385/1/2 389/4/2
f 391/4/18 392/3/18 390/37/18
f 390/37/18 389/1/18 391/4/18
f 391/4/1 388/3/1 387/37/1
f 387/37/1 392/1/1 391/4/1
f 393/4/11 394/3/11 395/37/11
f 395/37/11 396/1/11 393/4/11
f 397/4/2 398/3/2 394/37/2
f 394/37/2 393/1/2 397/4/2
f 399/4/10 400/3/10 398/37/10
f 398/37/10 397/1/10 399/4/10
f 396/4/1 395/3/1 400/37/1
f 400/37/1 399/1/1 396/4/1
f 401/4/19 402/3/19 403/37/19
f 403/37/19 404/1/19 401/4/19
f 405/4/1 406/3/1 402/37/1
f 402/37/1 401/1/1 405/4/1
f 407/4/20 408/3/20 406/37/20
f 406/37/20 405/1/20 407/4/20
f 407/4/2 404/3/2 403/37/2
f 403/37/2 408/1/2 407/4/2
f 409/4/10 410/3/10 411/37/10
f 411/37/10 412/1/10 409/4/10
f 413/4/1 414/3/1 410/37/1
f 410/37/1 409/1/1 413/4/1
f 415/4/11 416/3/11 414/37/11
f 414/37/11 413/1/11 415/4/11
f 412/4/2 411/3/2 416/37/2
f 416/37/2 415/1/2 412/4/2
f 417/4/19 418/3/19 419/37/19
f 419/37/19 420/1/19 417/4/19
f 421/4/1 422/3/1 418/37/1
f 418/37/1 417/1/1 421/4/1
f 423/4/20 424/3/20 422/37/20
f 422/37/20 421/1/20 423/4/20
f 423/4/2 420/3/2 419/37/2
f 419/37/2 424/1/2 423/4/2
f 425/4/10 426/3/10 427/37/10
f 427/37/10 428/1/10 425/4/10
f 429/4/1 430/3/1 426/37/1
f 426/37/1 425/1/1 429/4/1
f 431/4/11 432/3/11 430/37/11
f 430/37/11 429/1/11 431/4/11
f 428/4/2 427/3/2 432/37/2
f 432/37/2 431/1/2 428/4/2
f 433/4/19 434/1/19 435/37/19
f 435/37/19 436/3/19 433/4/19
f 437/4/2 433/1/2 436/37/2
f 436/37/2 438/3/2 437/4/2
f 439/4/20 437/1/20 438/37/20
f 438/37/20 440/3/20 439/4/20
f 439/4/1 440/1/1 435/37/1
f 435/37/1 434/3/1 439/4/1
f 441/4/10 442/1/10 443/37/10
f 443/37/10 444/3/10 441/4/10
f 445/4/2 441/1/2 444/37/2
f 444/37/2 446/3/2 445/4/2
f 447/4/11 445/1/11 446/37/11
f 446/37/11 448/3/11 447/4/11
f 442/4/1 447/1/1 448/37/1
f 448/37/1 443/3/1 442/4/1
f 449/4/19 450/1/19 451/37/19
f 451/37/19 452/3/19 449/4/19
f 453/4/2 449/1/2 452/37/2
f 452/37/2 454/3/2 453/4/2
f 455/4/20 453/1/20 454/37/20
f 454/37/20 456/3/20 455/4/20
f 455/4/1 456/1/1 451/37/1
f 451/37/1 450/3/1 455/4/1
f 457/4/10 458/1/10 459/37/10
f 459/37/10 460/3/10 457/4/10
f 461/4/2 457/1/2 460/37/2
f 460/37/2 462/3/2 461/4/2
f 463/4/11 461/1/11 462/37/11
f 462/37/11 464/3/11 463/4/11
f 458/4/1 463/1/1 464/37/1
f 464/37/1 459/3/1 458/4/1
f 465/4/19 466/1/19 467/37/19
f 467/37/19 468/3/19 465/4/19
f 469/4/2 465/1/2 468/37/2
f 468/37/2 470/3/2 469/4/2
f 471/4/20 469/1/20 470/37/20
f 470/37/20 472/3/20 471/4/20
f 471/4/1 472/1/1 467/37/1
f 467/37/1 466/3/1 471/4/1
f 473/4/10 474/1/10 475/37/10
f 475/37/10 476/3/10 473/4/10
f 477/4/2 473/1/2 476/37/2
f 476/37/2 478/3/2 477/4/2
f 479/4/11 477/1/11 478/37/11
f 478/37/11 480/3/11 479/4/11
f 474/4/1 479/1/1 480/37/1
f 480/37/1 475/3/1 474/4/1
f 469/55/7 481/37/7 482/3/7
f 481/37/7 469/55/7 471/56/7
f 471/56/7 483/1/7 481/37/7
f 484/4/7 483/1/7 471/56/7
f 471/56/7 466/57/7 484/4/7
f 484/4/7 466/57/7 465/58/7
f 465/58/7 482/3/7 484/4/7
f 482/3/7 465/58/7 469/55/7
f 437/55/7 485/37/7 486/3/7
f 485/37/7 437/55/7 439/56/7
f 439/56/7 487/1/7 485/37/7
f 488/4/7 487/1/7 439/56/7
f 439/56/7 434/57/7 488/4/7
f 488/4/7 434/57/7 433/58/7
f 433/58/7 486/3/7 488/4/7
f 486/3/7 433/58/7 437/55/7
f 453/55/7 489/37/7 490/3/7
f 489/37/7 453/55/7 455/56/7
f 455/56/7 491/1/7 489/37/7
f 492/4/7 491/1/7 455/56/7
f 455/56/7 450/57/7 492/4/7
f 492/4/7 450/57/7 449/58/7
f 449/58/7 490/3/7 492/4/7
f 490/3/7 449/58/7 453/55/7
f 423/55/7 493/37/7 494/3/7
f 493/37/7 423/55/7 421/56/7
f 421/56/7 495/1/7 493/37/7
f 496/4/7 495/1/7 421/56/7
f 421/56/7 417/57/7 496/4/7
f 496/4/7 417/57/7 420/58/7
f 420/58/7 494/3/7 496/4/7
f 494/3/7 420/58/7 423/55/7
f 497/37/21 498/1/21 499/4/21
f 499/4/21 500/3/21 497/37/21
f 501/59/9 502/60/9 498/61/9
f 498/61/9 497/62/9 501/59/9
f 503/3/22 504/4/22 502/1/22
f 502/1/22 501/37/22 503/3/22
f 500/37/23 499/1/23 505/4/23
f 505/4/23 506/3/23 500/37/23
f 507/3/24 508/4/24 504/1/24
f 504/1/24 503/37/24 507/3/24
f 509/37/21 510/1/21 511/4/21
f 511/4/21 512/3/21 509/37/21
f 513/59/9 514/60/9 510/61/9
f 510/61/9 509/62/9 513/59/9
f 515/3/22 516/4/22 514/1/22
f 514/1/22 513/37/22 515/3/22
f 512/37/23 511/1/23 517/4/23
f 517/4/23 518/3/23 512/37/23
f 519/3/24 520/4/24 516/1/24
f 516/1/24 515/37/24 519/3/24
f 521/37/21 522/1/21 523/4/21
f 523/4/21 524/3/21 521/37/21
f 525/59/9 526/60/9 522/61/9
f 522/61/9 521/62/9 525/59/9
f 527/3/22 528/4/22 526/1/22
f 526/1/22 525/37/22 527/3/22
f 524/37/23 523/1/23 529/4/23
f 529/4/23 530/3/23 524/37/23
f 531/3/24 532/4/24 528/1/24
f 528/1/24 527/37/24 531/3/24
f 533/37/21 534/1/21 535/4/21
f 535/4/21 536/3/21 533/37/21
f 537/59/9 538/60/9 534/61/9
f 534/61/9 533/62/9 537/59/9
f 539/3/22 540/4/22 538/1/22
f 538/1/22 537/37/22 539/3/22
f 536/37/23 535/1/23 541/4/23
f 541/4/23 542/3/23 536/37/23
f 543/3/24 544/4/24 540/1/24
f 540/1/24 539/37/24 543/3/24
f 545/37/21 546/1/21 547/4/21
f 547/4/21 548/3/21 545/37/21
f 549/59/9 550/60/9 546/61/9
f 546/61/9 545/62/9 549/59/9
f 551/3/22 552/4/22 550/1/22
f 550/1/22 549/37/22 551/3/22
f 548/37/23 547/1/23 553/4/23
f 553/4/23 554/3/23 548/37/23
f 555/3/24 556/4/24 552/1/24
f 552/1/24 551/37/24 555/3/24
f 557/37/21 558/3/21 559/4/21
f 559/4/21 560/1/21 557/37/21
f 561/59/9 557/62/9 560/61/9
f 560/61/9 562/60/9 561/59/9
f 563/3/22 561/37/22 562/1/22
f 562/1/22 564/4/22 563/3/22
f 558/37/23 565/3/23 566/4/23
f 566/4/23 559/1/23 558/37/23
f 567/3/24 563/37/24 564/1/24
f 564/1/24 568/4/24 567/3/24
f 569/63/10 570/64/10 571/65/10
f 571/65/10 572/66/10 569/63/10
f 571/67/1 54/68/1 53/69/1
f 53/69/1 572/70/1 571/67/1
f 570/67/2 569/70/2 77/69/2
f 77/69/2 80/68/2 570/67/2
f 573/63/10 574/64/10 575/65/10
f 575/65/10 576/66/10 573/63/10
f 575/67/1 66/68/1 65/69/1
f 65/69/1 576/70/1 575/67/1
f 574/67/2 573/70/2 89/69/2
f 89/69/2 92/68/2 574/67/2
f 577/63/10 578/64/10 579/65/10
f 579/65/10 580/66/10 577/63/10
f 579/67/1 70/68/1 69/69/1
f 69/69/1 580/70/1 579/67/1
f 578/67/2 577/70/2 93/69/2
f 93/69/2 96/68/2 578/67/2
f 581/63/10 582/64/10 583/65/10
f 583/65/10 584/66/10 581/63/10
f 583/67/1 62/68/1 61/69/1
f 61/69/1 584/70/1 583/67/1
f 582/67/2 581/70/2 85/69/2
f 85/69/2 88/68/2 582/67/2
f 585/63/10 586/64/10 587/65/10
f 587/65/10 588/66/10 585/63/10
f 587/67/1 58/68/1 57/69/1
f 57/69/1 588/70/1 587/67/1
f 586/67/2 585/70/2 81/69/2
f 81/69/2 84/68/2 586/67/2
f 589/63/10 590/64/10 591/65/10
f 591/65/10 592/66/10 589/63/10
f 591/67/1 50/68/1 49/69/1
f 49/69/1 592/70/1 591/67/1
f 590/67/2 589/70/2 73/69/2
f 73/69/2 76/68/2 590/67/2
f 593/63/11 594/66/11 595/65/11
f 595/65/11 596/64/11 593/63/11
f 595/67/1 594/70/1 5/69/1
f 5/69/1 8/68/1 595/67/1
f 596/67/2 29/68/2 32/69/2
f 32/69/2 593/70/2 596/67/2
f 597/63/11 598/66/11 599/65/11
f 599/65/11 600/64/11 597/63/11
f 599/67/1 598/70/1 17/69/1
f 17/69/1 20/68/1 599/67/1
f 600/67/2 41/68/2 44/69/2
f 44/69/2 597/70/2 600/67/2
f 601/63/11 602/66/11 603/65/11
f 603/65/11 604/64/11 601/63/11
f 603/67/1 602/70/1 21/69/1
f 21/69/1 24/68/1 603/67/1
f 604/67/2 45/68/2 48/69/2
f 48/69/2 601/70/2 604/67/2
f 605/63/11 606/66/11 607/65/11
f 607/65/11 608/64/11 605/63/11
f 607/67/1 606/70/1 13/69/1
f 13/69/1 16/68/1 607/67/1
f 608/67/2 37/68/2 40/69/2
f 40/69/2 605/70/2 608/67/2
f 609/63/11 610/66/11 611/65/11
f 611/65/11 612/64/11 609/63/11
f 611/67/1 610/70/1 9/69/1
f 9/69/1 12/68/1 611/67/1
f 612/67/2 33/68/2 36/69/2
f 36/69/2 609/70/2 612/67/2
f 613/63/11 614/66/11 615/65/11
f 615/65/11 616/64/11 613/63/11
f 615/67/1 614/70/1 1/69/1
f 1/69/1 4/68/1 615/67/1
f 616/67/2 25/68/2 28/69/2
f 28/69/2 613/70/2 616/67/2
f 617/1/1 618/37/1 317/71/1
f 317/71/1 315/72/1 617/1/1
f 619/1/10 620/37/10 621/3/10
f 621/3/10 622/4/10 619/1/10
f 623/1/11 624/4/11 625/3/11
f 625/3/11 626/37/11 623/1/11
f 236/37/11 235/1/11 627/4/11
f 627/4/11 628/3/11 236/37/11
f 233/37/10 629/3/10 630/4/10
f 630/4/10 234/1/10 233/37/10
f 272/37/2 271/1/2 307/72/2
f 307/72/2 310/71/2 272/37/2
f 290/1/10 631/4/10 632/3/10
f 632/3/10 287/37/10 290/1/10
f 289/1/11 288/37/11 633/3/11
f 633/3/11 634/4/11 289/1/11
f 294/37/11 635/3/11 636/4/11
f 636/4/11 291/1/11 294/37/11
f 293/37/10 292/1/10 637/4/10
f 637/4/10 638/3/10 293/37/10
f 80/73/2 79/63/2 639/66/2
f 639/66/2 640/74/2 80/73/2
f 570/64/2 80/73/2 640/74/2
f 640/74/2 641/65/2 570/64/2
f 569/4/9 572/1/9 53/37/9
f 53/37/9 77/3/9 569/4/9
f 78/75/25 77/76/25 53/77/25
f 53/77/25 56/78/25 78/75/25
f 92/73/2 91/63/2 642/66/2
f 642/66/2 643/74/2 92/73/2
f 574/64/2 92/73/2 643/74/2
f 643/74/2 644/65/2 574/64/2
f 573/4/9 576/1/9 65/37/9
f 65/37/9 89/3/9 573/4/9
f 90/75/25 89/76/25 65/77/25
f 65/77/25 68/78/25 90/75/25
f 96/73/2 95/63/2 645/66/2
f 645/66/2 646/74/2 96/73/2
f 578/64/2 96/73/2 646/74/2
f 646/74/2 647/65/2 578/64/2
f 577/4/9 580/1/9 69/37/9
f 69/37/9 93/3/9 577/4/9
f 94/75/25 93/76/25 69/77/25
f 69/77/25 72/78/25 94/75/25
f 88/73/2 87/63/2 648/66/2
f 648/66/2 649/74/2 88/73/2
f 582/64/2 88/73/2 649/74/2
f 649/74/2 650/65/2 582/64/2
f 581/4/9 584/1/9 61/37/9
f 61/37/9 85/3/9 581/4/9
f 86/75/25 85/76/25 61/77/25
f 61/77/25 64/78/25 86/75/25
f 84/73/2 83/63/2 651/66/2
f 651/66/2 652/74/2 84/73/2
f 586/64/2 84/73/2 652/74/2
f 652/74/2 653/65/2 586/64/2
f 585/4/9 588/1/9 57/37/9
f 57/37/9 81/3/9 585/4/9
f 82/75/25 81/76/25 57/77/25
f 57/77/25 60/78/25 82/75/25
f 76/73/2 75/63/2 654/66/2
f 654/66/2 655/74/2 76/73/2
f 590/64/2 76/73/2 655/74/2
f 655/74/2 656/65/2 590/64/2
f 589/4/9 592/1/9 49/37/9
f 49/37/9 73/3/9 589/4/9
f 74/75/25 73/76/25 49/77/25
f 49/77/25 52/78/25 74/75/25
f 593/4/9 32/3/9 5/37/9
f 5/37/9 594/1/9 593/4/9
f 31/75/26 6/78/26 5/77/26
f 5/77/26 32/76/26 31/75/26
f 597/4/9 44/3/9 17/37/9
f 17/37/9 598/1/9 597/4/9
f 43/75/26 18/78/26 17/77/26
f 17/77/26 44/76/26 43/75/26
f 601/4/9 48/3/9 21/37/9
f 21/37/9 602/1/9 601/4/9
f 47/75/26 22/78/26 21/77/26
f 21/77/26 48/76/26 47/75/26
f 605/4/9 40/3/9 13/37/9
f 13/37/9 606/1/9 605/4/9
f 39/75/26 14/78/26 13/77/26
f 13/77/26 40/76/26 39/75/26
f 609/4/9 36/3/9 9/37/9
f 9/37/9 610/1/9 609/4/9
f 35/75/26 10/78/26 9/77/26
f 9/77/26 36/76/26 35/75/26
f 613/4/9 28/3/9 1/37/9
f 1/37/9 614/1/9 613/4/9
f 27/75/26 2/78/26 1/77/26
f 1/77/26 28/76/26 27/75/26
f 657/46/1 658/49/1 110/48/1
f 110/48/1 152/47/1 657/46/1
f 659/3/27 660/4/27 661/1/27
f 661/1/27 662/37/27 659/3/27
f 663/4/27 664/1/27 250/37/27
f 250/37/27 249/3/27 663/4/27
f 617/50/28 665/53/28 666/52/28
f 666/52/28 618/51/28 617/50/28
f 667/52/1 666/51/1 665/50/1
f 665/50/1 668/53/1 667/52/1
f 668/50/28 669/53/28 670/52/28
f 670/52/28 667/51/28 668/50/28
f 671/52/1 670/51/1 669/50/1
f 669/50/1 672/53/1 671/52/1
f 672/50/28 673/53/28 674/52/28
f 674/52/28 671/51/28 672/50/28
f 675/52/1 674/51/1 673/50/1
f 673/50/1 676/53/1 675/52/1
f 676/50/9 677/53/9 678/52/9
f 678/52/9 675/51/9 676/50/9
f 620/1/14 619/4/14 623/3/14
f 623/3/14 626/37/14 620/1/14
f 564/79/1 260/80/1 568/4/1
f 564/79/1 256/81/1 260/80/1
f 256/81/1 564/79/1 562/59/1
f 562/59/1 257/82/1 256/81/1
f 257/82/1 562/59/1 560/62/1
f 560/62/1 252/83/1 257/82/1
f 253/84/1 252/83/1 560/62/1
f 560/62/1 559/85/1 253/84/1
f 253/84/1 559/85/1 259/86/1
f 259/86/1 559/85/1 566/3/1
f 679/80/2 563/79/2 567/4/2
f 494/81/2 563/79/2 679/80/2
f 561/59/2 563/79/2 494/81/2
f 494/81/2 493/82/2 561/59/2
f 561/59/2 493/82/2 680/83/2
f 680/83/2 557/62/2 561/59/2
f 557/62/2 680/83/2 681/84/2
f 681/84/2 558/85/2 557/62/2
f 558/85/2 681/84/2 682/86/2
f 558/85/2 682/86/2 565/3/2
f 246/3/1 683/4/1 684/87/1
f 684/87/1 247/88/1 246/3/1
f 247/88/1 684/87/1 663/1/1
f 663/1/1 249/37/1 247/88/1
f 264/37/10 263/45/10 685/43/10
f 685/43/10 686/44/10 264/37/10
f 687/3/10 686/44/10 685/43/10
f 685/43/10 688/4/10 687/3/10
f 629/3/2 626/89/2 625/90/2
f 233/37/2 626/89/2 629/3/2
f 233/37/2 236/1/2 626/89/2
f 236/1/2 620/91/2 626/89/2
f 620/91/2 236/1/2 628/4/2
f 620/91/2 628/4/2 621/92/2
f 689/3/11 690/4/11 691/43/11
f 691/43/11 692/44/11 689/3/11
f 692/44/11 691/43/11 266/45/11
f 266/45/11 265/37/11 692/44/11
f 263/37/2 266/1/2 691/87/2
f 691/87/2 685/88/2 263/37/2
f 688/3/2 685/88/2 691/87/2
f 691/87/2 690/4/2 688/3/2
f 627/4/1 619/91/1 622/92/1
f 235/1/1 619/91/1 627/4/1
f 235/1/1 234/37/1 619/91/1
f 234/37/1 623/89/1 619/91/1
f 623/89/1 234/37/1 630/3/1
f 623/89/1 630/3/1 624/90/1
f 693/3/11 694/4/11 695/43/11
f 695/43/11 696/44/11 693/3/11
f 696/44/11 695/43/11 267/45/11
f 267/45/11 270/37/11 696/44/11
f 269/37/10 268/45/10 697/43/10
f 697/43/10 698/44/10 269/37/10
f 699/3/10 698/44/10 697/43/10
f 697/43/10 700/4/10 699/3/10
f 635/4/1 287/91/1 632/92/1
f 294/1/1 287/91/1 635/4/1
f 294/1/1 293/37/1 287/91/1
f 293/37/1 288/89/1 287/91/1
f 288/89/1 293/37/1 638/3/1
f 288/89/1 638/3/1 633/90/1
f 268/37/2 267/1/2 695/87/2
f 695/87/2 697/88/2 268/37/2
f 700/3/2 697/88/2 695/87/2
f 695/87/2 694/4/2 700/3/2
f 637/3/2 289/89/2 634/90/2
f 292/37/2 289/89/2 637/3/2
f 292/37/2 291/1/2 289/89/2
f 291/1/2 290/91/2 289/89/2
f 290/91/2 291/1/2 636/4/2
f 290/91/2 636/4/2 631/92/2
f 571/64/1 701/65/1 702/74/1
f 702/74/1 54/73/1 571/64/1
f 55/63/1 54/73/1 702/74/1
f 702/74/1 703/66/1 55/63/1
f 389/55/8 385/58/8 704/3/8
f 704/3/8 705/37/8 389/55/8
f 389/55/8 705/37/8 706/1/8
f 706/1/8 391/56/8 389/55/8
f 391/56/8 706/1/8 707/4/8
f 707/4/8 388/57/8 391/56/8
f 385/58/8 388/57/8 707/4/8
f 707/4/8 704/84/8 385/58/8
f 404/58/7 708/3/7 709/4/7
f 708/3/7 404/58/7 407/55/7
f 407/55/7 710/37/7 708/3/7
f 710/37/7 407/55/7 405/56/7
f 405/56/7 711/1/7 710/37/7
f 709/4/7 711/1/7 405/56/7
f 405/56/7 401/57/7 709/4/7
f 709/4/7 401/57/7 404/58/7
f 575/64/1 712/65/1 713/74/1
f 713/74/1 66/73/1 575/64/1
f 67/63/1 66/73/1 713/74/1
f 713/74/1 714/66/1 67/63/1
f 499/85/2 715/86/2 505/3/2
f 499/85/2 704/84/2 715/86/2
f 704/84/2 499/85/2 498/62/2
f 498/62/2 705/83/2 704/84/2
f 705/83/2 498/62/2 502/59/2
f 502/59/2 481/82/2 705/83/2
f 482/81/2 481/82/2 502/59/2
f 502/59/2 504/79/2 482/81/2
f 482/81/2 504/79/2 716/80/2
f 716/80/2 504/79/2 508/4/2
f 717/86/1 500/85/1 506/3/1
f 718/84/1 500/85/1 717/86/1
f 497/62/1 500/85/1 718/84/1
f 718/84/1 719/83/1 497/62/1
f 497/62/1 719/83/1 711/82/1
f 711/82/1 501/59/1 497/62/1
f 501/59/1 711/82/1 709/81/1
f 709/81/1 503/79/1 501/59/1
f 503/79/1 709/81/1 720/80/1
f 503/79/1 720/80/1 507/4/1
f 579/64/1 721/65/1 722/74/1
f 722/74/1 70/73/1 579/64/1
f 71/63/1 70/73/1 722/74/1
f 722/74/1 723/66/1 71/63/1
f 511/85/2 724/86/2 517/3/2
f 511/85/2 725/84/2 724/86/2
f 725/84/2 511/85/2 510/62/2
f 510/62/2 726/83/2 725/84/2
f 726/83/2 510/62/2 514/59/2
f 514/59/2 485/82/2 726/83/2
f 486/81/2 485/82/2 514/59/2
f 514/59/2 516/79/2 486/81/2
f 486/81/2 516/79/2 727/80/2
f 727/80/2 516/79/2 520/4/2
f 728/86/1 512/85/1 518/3/1
f 707/84/1 512/85/1 728/86/1
f 509/62/1 512/85/1 707/84/1
f 707/84/1 706/83/1 509/62/1
f 509/62/1 706/83/1 483/82/1
f 483/82/1 513/59/1 509/62/1
f 513/59/1 483/82/1 484/81/1
f 484/81/1 515/79/1 513/59/1
f 515/79/1 484/81/1 729/80/1
f 515/79/1 729/80/1 519/4/1
f 583/64/1 730/65/1 731/74/1
f 731/74/1 62/73/1 583/64/1
f 63/63/1 62/73/1 731/74/1
f 731/74/1 732/66/1 63/63/1
f 523/85/2 733/86/2 529/3/2
f 523/85/2 734/84/2 733/86/2
f 734/84/2 523/85/2 522/62/2
f 522/62/2 735/83/2 734/84/2
f 735/83/2 522/62/2 526/59/2
f 526/59/2 489/82/2 735/83/2
f 490/81/2 489/82/2 526/59/2
f 526/59/2 528/79/2 490/81/2
f 490/81/2 528/79/2 736/80/2
f 736/80/2 528/79/2 532/4/2
f 535/85/2 303/86/2 541/3/2
f 535/85/2 297/84/2 303/86/2
f 297/84/2 535/85/2 534/62/2
f 534/62/2 298/83/2 297/84/2
f 298/83/2 534/62/2 538/59/2
f 538/59/2 301/82/2 298/83/2
f 302/81/2 301/82/2 538/59/2
f 538/59/2 540/79/2 302/81/2
f 302/81/2 540/79/2 304/80/2
f 304/80/2 540/79/2 544/4/2
f 737/86/1 536/85/1 542/3/1
f 738/84/1 536/85/1 737/86/1
f 533/62/1 536/85/1 738/84/1
f 738/84/1 739/83/1 533/62/1
f 533/62/1 739/83/1 491/82/1
f 491/82/1 537/59/1 533/62/1
f 537/59/1 491/82/1 492/81/1
f 492/81/1 539/79/1 537/59/1
f 539/79/1 492/81/1 740/80/1
f 539/79/1 740/80/1 543/4/1
f 587/64/1 741/65/1 742/74/1
f 742/74/1 58/73/1 587/64/1
f 59/63/1 58/73/1 742/74/1
f 742/74/1 743/66/1 59/63/1
f 547/85/2 744/86/2 553/3/2
f 547/85/2 745/84/2 744/86/2
f 745/84/2 547/85/2 546/62/2
f 546/62/2 746/83/2 745/84/2
f 746/83/2 546/62/2 550/59/2
f 550/59/2 710/82/2 746/83/2
f 708/81/2 710/82/2 550/59/2
f 550/59/2 552/79/2 708/81/2
f 708/81/2 552/79/2 747/80/2
f 747/80/2 552/79/2 556/4/2
f 146/93/10 144/94/10 748/95/10
f 748/95/10 749/96/10 146/93/10
f 148/97/10 146/93/10 749/96/10
f 749/96/10 750/98/10 148/97/10
f 150/99/10 148/97/10 750/98/10
f 750/98/10 751/100/10 150/99/10
f 152/101/10 150/99/10 751/100/10
f 751/100/10 657/102/10 152/101/10
f 97/103/10 261/104/10 752/105/10
f 752/105/10 128/106/10 97/103/10
f 130/107/10 128/106/10 752/105/10
f 752/105/10 753/108/10 130/107/10
f 132/109/10 130/107/10 753/108/10
f 753/108/10 754/110/10 132/109/10
f 134/111/10 132/109/10 754/110/10
f 754/110/10 755/112/10 134/111/10
f 136/113/10 134/111/10 755/112/10
f 755/112/10 756/114/10 136/113/10
f 138/115/10 136/113/10 756/114/10
f 756/114/10 757/116/10 138/115/10
f 140/117/10 138/115/10 757/116/10
f 757/116/10 758/118/10 140/117/10
f 142/119/10 140/117/10 758/118/10
f 758/118/10 759/120/10 142/119/10
f 144/94/10 142/119/10 759/120/10
f 759/120/10 748/95/10 144/94/10
f 591/64/1 760/65/1 761/74/1
f 761/74/1 50/73/1 591/64/1
f 51/63/1 50/73/1 761/74/1
f 761/74/1 762/66/1 51/63/1
f 527/79/1 763/80/1 531/4/1
f 527/79/1 488/81/1 763/80/1
f 488/81/1 527/79/1 525/59/1
f 525/59/1 487/82/1 488/81/1
f 487/82/1 525/59/1 521/62/1
f 521/62/1 764/83/1 487/82/1
f 765/84/1 764/83/1 521/62/1
f 521/62/1 524/85/1 765/84/1
f 765/84/1 524/85/1 766/86/1
f 766/86/1 524/85/1 530/3/1
f 596/64/2 767/65/2 768/74/2
f 768/74/2 29/73/2 596/64/2
f 29/73/2 768/74/2 769/66/2
f 769/66/2 30/63/2 29/73/2
f 19/63/1 770/66/1 771/74/1
f 771/74/1 20/73/1 19/63/1
f 599/64/1 20/73/1 771/74/1
f 771/74/1 772/65/1 599/64/1
f 110/101/11 658/102/11 773/100/11
f 773/100/11 108/99/11 110/101/11
f 108/99/11 773/100/11 774/98/11
f 774/98/11 106/97/11 108/99/11
f 106/97/11 774/98/11 775/96/11
f 775/96/11 104/93/11 106/97/11
f 104/93/11 775/96/11 776/95/11
f 776/95/11 101/94/11 104/93/11
f 101/94/11 776/95/11 777/120/11
f 777/120/11 126/119/11 101/94/11
f 126/119/11 777/120/11 778/118/11
f 778/118/11 124/117/11 126/119/11
f 124/117/11 778/118/11 779/116/11
f 779/116/11 122/115/11 124/117/11
f 122/115/11 779/116/11 780/114/11
f 780/114/11 120/113/11 122/115/11
f 120/113/11 780/114/11 781/112/11
f 781/112/11 118/111/11 120/113/11
f 118/111/11 781/112/11 782/110/11
f 782/110/11 116/109/11 118/111/11
f 116/109/11 782/110/11 783/108/11
f 783/108/11 114/107/11 116/109/11
f 114/107/11 783/108/11 784/105/11
f 784/105/11 112/106/11 114/107/11
f 100/103/11 112/106/11 784/105/11
f 784/105/11 262/104/11 100/103/11
f 600/64/2 785/65/2 786/74/2
f 786/74/2 41/73/2 600/64/2
f 41/73/2 786/74/2 787/66/2
f 787/66/2 42/63/2 41/73/2
f 23/63/1 238/66/1 788/74/1
f 788/74/1 24/73/1 23/63/1
f 603/64/1 24/73/1 788/74/1
f 788/74/1 789/65/1 603/64/1
f 551/79/1 790/80/1 555/4/1
f 551/79/1 496/81/1 790/80/1
f 496/81/1 551/79/1 549/59/1
f 549/59/1 495/82/1 496/81/1
f 495/82/1 549/59/1 545/62/1
f 545/62/1 791/83/1 495/82/1
f 792/84/1 791/83/1 545/62/1
f 545/62/1 548/85/1 792/84/1
f 792/84/1 548/85/1 793/86/1
f 793/86/1 548/85/1 554/3/1
f 604/64/2 794/65/2 795/74/2
f 795/74/2 45/73/2 604/64/2
f 45/73/2 795/74/2 237/66/2
f 237/66/2 46/63/2 45/73/2
f 15/63/1 240/66/1 796/74/1
f 796/74/1 16/73/1 15/63/1
f 607/64/1 16/73/1 796/74/1
f 796/74/1 797/65/1 607/64/1
f 343/55/8 338/58/8 681/3/8
f 792/4/8 681/3/8 338/58/8
f 338/58/8 337/57/8 792/4/8
f 792/4/8 337/57/8 341/56/8
f 341/56/8 791/1/8 792/4/8
f 791/1/8 341/56/8 343/55/8
f 343/55/8 680/37/8 791/1/8
f 681/3/8 680/37/8 343/55/8
f 608/64/2 798/65/2 799/74/2
f 799/74/2 37/73/2 608/64/2
f 37/73/2 799/74/2 239/66/2
f 239/66/2 38/63/2 37/73/2
f 11/63/1 242/66/1 800/74/1
f 800/74/1 12/73/1 11/63/1
f 611/64/1 12/73/1 800/74/1
f 800/74/1 801/65/1 611/64/1
f 373/55/8 369/58/8 734/3/8
f 738/4/8 734/3/8 369/58/8
f 369/58/8 372/57/8 738/4/8
f 738/4/8 372/57/8 375/56/8
f 375/56/8 739/1/8 738/4/8
f 739/1/8 375/56/8 373/55/8
f 373/55/8 735/37/8 739/1/8
f 734/3/8 735/37/8 373/55/8
f 612/64/2 802/65/2 803/74/2
f 803/74/2 33/73/2 612/64/2
f 33/73/2 803/74/2 241/66/2
f 241/66/2 34/63/2 33/73/2
f 3/63/1 244/66/1 804/74/1
f 804/74/1 4/73/1 3/63/1
f 615/64/1 4/73/1 804/74/1
f 804/74/1 805/65/1 615/64/1
f 357/55/8 353/58/8 725/3/8
f 765/4/8 725/3/8 353/58/8
f 353/58/8 356/57/8 765/4/8
f 765/4/8 356/57/8 359/56/8
f 359/56/8 764/1/8 765/4/8
f 764/1/8 359/56/8 357/55/8
f 357/55/8 726/37/8 764/1/8
f 725/3/8 726/37/8 357/55/8
f 616/64/2 806/65/2 807/74/2
f 807/74/2 25/73/2 616/64/2
f 25/73/2 807/74/2 243/66/2
f 243/66/2 26/63/2 25/73/2
f 703/3/11 639/38/11 79/40/11
f 79/40/11 55/39/11 703/3/11
f 55/39/11 79/40/11 78/42/11
f 78/42/11 56/41/11 55/39/11
f 327/55/8 322/58/8 745/3/8
f 718/4/8 745/3/8 322/58/8
f 322/58/8 321/57/8 718/4/8
f 718/4/8 321/57/8 325/56/8
f 325/56/8 719/1/8 718/4/8
f 719/1/8 325/56/8 327/55/8
f 327/55/8 746/37/8 719/1/8
f 745/3/8 746/37/8 327/55/8
f 714/3/11 642/38/11 91/40/11
f 91/40/11 67/39/11 714/3/11
f 67/39/11 91/40/11 90/42/11
f 90/42/11 68/41/11 67/39/11
f 7/63/1 808/66/1 809/74/1
f 809/74/1 8/73/1 7/63/1
f 595/64/1 8/73/1 809/74/1
f 809/74/1 810/65/1 595/64/1
f 723/3/11 645/38/11 95/40/11
f 95/40/11 71/39/11 723/3/11
f 71/39/11 95/40/11 94/42/11
f 94/42/11 72/41/11 71/39/11
f 683/4/11 811/3/11 812/44/11
f 812/44/11 684/43/11 683/4/11
f 684/43/11 812/44/11 664/37/11
f 664/37/11 663/45/11 684/43/11
f 813/3/1 814/4/1 815/87/1
f 815/87/1 816/88/1 813/3/1
f 816/88/1 815/87/1 660/1/1
f 660/1/1 659/37/1 816/88/1
f 814/4/11 817/3/11 818/44/11
f 818/44/11 815/43/11 814/4/11
f 815/43/11 818/44/11 661/37/11
f 661/37/11 660/45/11 815/43/11
f 819/3/10 813/4/10 816/43/10
f 816/43/10 820/44/10 819/3/10
f 820/44/10 816/43/10 659/45/10
f 659/45/10 662/37/10 820/44/10
f 732/3/11 648/38/11 87/40/11
f 87/40/11 63/39/11 732/3/11
f 63/39/11 87/40/11 86/42/11
f 86/42/11 64/41/11 63/39/11
f 18/41/10 43/42/10 42/40/10
f 42/40/10 19/39/10 18/41/10
f 19/39/10 42/40/10 787/38/10
f 787/38/10 770/3/10 19/39/10
f 769/38/10 808/3/10 7/39/10
f 7/39/10 30/40/10 769/38/10
f 30/40/10 7/39/10 6/41/10
f 6/41/10 31/42/10 30/40/10
f 762/3/11 654/38/11 75/40/11
f 75/40/11 51/39/11 762/3/11
f 51/39/11 75/40/11 74/42/11
f 74/42/11 52/41/11 51/39/11
f 743/3/11 651/38/11 83/40/11
f 83/40/11 59/39/11 743/3/11
f 59/39/11 83/40/11 82/42/11
f 82/42/11 60/41/11 59/39/11
usemtl imp_buildingTextureswall09
f 734/37/10 738/1/10 737/4/10
f 737/4/10 733/3/10 734/37/10
f 251/121/1 254/122/1 151/123/1
f 821/124/1 822/125/1 823/126/1
f 824/127/1 821/124/1 823/126/1
f 824/127/1 823/126/1 151/123/1
f 825/128/1 824/127/1 151/123/1
f 825/128/1 151/123/1 109/129/1
f 826/130/1 825/128/1 109/129/1
f 258/131/1 826/130/1 109/129/1
f 826/130/1 258/131/1 821/124/1
f 821/124/1 258/131/1 251/121/1
f 251/121/1 822/125/1 821/124/1
f 251/121/1 827/132/1 822/125/1
f 827/132/1 251/121/1 151/123/1
f 828/133/1 827/132/1 151/123/1
f 823/126/1 828/133/1 151/123/1
f 255/134/1 258/131/1 109/129/1
f 704/37/10 707/1/10 829/135/10
f 829/135/10 707/1/10 830/136/10
f 715/3/10 830/136/10 707/1/10
f 707/1/10 728/4/10 715/3/10
f 490/37/11 736/3/11 740/4/11
f 740/4/11 492/1/11 490/37/11
f 792/1/10 793/4/10 682/3/10
f 682/3/10 681/37/10 792/1/10
f 679/3/11 790/4/11 496/1/11
f 496/1/11 494/37/11 679/3/11
f 415/137/9 831/138/9 710/139/9
f 710/139/9 412/140/9 415/137/9
f 412/140/9 710/139/9 711/141/9
f 711/141/9 409/142/9 412/140/9
f 413/143/9 409/142/9 711/141/9
f 711/141/9 832/144/9 413/143/9
f 415/137/9 413/143/9 832/144/9
f 832/144/9 831/138/9 415/137/9
f 831/138/9 832/144/9 833/145/9
f 833/145/9 834/146/9 831/138/9
f 335/147/9 834/146/9 833/145/9
f 834/146/9 335/147/9 330/148/9
f 330/148/9 746/149/9 834/146/9
f 719/150/9 746/149/9 330/148/9
f 330/148/9 329/151/9 719/150/9
f 833/145/9 719/150/9 329/151/9
f 329/151/9 333/152/9 833/145/9
f 833/145/9 333/152/9 335/147/9
f 766/4/10 724/3/10 725/37/10
f 725/37/10 765/1/10 766/4/10
f 486/37/11 727/3/11 763/4/11
f 763/4/11 488/1/11 486/37/11
f 718/1/10 717/4/10 744/3/10
f 744/3/10 745/37/10 718/1/10
f 747/3/11 720/4/11 709/1/11
f 709/1/11 708/37/11 747/3/11
f 729/4/11 484/1/11 482/37/11
f 482/37/11 835/135/11 729/4/11
f 835/135/11 836/136/11 729/4/11
f 836/136/11 716/3/11 729/4/11
f 837/133/2 838/126/2 98/123/2
f 839/132/2 837/133/2 98/123/2
f 296/122/2 295/121/2 98/123/2
f 295/121/2 839/132/2 98/123/2
f 839/132/2 295/121/2 840/125/2
f 295/121/2 841/124/2 840/125/2
f 840/125/2 841/124/2 838/126/2
f 841/124/2 842/127/2 838/126/2
f 838/126/2 842/127/2 98/123/2
f 842/127/2 843/128/2 98/123/2
f 843/128/2 99/129/2 98/123/2
f 843/128/2 299/134/2 99/129/2
f 300/131/2 299/134/2 843/128/2
f 844/130/2 300/131/2 843/128/2
f 295/121/2 300/131/2 844/130/2
f 295/121/2 844/130/2 841/124/2
f 461/137/9 463/143/9 845/144/9
f 491/141/9 845/144/9 463/143/9
f 463/143/9 458/142/9 491/141/9
f 491/141/9 458/142/9 457/140/9
f 457/140/9 489/139/9 491/141/9
f 489/139/9 457/140/9 461/137/9
f 461/137/9 846/138/9 489/139/9
f 845/144/9 846/138/9 461/137/9
f 846/138/9 845/144/9 847/145/9
f 847/145/9 848/146/9 846/138/9
f 381/147/9 848/146/9 847/145/9
f 848/146/9 381/147/9 377/148/9
f 377/148/9 735/149/9 848/146/9
f 739/150/9 735/149/9 377/148/9
f 377/148/9 380/151/9 739/150/9
f 847/145/9 739/150/9 380/151/9
f 380/151/9 383/152/9 847/145/9
f 847/145/9 383/152/9 381/147/9
f 849/146/9 365/147/9 361/148/9
f 361/148/9 726/149/9 849/146/9
f 764/150/9 726/149/9 361/148/9
f 361/148/9 364/151/9 764/150/9
f 850/145/9 764/150/9 364/151/9
f 364/151/9 367/152/9 850/145/9
f 850/145/9 367/152/9 365/147/9
f 365/147/9 849/146/9 850/145/9
f 850/145/9 849/146/9 851/138/9
f 851/138/9 852/144/9 850/145/9
f 447/143/9 852/144/9 851/138/9
f 487/141/9 852/144/9 447/143/9
f 447/143/9 442/142/9 487/141/9
f 487/141/9 442/142/9 441/140/9
f 441/140/9 485/139/9 487/141/9
f 485/139/9 441/140/9 445/137/9
f 445/137/9 851/138/9 485/139/9
f 851/138/9 445/137/9 447/143/9
f 853/153/9 477/154/9 479/155/9
f 477/154/9 853/153/9 481/156/9
f 481/156/9 473/157/9 477/154/9
f 473/157/9 481/156/9 483/158/9
f 483/158/9 474/159/9 473/157/9
f 479/155/9 474/159/9 483/158/9
f 483/158/9 854/160/9 479/155/9
f 479/155/9 854/160/9 853/153/9
f 853/153/9 854/160/9 855/161/9
f 855/161/9 856/162/9 853/153/9
f 397/163/9 856/162/9 855/161/9
f 856/162/9 397/163/9 393/164/9
f 393/164/9 705/165/9 856/162/9
f 706/166/9 705/165/9 393/164/9
f 393/164/9 396/167/9 706/166/9
f 855/161/9 706/166/9 396/167/9
f 396/167/9 399/168/9 855/161/9
f 855/161/9 399/168/9 397/163/9
f 857/145/9 858/146/9 859/138/9
f 859/138/9 860/144/9 857/145/9
f 860/144/9 859/138/9 431/137/9
f 431/137/9 429/143/9 860/144/9
f 495/141/9 860/144/9 429/143/9
f 429/143/9 425/142/9 495/141/9
f 495/141/9 425/142/9 428/140/9
f 428/140/9 493/139/9 495/141/9
f 493/139/9 428/140/9 431/137/9
f 431/137/9 859/138/9 493/139/9
f 346/148/9 680/149/9 858/146/9
f 791/150/9 680/149/9 346/148/9
f 346/148/9 345/151/9 791/150/9
f 857/145/9 791/150/9 345/151/9
f 345/151/9 349/152/9 857/145/9
f 857/145/9 349/152/9 351/147/9
f 351/147/9 858/146/9 857/145/9
f 858/146/9 351/147/9 346/148/9
usemtl imp_bits1
f 861/169/29 862/170/14 863/171/30
f 861/169/29 864/172/31 862/170/14
f 865/170/32 866/171/33 862/172/14
f 862/172/14 866/171/33 863/169/30
f 867/169/34 864/170/31 861/171/29
f 867/169/34 868/172/9 864/170/31
f 865/172/32 867/171/34 866/169/33
f 868/170/9 867/171/34 865/172/32
f 869/169/29 870/170/14 871/171/30
f 869/169/29 872/172/31 870/170/14
f 870/172/14 873/171/33 871/169/30
f 874/170/32 873/171/33 870/172/14
f 875/169/34 872/170/31 869/171/29
f 875/169/34 876/172/9 872/170/31
f 874/172/32 875/171/34 873/169/33
f 876/170/9 875/171/34 874/172/32
f 877/169/29 878/170/14 879/171/30
f 877/169/29 880/172/31 878/170/14
f 878/172/14 881/171/33 879/169/30
f 882/170/32 881/171/33 878/172/14
f 883/169/34 880/170/31 877/171/29
f 883/169/34 884/172/9 880/170/31
f 882/172/32 883/171/34 881/169/33
f 884/170/9 883/171/34 882/172/32
f 885/169/29 886/170/14 887/171/30
f 885/169/29 888/172/31 886/170/14
f 886/172/14 889/171/33 887/169/30
f 890/170/32 889/171/33 886/172/14
f 891/169/34 888/170/31 885/171/29
f 891/169/34 892/172/9 888/170/31
f 890/172/32 891/171/34 889/169/33
f 892/170/9 891/171/34 890/172/32
f 893/169/35 894/170/14 895/171/36
f 893/169/35 896/172/32 894/170/14
f 894/172/14 897/171/37 895/169/36
f 898/170/31 897/171/37 894/172/14
f 899/169/38 896/170/32 893/171/35
f 899/169/38 900/172/9 896/170/32
f 898/172/31 899/171/38 897/169/37
f 900/170/9 899/171/38 898/172/31
f 901/169/35 902/170/14 903/171/36
f 901/169/35 904/172/32 902/170/14
f 902/172/14 905/171/37 903/169/36
f 906/170/31 905/171/37 902/172/14
f 907/169/38 904/170/32 901/171/35
f 907/169/38 908/172/9 904/170/32
f 906/172/31 907/171/38 905/169/37
f 908/170/9 907/171/38 906/172/31
f 909/169/35 910/170/14 911/171/36
f 909/169/35 912/172/32 910/170/14
f 910/172/14 913/171/37 911/169/36
f 914/170/31 913/171/37 910/172/14
f 915/169/38 912/170/32 909/171/35
f 915/169/38 916/172/9 912/170/32
f 914/172/31 915/171/38 913/169/37
f 916/170/9 915/171/38 914/172/31
f 917/169/35 918/170/14 919/171/36
f 917/169/35 920/172/32 918/170/14
f 918/172/14 921/171/37 919/169/36
f 922/170/31 921/171/37 918/172/14
f 923/169/38 920/170/32 917/171/35
f 923/169/38 924/172/9 920/170/32
f 922/172/31 923/171/38 921/169/37
f 924/170/9 923/171/38 922/172/31
usemtl imp_light1
f 866/173/1 861/174/1 863/175/1
f 866/173/1 867/176/1 861/174/1
f 873/173/1 869/174/1 871/175/1
f 873/173/1 875/176/1 869/174/1
f 881/173/1 877/174/1 879/175/1
f 881/173/1 883/176/1 877/174/1
f 889/173/1 885/174/1 887/175/1
f 889/173/1 891/176/1 885/174/1
f 897/173/2 893/174/2 895/175/2
f 897/173/2 899/176/2 893/174/2
f 905/173/2 901/174/2 903/175/2
f 905/173/2 907/176/2 901/174/2
f 913/173/2 909/174/2 911/175/2
f 913/173/2 915/176/2 909/174/2
f 921/173/2 917/174/2 919/175/2
f 921/173/2 923/176/2 917/174/2
