# Blender 5.1.1
# www.blender.org
mtllib Untitled.mtl
o nf_barracks_reference
v 188.411163 63.944809 -318.000031
v 188.411163 127.944817 -318.000031
v 124.411171 63.944813 -318.000000
v 124.411163 127.944809 -318.000000
v 261.434235 110.555801 218.403336
v 261.434265 15.944809 218.403351
v 350.206543 110.555801 218.403336
v 350.206543 15.944809 218.403320
v -226.868744 63.944809 338.000031
v -162.868744 63.944813 338.000000
v -226.868759 127.944817 338.000031
v -162.868744 127.944809 338.000000
v -226.868744 63.944809 318.000031
v -226.868759 127.944817 318.000031
v -162.868744 63.944813 318.000000
v -162.868744 127.944809 318.000000
v -226.868866 63.944809 -337.999969
v -226.868866 127.944817 -337.999969
v -162.868866 63.944813 -338.000000
v -162.868866 127.944809 -338.000000
v -226.868866 63.944809 -317.999969
v -162.868866 63.944813 -318.000000
v -226.868866 127.944817 -317.999969
v -162.868866 127.944809 -318.000000
v 188.411285 63.944809 337.999969
v 188.411285 127.944817 337.999969
v 124.411293 63.944813 338.000000
v 124.411285 127.944809 338.000000
v 188.411285 63.944809 317.999969
v 124.411293 63.944813 318.000000
v 188.411285 127.944817 317.999969
v 124.411285 127.944809 318.000000
v 188.411163 63.944809 -338.000031
v 124.411171 63.944813 -338.000000
v 188.411163 127.944817 -338.000031
v 124.411163 127.944809 -338.000000
v 337.711823 15.944811 -48.908703
v 337.711853 41.554832 -48.908699
v 337.711823 18.231403 -43.460350
v 337.711823 37.047932 -43.460350
v 335.349823 94.793777 -57.359734
v 323.411285 94.793777 -57.359734
v 337.711823 94.793777 -48.908699
v 321.416229 94.793777 -48.908695
v 335.349823 15.944809 -57.359734
v 196.650955 171.854965 179.215576
v 196.650925 171.854965 93.779716
v 196.650955 15.944809 179.215607
v 196.650925 15.944809 93.779716
v 69.339569 119.944817 352.000000
v 77.339867 127.944824 336.000000
v -107.796608 119.944824 352.000000
v -115.796700 127.944809 336.000000
v -115.796310 15.944809 336.000000
v -107.796600 15.944809 352.000000
v 69.339859 15.944809 352.000000
v 77.340073 15.944809 336.000000
v 69.339447 119.944817 -352.000000
v -107.796730 119.944824 -352.000000
v 77.339745 127.944824 -336.000000
v -115.796822 127.944809 -336.000000
v -115.796432 15.944809 -336.000000
v -107.796722 15.944809 -352.000000
v 77.339951 15.944809 -336.000000
v 69.339737 15.944809 -352.000000
v 12.474304 223.944870 -222.681366
v -19.588816 175.944809 -224.680161
v -19.588816 221.944809 -224.678772
v 12.432364 175.944809 -222.681381
v -51.622746 127.944809 -222.681366
v -51.638954 175.944809 -222.681381
v -19.588816 127.944809 -224.681335
v 12.442398 127.944809 -222.681366
v -19.588816 175.944809 -222.681381
v -19.588814 221.944809 -222.681366
v -51.588749 223.944809 -222.681366
v -19.588814 127.944809 -222.681366
v 93.131233 215.139893 223.999985
v 77.131241 215.139893 224.000000
v 93.131210 215.139893 -0.000017
v 77.131203 215.139908 -0.000014
v 77.131165 215.139893 -224.000000
v 93.131157 215.139893 -224.000015
v 93.131203 215.139893 -0.000017
v -115.588745 231.139893 224.000015
v -115.588722 215.139893 224.000015
v -115.588791 231.139893 0.000019
v -115.588799 215.139923 0.000019
v -115.588821 215.139893 -223.999985
v -115.588821 231.139893 -223.999985
v 61.339458 111.944817 320.000000
v 61.339470 111.944832 352.000061
v -99.796921 111.944817 320.000000
v -99.796921 111.944817 352.000000
v 61.339458 15.944809 320.000000
v 61.339462 15.944809 352.000000
v 62.145142 251.546982 336.000000
v 62.145142 15.944809 336.000000
v 136.151932 213.259079 336.000000
v 193.580811 162.796753 335.999969
v 235.038467 92.500862 335.999969
v 236.411285 15.944809 335.999969
v -19.228733 258.901733 336.000000
v -100.602600 251.546982 336.000000
v -100.602600 113.944809 336.000000
v 62.145142 113.944809 336.000000
v -100.602600 15.944809 336.000000
v -174.609390 213.259079 336.000031
v -232.038269 162.796753 336.000031
v -273.495941 92.500862 336.000031
v -274.868744 15.944809 336.000031
v -99.797043 15.944809 -352.000000
v -99.797043 111.944817 -352.000000
v -99.797043 15.944809 -320.000000
v -99.797043 111.944817 -320.000000
v 61.339348 111.944817 -320.000000
v 61.339348 111.944832 -352.000061
v 61.339348 15.944809 -320.000000
v 61.339340 15.944809 -352.000000
v 93.131165 231.139923 -240.000031
v 77.131165 215.139893 -240.000000
v -131.588776 231.139893 -239.999985
v -115.588829 215.139893 -239.999985
v -131.588806 215.139893 -223.999985
v -131.588806 15.944809 -223.999985
v -131.588806 15.944809 -239.999985
v -115.588829 15.944809 -239.999985
v 77.131210 231.139893 -0.000014
v 93.131195 231.139893 -0.000017
v -115.588791 215.139908 0.000019
v -131.588760 215.139893 0.000023
v -131.588776 231.139893 0.000023
v 77.131172 175.944809 -228.000000
v 77.131172 175.944809 -236.000000
v -115.588829 175.944809 -227.999985
v -115.588829 175.944809 -235.999985
v 77.131165 231.139893 -224.000000
v 77.131172 15.944809 -224.000000
v 77.131172 15.944809 -240.000000
v 93.131157 15.944809 -224.000015
v 93.131157 15.944809 -240.000015
v -115.588829 15.944809 -223.999985
v 77.131248 215.139893 240.000000
v 93.131241 231.139893 239.999985
v -115.588745 215.139923 240.000031
v -131.588745 231.139923 240.000031
v -131.588745 15.944809 240.000015
v -131.588745 15.944809 224.000015
v -131.588745 215.139893 224.000031
v -115.588753 15.944809 240.000031
v 77.131248 175.944809 228.000000
v -115.588753 175.944809 228.000031
v 77.131248 175.944809 236.000000
v -115.588753 175.944809 236.000031
v 77.131241 231.139893 224.000000
v 77.131248 15.944809 224.000000
v 77.131248 15.944809 240.000000
v 93.131233 15.944809 223.999985
v 93.131233 15.944809 239.999985
v -115.588753 15.944809 224.000031
v 77.131203 231.139893 -0.000014
v -99.796921 15.944809 352.000000
v -99.796921 15.944809 320.000000
v -100.602722 251.546982 -336.000000
v -100.602722 15.944809 -336.000000
v -174.609512 213.259079 -335.999969
v -232.038391 162.796753 -335.999969
v -273.496033 92.500862 -335.999969
v -274.868866 15.944809 -335.999969
v -19.228849 258.901733 -336.000000
v -100.602722 113.944809 -336.000000
v 62.145020 113.944809 -336.000000
v 62.145020 251.546982 -336.000000
v 236.411163 15.944809 -336.000031
v 62.145020 15.944809 -336.000000
v 235.038345 92.500862 -336.000031
v 193.580688 162.796753 -336.000031
v 136.151810 213.259079 -336.000000
v 261.434265 110.555809 179.215607
v 261.434235 15.944809 179.215576
v 77.131241 15.944809 228.000000
v -115.588745 15.944809 228.000015
v 261.434204 110.555801 93.779701
v 261.434204 15.944809 93.779701
v 77.131165 15.944809 -228.000000
v -115.588821 15.944809 -227.999985
v 77.131241 15.944809 236.000000
v -115.588745 15.944809 236.000015
v 77.131165 15.944809 -236.000000
v -115.588821 15.944809 -235.999985
v -356.984528 15.944809 392.000092
v 356.984650 15.944809 391.999939
v -356.984589 15.944809 320.396271
v 356.984619 15.944809 320.396088
v 236.411301 15.944809 320.396179
v 236.411179 15.944809 -320.396210
v 356.984589 15.944809 -320.396301
v -356.984619 15.944809 -320.396179
v -356.984650 15.944809 -391.999939
v 356.984528 15.944809 -392.000122
v -275.588806 15.944809 320.396210
v -275.588837 15.944809 -320.396179
v 236.411163 -272.055176 -392.000031
v 236.411148 -272.055176 -496.000031
v 236.411163 -64.055283 -392.000031
v 236.411163 -64.055344 -496.000061
v -99.588844 15.944950 -392.000000
v 60.411160 15.944732 -392.000000
v -99.588867 15.945086 -496.000000
v 60.411137 15.944773 -496.000000
v -275.588867 -64.054703 -391.999969
v -275.588867 -64.054893 -495.999969
v -275.588867 -272.055176 -391.999969
v -275.588898 -272.055176 -495.999969
v -99.588684 15.944949 496.000000
v 60.411316 15.944732 496.000000
v -99.588722 15.945087 392.000000
v 60.411293 15.944774 392.000000
v 236.411316 -272.055176 495.999969
v 236.411285 -272.055176 391.999969
v 236.411301 -64.055290 495.999969
v 236.411285 -64.055336 391.999969
v -275.588684 -64.054703 496.000031
v -275.588684 -64.054893 392.000061
v -275.588684 -272.055176 496.000031
v -275.588684 -272.055176 392.000031
v 356.984650 -272.055176 391.999908
v -356.984467 -272.055176 392.000061
v -356.984650 -272.055176 -391.999939
v 356.984467 -272.055176 -392.000092
v 261.434204 110.555801 35.199966
v 350.206512 110.555801 35.199951
v 305.055908 188.705963 -62.881508
v 305.055908 186.537292 -64.133583
v 305.055908 186.537292 -61.629429
v 78.418297 237.824448 -211.199997
v 78.418327 237.824463 -70.400032
v 46.812534 247.922470 -211.199997
v 46.812557 247.922440 -70.400024
v 14.076787 254.051071 -211.199997
v 14.076812 254.051071 -70.400024
v -19.228828 256.105438 -211.199966
v -19.228804 256.105469 -70.400024
v -52.534428 254.051071 -70.400017
v -52.534443 254.051071 -211.199997
v -85.270157 247.922470 -70.400017
v -85.270180 247.922470 -211.199997
v -116.875916 237.824448 -70.399986
v -116.875938 237.824417 -211.199982
v -146.810913 223.929855 -70.399986
v -146.810959 223.929855 -211.199982
v -174.562912 206.477036 -70.399986
v -174.562958 206.477036 -211.199966
v -199.657135 185.764191 -70.399986
v -199.657166 185.764191 -211.199966
v -221.664169 162.145386 -70.399971
v -221.664230 162.145386 -211.199966
v -240.207504 136.025146 -70.399971
v -240.207565 136.025146 -211.199966
v -254.969833 107.850525 -70.399971
v -254.969864 107.850525 -211.199966
v -265.698517 78.103088 -70.399963
v -265.698608 78.103088 -211.199936
v -272.210083 47.292206 -70.399963
v -272.210114 47.292206 -211.199936
v -274.393036 15.944809 -70.399971
v -274.393097 15.944809 -211.199936
v 356.478760 186.537292 -64.133591
v 356.478760 188.705963 -62.881516
v 356.478760 186.537292 -61.629436
v 235.935410 15.944809 -211.200043
v 235.935471 15.944809 -70.400047
v 233.752457 47.292206 -211.200012
v 233.752472 47.292213 -70.400063
v 227.240921 78.103088 -211.200012
v 227.240952 78.103081 -70.400047
v 216.512222 107.850525 -211.200012
v 216.512238 107.850525 -70.400047
v 201.749893 136.025146 -211.200012
v 201.749924 136.025146 -70.400047
v 183.206558 162.145386 -211.200012
v 183.206589 162.145386 -70.400047
v 161.199524 185.764191 -211.199997
v 161.199539 185.764191 -70.400047
v 136.105316 206.477036 -211.199997
v 136.105347 206.477036 -70.400047
v 108.353287 223.929855 -211.199997
v 108.353325 223.929855 -70.400040
v 173.182266 197.042374 -211.199997
v 173.182312 197.042389 -70.400047
v 196.650894 171.854965 -211.200012
v 196.650909 171.854965 -70.400047
v 216.425735 144.000000 -211.200012
v 216.425766 143.999985 -70.400040
v 232.168488 113.954247 -70.400063
v 232.168427 113.954247 -211.200012
v 243.609711 82.231201 -211.200012
v 243.609726 82.231201 -70.400063
v 250.553680 49.374069 -211.200012
v 250.553696 49.374069 -70.400063
v 252.881622 15.944809 -211.200043
v 252.881653 15.944809 -70.400055
v -123.360977 252.560089 -211.199982
v -123.360947 252.560089 -70.399986
v -89.656151 263.328735 -70.400009
v -89.656181 263.328735 -211.199982
v -54.746349 269.864380 -70.400017
v -54.746357 269.864380 -211.199997
v -19.228804 272.055176 -70.400024
v -19.228828 272.055176 -211.199997
v 16.288712 269.864380 -211.199997
v 16.288733 269.864380 -70.400024
v 51.198532 263.328735 -211.199997
v 51.198551 263.328735 -70.400024
v 84.903313 252.560089 -211.199997
v 84.903351 252.560089 -70.400032
v 116.826393 237.742722 -211.199997
v 116.826408 237.742722 -70.400040
v 146.421478 219.130844 -211.199997
v 146.421524 219.130844 -70.400040
v -291.339294 15.944809 -211.199966
v -291.339233 15.944809 -70.399963
v -289.011261 49.374069 -70.399956
v -289.011292 49.374069 -211.199951
v -282.067291 82.231201 -70.399956
v -282.067352 82.231201 -211.199936
v -270.626038 113.954247 -70.399963
v -270.626099 113.954247 -211.199936
v -254.883331 144.000000 -70.399971
v -254.883362 144.000000 -211.199966
v -235.108505 171.854965 -70.399971
v -235.108566 171.854965 -211.199966
v -211.639893 197.042389 -70.399986
v -211.639954 197.042389 -211.199966
v -184.879135 219.130844 -70.399986
v -184.879166 219.130844 -211.199966
v -155.283997 237.742722 -70.399986
v -155.284058 237.742722 -211.199982
v -89.656143 263.328735 70.400032
v -123.360916 252.560089 70.400040
v -123.360893 252.560089 211.199997
v -89.656120 263.328735 211.199997
v -54.746326 269.864380 70.400024
v -54.746296 269.864380 211.199997
v -19.228779 272.055176 70.400017
v -19.228752 272.055176 211.199997
v 16.288784 269.864380 211.199997
v 16.288761 269.864380 70.400024
v 51.198601 263.328735 211.199997
v 51.198578 263.328735 70.400017
v 84.903381 252.560089 211.199997
v 84.903358 252.560089 70.399994
v 116.826447 237.742722 211.199982
v 116.826431 237.742722 70.399986
v 146.421585 219.130844 211.199982
v 146.421524 219.130844 70.399986
v 173.182373 197.042389 211.199982
v 173.182312 197.042389 70.399986
v 196.650970 171.854965 211.199966
v 196.650909 171.854965 70.399986
v 216.425797 144.000000 211.199966
v 216.425766 144.000000 70.399986
v 232.168518 113.954247 211.199966
v 232.168488 113.954247 70.399971
v 243.609756 82.231201 211.199966
v 243.609726 82.231201 70.399963
v 250.553757 49.374069 211.199966
v 250.553696 49.374069 70.399963
v 252.881699 15.944809 211.199982
v 252.881653 15.944809 70.399963
v 305.055908 179.705963 -29.881508
v 305.055908 177.537292 -31.133583
v 305.055908 177.537292 -28.629429
v -289.011261 49.374069 70.400070
v -291.339233 15.944809 70.400063
v -291.339203 15.944809 211.200058
v -289.011230 49.374069 211.200058
v -282.067291 82.231201 70.400070
v -282.067261 82.231201 211.200058
v -270.626007 113.954231 70.400047
v -270.626007 113.954247 211.200043
v -254.883316 144.000000 211.200012
v -254.883331 143.999985 70.400047
v -235.108505 171.854965 70.400063
v -235.108475 171.854965 211.200012
v -211.639923 197.042389 70.400047
v -211.639862 197.042374 211.200012
v -184.879059 219.130844 211.200012
v -184.879105 219.130844 70.400040
v -155.283997 237.742722 70.400047
v -155.283981 237.742722 211.199997
v -221.664169 162.145386 70.400063
v -199.657135 185.764191 70.400047
v -199.657104 185.764191 211.200012
v -221.664154 162.145386 211.200012
v -240.207504 136.025146 70.400063
v -240.207489 136.025146 211.200012
v -254.969833 107.850525 70.400063
v -254.969803 107.850525 211.200012
v -265.698517 78.103088 70.400070
v -265.698486 78.103088 211.200058
v -272.210083 47.292206 70.400070
v -272.209991 47.292206 211.200058
v -274.393036 15.944809 70.400055
v -274.392975 15.944809 211.200058
v 78.418350 237.824417 211.199997
v 46.812607 247.922470 211.199997
v 78.418335 237.824417 70.399994
v 46.812584 247.922485 70.400017
v 14.076859 254.051071 211.199997
v 14.076838 254.051071 70.400024
v -19.228752 256.105438 211.199966
v -19.228777 256.105408 70.400009
v -52.534397 254.051071 70.400024
v -52.534378 254.051071 211.199997
v -85.270142 247.922470 70.400024
v -85.270126 247.922470 211.199997
v -116.875908 237.824448 70.400040
v -116.875870 237.824448 211.199997
v -146.810913 223.929855 70.400047
v -146.810883 223.929855 211.199997
v -174.562912 206.477036 70.400047
v -174.562866 206.477036 211.200012
v 356.478760 177.537292 -28.629438
v 356.478760 179.705963 -29.881517
v 356.478760 177.537292 -31.133593
v 235.935501 15.944809 211.199951
v 233.752502 47.292206 211.199966
v 235.935455 15.944809 70.399971
v 233.752472 47.292206 70.399971
v 227.240982 78.103088 211.199966
v 227.240982 78.103081 70.399971
v 216.512268 107.850525 211.199966
v 216.512238 107.850525 70.399986
v 201.749985 136.025146 211.199966
v 201.749924 136.025146 70.399986
v 183.206650 162.145386 211.199966
v 183.206589 162.145386 70.399986
v 161.199600 185.764191 211.199982
v 161.199539 185.764191 70.399986
v 136.105377 206.477036 211.199982
v 136.105347 206.477036 70.399986
v 108.353355 223.929855 211.199982
v 108.353333 223.929855 70.399986
v 305.055908 182.037292 -47.633583
v 356.478760 182.037292 -47.633591
v 305.055908 182.037292 -45.129429
v 356.478760 182.037292 -45.129436
v 305.055908 193.205963 -79.381508
v 356.478760 193.205963 -79.381516
v 305.055908 191.037292 -80.633583
v 356.478760 191.037292 -80.633591
v 305.055908 191.037292 -78.129433
v 356.478760 191.037292 -78.129440
v 305.055908 197.705963 -95.881508
v 356.478760 197.705963 -95.881516
v 305.055908 195.537292 -97.133583
v 356.478760 195.537292 -97.133591
v 305.055908 195.537292 -94.629433
v 356.478760 195.537292 -94.629440
v 305.055908 202.205963 -112.381508
v 356.478760 202.205963 -112.381516
v 305.055908 200.037292 -113.633583
v 356.478760 200.037292 -113.633591
v 305.055908 200.037292 -111.129433
v 356.478760 200.037292 -111.129440
v 305.055908 206.705963 -128.881516
v 356.478760 206.705963 -128.881516
v 305.055908 204.537292 -130.133591
v 356.478760 204.537292 -130.133591
v 305.055908 204.537292 -127.629433
v 356.478760 204.537292 -127.629440
v 305.055908 211.205963 -145.381516
v 356.478760 211.205963 -145.381516
v 305.055908 209.037292 -146.633591
v 356.478760 209.037292 -146.633591
v 305.055908 209.037292 -144.129440
v 356.478760 209.037292 -144.129440
v 331.517395 175.092087 -13.157506
v 331.517365 173.418961 -13.605519
v 331.520752 210.833038 -146.557037
v 331.520752 209.159927 -147.005035
v 330.017365 174.255478 -13.381410
v 330.020752 209.996521 -146.781143
v 305.055908 175.205963 -13.381509
v 356.478760 175.205963 -13.381517
v 305.055908 173.037292 -14.633585
v 356.478760 173.037292 -14.633594
v 305.055908 173.037292 -12.129430
v 356.478760 173.037292 -12.129438
v 305.055908 184.205963 -46.381508
v 356.478760 184.205963 -46.381516
v 330.781677 92.811699 -52.079800
v 332.021240 92.811699 -52.482555
v 330.781677 184.910126 -52.079800
v 332.021240 184.910126 -52.482555
v 332.021240 92.811699 -53.785885
v 332.021240 184.910126 -53.785885
v 330.781677 92.811699 -54.188633
v 330.781677 184.910126 -54.188633
v 330.015625 92.811699 -53.134216
v 330.015625 184.910126 -53.134216
v 261.434204 15.944809 35.199970
v 321.416229 37.047932 -43.460346
v 321.416229 41.554829 -48.908695
v 321.416229 18.231403 -43.460346
v 321.416229 15.944809 -48.908695
v 323.411316 15.944809 -57.359737
v 350.206512 15.944809 35.199951
v 269.664612 15.944809 35.199970
v 269.664612 101.633781 35.199970
v 341.976105 101.633781 35.199951
v 341.976105 15.944809 35.199951
v 341.976105 101.633774 37.261284
v 341.976166 15.944809 37.261284
v 269.664612 101.633781 37.261299
v 337.711823 32.343815 37.261242
v 337.711823 32.343796 -43.460350
v 329.564026 37.047951 37.261242
v 329.564026 37.047928 -43.460354
v 321.416229 32.343819 37.261284
v 321.416229 32.343803 -43.460323
v 337.711853 22.935537 37.261276
v 337.711853 22.935522 -43.460323
v 329.564026 18.231419 37.261311
v 329.564026 18.231403 -43.460289
v 321.416229 22.935553 37.261318
v 321.416229 22.935537 -43.460293
v 269.664612 15.944809 37.261303
v -99.797043 251.546982 -320.000000
v -19.228846 258.901794 -320.000000
v 61.339344 251.546982 -320.000000
v -274.868866 15.944809 -319.999969
v -273.496033 92.500885 -319.999969
v -232.038391 162.796738 -319.999969
v -174.609512 213.259079 -319.999969
v 236.411163 15.944809 -320.000031
v 235.038345 92.500885 -320.000031
v 193.580688 162.796738 -320.000031
v 136.151810 213.259079 -320.000000
v 236.411285 15.944809 319.999969
v 235.038467 92.500885 319.999969
v 193.580811 162.796738 319.999969
v 136.151932 213.259079 320.000000
v 61.339458 251.546982 320.000000
v -19.228737 258.901794 320.000000
v -99.796921 251.546982 320.000000
v -274.868744 15.944809 320.000031
v -273.495941 92.500885 320.000031
v -232.038269 162.796738 320.000031
v -174.609390 213.259079 320.000031
v 337.711823 15.944810 -48.908703
v -81.856064 63.836014 -227.934921
v 37.404514 63.944809 -216.852020
v -86.646744 63.836010 -167.957626
v 32.860996 63.944813 -159.968948
v -123.360878 252.560089 352.000000
v -116.875832 237.824448 352.000000
v -85.270096 247.922470 352.000000
v -89.656082 263.328735 352.000000
v -52.534344 254.051071 352.000000
v -54.746269 269.864380 352.000000
v -19.228729 256.105469 352.000000
v -19.228729 272.055176 352.000000
v 16.288807 269.864380 352.000000
v 14.076888 254.051071 352.000000
v 51.198624 263.328735 352.000000
v 46.812634 247.922470 352.000000
v 84.903404 252.560089 352.000000
v 78.418388 237.824463 352.000061
v 116.826492 237.742722 352.000061
v 108.353386 223.929855 352.000000
v 146.421585 219.130844 352.000000
v 136.105392 206.477036 352.000061
v 173.182388 197.042389 352.000000
v 161.199615 185.764175 352.000000
v 196.650970 171.854965 351.999969
v 183.206665 162.145386 351.999969
v 216.425827 144.000000 351.999969
v 201.750000 136.025146 351.999969
v 232.168518 113.954247 352.000031
v 216.512314 107.850525 351.999969
v 243.609787 82.231201 351.999969
v 227.241013 78.103088 351.999969
v 250.553757 49.374069 351.999969
v 233.752548 47.292206 351.999969
v 252.881729 15.944809 351.999969
v 235.935532 15.944809 351.999969
v -291.339142 15.944809 352.000061
v -274.392975 15.944809 352.000061
v -272.209961 47.292206 352.000061
v -289.011200 49.374069 352.000061
v -265.698456 78.103088 352.000061
v -282.067230 82.231201 352.000061
v -254.969757 107.850525 352.000061
v -270.625977 113.954247 352.000061
v -240.207474 136.025146 352.000061
v -254.883301 144.000000 352.000061
v -221.664139 162.145386 352.000061
v -235.108429 171.854965 352.000031
v -199.657074 185.764175 352.000031
v -211.639847 197.042389 352.000061
v -174.562866 206.477036 352.000061
v -184.879044 219.130844 352.000061
v -146.810852 223.929855 352.000000
v -155.283951 237.742722 352.000000
v -123.360992 252.560089 -352.000000
v -89.656204 263.328735 -352.000000
v -54.746391 269.864380 -352.000000
v -19.228851 272.055176 -352.000000
v 16.288685 269.864380 -352.000000
v 51.198502 263.328735 -352.000000
v 84.903282 252.560089 -352.000000
v 116.826363 237.742722 -352.000000
v 146.421478 219.130844 -352.000000
v 173.182266 197.042389 -352.000000
v 196.650848 171.854965 -352.000031
v 216.425735 144.000000 -352.000061
v 232.168427 113.954247 -352.000061
v 243.609634 82.231201 -352.000061
v 250.553665 49.374069 -352.000061
v 252.881607 15.944809 -352.000061
v -291.339325 15.944809 -351.999969
v -289.011353 49.374069 -351.999969
v -282.067413 82.231201 -351.999969
v -270.626160 113.954247 -352.000031
v -254.883408 144.000000 -351.999969
v -235.108566 171.854965 -351.999969
v -211.639954 197.042389 -351.999969
v -184.879196 219.130844 -351.999969
v -155.284058 237.742722 -352.000061
v 161.199478 185.764175 -352.000000
v 183.206528 162.145386 -352.000061
v 201.749863 136.025146 -352.000061
v 216.512192 107.850525 -352.000061
v 227.240921 78.103088 -352.000061
v 233.752426 47.292206 -352.000061
v 235.935410 15.944809 -352.000061
v -116.875977 237.824463 -352.000061
v -85.270218 247.922470 -352.000000
v -52.534466 254.051071 -352.000000
v -19.228851 256.105469 -352.000000
v 14.076766 254.051071 -352.000000
v 46.812511 247.922470 -352.000000
v 78.418259 237.824448 -352.000000
v 108.353249 223.929855 -352.000000
v 136.105286 206.477036 -352.000061
v -274.393158 15.944809 -351.999969
v -272.210144 47.292206 -351.999969
v -265.698639 78.103088 -351.999969
v -254.969894 107.850525 -351.999969
v -240.207565 136.025146 -351.999969
v -221.664230 162.145386 -351.999969
v -199.657181 185.764175 -351.999969
v -174.562988 206.477036 -352.000031
v -146.810959 223.929855 -352.000000
v 312.295624 63.944813 -235.325439
v 301.085663 63.944813 -282.000488
v 265.621063 63.944809 -224.120483
v 254.422195 63.944809 -270.796967
v -277.587616 111.944809 322.143066
v -322.837402 111.944817 338.165680
v -293.611847 111.944809 276.897797
v -338.844604 111.944817 292.916748
v -32.107468 63.944809 -217.380859
v -80.041100 63.944813 -219.904419
v -34.630985 63.944820 -169.447906
v -82.564598 63.944809 -171.971466
v 38.893593 63.944809 -165.329193
v 34.923450 63.944809 -213.164734
v -8.941268 63.944820 -161.359131
v -12.911417 63.944809 -209.194641
v 169.055954 63.944813 -39.998020
v 210.411118 63.944813 -15.637420
v 144.686752 63.944813 1.356394
v 186.048309 63.944809 25.720625
v -256.496979 63.944813 7.467670
v -211.994263 63.944813 -10.513239
v -238.517242 63.944813 51.978863
v -194.012054 63.944809 34.000813
v -298.861084 15.944809 280.169037
v -346.858765 15.944809 280.169037
v -298.861084 15.944809 232.168747
v -346.858765 15.944809 232.168732
v -292.813049 15.944809 340.793518
v -339.487122 15.944809 351.998871
v -304.020233 15.944809 294.120819
v -350.685547 15.944809 305.323273
v 186.048080 111.944817 25.720089
v 210.410843 111.944817 -15.637203
v 144.689835 111.944817 1.359368
v 169.057404 111.944809 -39.997292
v -227.908127 63.944813 -53.575375
v -256.455811 63.944813 -15.000436
v -189.320297 63.944813 -25.025555
v -217.869598 63.944809 13.557931
v -346.858765 63.944809 280.169037
v -298.861084 63.944813 280.169037
v -346.858765 63.944813 232.168747
v -298.861084 63.944809 232.168732
v -167.285538 15.944809 -355.267517
v -214.322769 15.944809 -345.694794
v -176.858765 15.944809 -402.302216
v -223.886017 15.944809 -392.733093
v -194.012634 111.944817 33.998859
v -211.993698 111.944817 -10.508702
v -238.513504 111.944817 51.975140
v -256.491791 111.944809 7.469209
v -243.556625 63.944809 75.501038
v -197.653687 63.944813 61.468533
v -257.590240 63.944820 29.600739
v -211.689774 63.944809 15.566397
v 156.692230 63.944809 17.999971
v 204.691559 63.944813 17.999964
v 156.692245 63.944813 -30.000027
v 204.691559 63.944809 -30.000036
v -352.860718 111.944809 300.351929
v -310.675049 111.944817 323.254669
v -329.964966 111.944809 258.174805
v -287.780365 111.944809 281.086517
v -292.809387 63.944813 340.794067
v -304.018280 63.944813 294.121338
v -339.479065 63.944813 351.998047
v -350.679291 63.944809 305.322723
v -167.282959 63.944813 -355.265991
v -176.856445 63.944813 -402.304321
v -214.318970 63.944809 -345.695282
v -223.882629 63.944809 -392.735596
v -287.780457 63.944809 281.083466
v -310.676086 63.944809 323.253113
v -329.962769 63.944820 258.173157
v -352.858490 63.944809 300.351105
v 253.257736 111.944809 -268.276642
v 300.130371 111.944817 -257.936310
v 263.601196 111.944817 -315.149933
v 310.471527 111.944809 -304.798676
v 310.471802 63.944813 -304.802246
v 300.130066 63.944809 -257.939392
v 263.603241 63.944813 -315.153076
v 253.258774 63.944809 -268.279968
v 306.411194 15.944809 -304.000031
v 258.411194 15.944809 -304.000031
v 306.411133 15.944809 -352.000031
v 258.411133 15.944809 -352.000031
v 258.411194 63.944809 -304.000031
v 306.411194 63.944813 -304.000031
v 258.411133 63.944813 -352.000031
v 306.411133 63.944809 -352.000031
v -277.586975 159.944809 322.142914
v -293.611206 159.944824 276.895782
v -322.828156 159.944809 338.165619
v -338.839783 159.944809 292.913544
v 281.764465 63.944809 287.270111
v 329.139893 63.944809 279.619904
v 274.106598 63.944820 239.878922
v 321.484894 63.944809 232.226379
v -257.588348 15.944809 29.601366
v -243.555420 15.944809 75.500259
v 254.419449 15.944809 -270.794312
v 265.617279 15.944809 -224.120285
v -34.630981 15.944809 -169.447906
v -82.564598 15.944809 -171.971481
v -80.041100 15.944809 -219.904419
v -32.107464 15.944809 -217.380859
v -8.941268 15.944809 -161.359116
v -12.911417 15.944809 -209.194641
v 38.893593 15.944809 -165.329193
v 34.923450 15.944809 -213.164734
v -197.656708 15.944809 61.468983
v -211.689667 15.944809 15.567285
v 204.691574 15.944809 -30.000038
v 204.691574 15.944809 17.999964
v 156.692230 15.944809 17.999973
v 156.692230 15.944809 -30.000029
v 274.107574 15.944809 239.883240
v 281.765747 15.944809 287.273285
v -217.869354 15.944809 13.558439
v -189.319824 15.944809 -25.024290
v -256.455505 15.944809 -15.000762
v -227.908997 15.944809 -53.574757
v 321.490112 15.944809 232.229080
v 329.146271 15.944809 279.619659
v 301.083679 15.944809 -281.998352
v 312.291443 15.944809 -235.327286
v -81.856064 68.053604 -227.934921
v 37.404514 67.944817 -216.852036
v -21.125816 68.088913 -169.298782
v -9.441438 68.074226 -168.693329
v -20.117603 68.394943 -181.917450
v -8.485242 68.364471 -180.661026
v -86.646744 68.053604 -167.957611
v 32.860996 67.944809 -159.968948
vn -0.0000 -0.0000 1.0000
vn -0.0000 -0.0000 -1.0000
vn 1.0000 -0.0000 -0.0000
vn -0.0000 -1.0000 -0.0000
vn -1.0000 -0.0000 -0.0000
vn -0.0000 1.0000 -0.0000
vn 0.9631 -0.0000 -0.2692
vn -0.0000 0.8944 0.4472
vn -0.8944 -0.0000 0.4472
vn 0.8944 -0.0000 0.4472
vn -0.0000 0.8944 -0.4472
vn -0.8944 -0.0000 -0.4472
vn 0.8944 -0.0000 -0.4472
vn 0.0622 -0.0000 -0.9981
vn -0.0001 -0.0000 -1.0000
vn 0.0623 -0.0001 -0.9981
vn 0.0623 -0.0000 -0.9981
vn -0.0622 -0.0000 -0.9981
vn -0.0623 -0.0000 -0.9981
vn -0.0623 0.0001 -0.9981
vn 0.4138 0.9104 -0.0000
vn -0.4138 0.9104 -0.0000
vn 0.6873 0.7264 -0.0000
vn -0.3634 -0.9316 -0.0000
vn -0.2447 -0.9696 -0.0000
vn -0.1230 -0.9924 -0.0000
vn 0.1230 -0.9924 -0.0000
vn 0.2447 -0.9696 -0.0000
vn 0.3634 -0.9316 -0.0000
vn 0.4776 -0.8786 -0.0000
vn 0.5857 -0.8105 -0.0000
vn 0.6856 -0.7280 -0.0000
vn 0.7752 -0.6317 -0.0000
vn 0.8525 -0.5227 -0.0000
vn 0.9154 -0.4026 -0.0000
vn 0.9618 -0.2737 -0.0000
vn 0.9904 -0.1385 -0.0000
vn 0.9976 -0.0695 -0.0000
vn -0.9976 -0.0695 -0.0000
vn -0.9904 -0.1385 -0.0000
vn -0.9618 -0.2737 -0.0000
vn -0.9154 -0.4026 -0.0000
vn -0.8525 -0.5227 -0.0000
vn -0.7752 -0.6317 -0.0000
vn -0.6856 -0.7280 -0.0000
vn -0.5857 -0.8105 -0.0000
vn -0.4776 -0.8786 -0.0000
vn 0.6856 0.7280 -0.0000
vn 0.7752 0.6317 -0.0000
vn 0.8525 0.5227 -0.0000
vn 0.9154 0.4026 -0.0000
vn 0.9618 0.2737 -0.0000
vn 0.9904 0.1385 -0.0000
vn 0.9976 0.0695 -0.0000
vn -0.3634 0.9316 -0.0000
vn -0.2447 0.9696 -0.0000
vn -0.1230 0.9924 -0.0000
vn 0.1230 0.9924 -0.0000
vn 0.2447 0.9696 -0.0000
vn 0.3634 0.9316 -0.0000
vn 0.4776 0.8786 -0.0000
vn 0.5857 0.8105 -0.0000
vn -0.9976 0.0695 -0.0000
vn -0.9904 0.1385 -0.0000
vn -0.9618 0.2737 -0.0000
vn -0.9154 0.4026 -0.0000
vn -0.8525 0.5227 -0.0000
vn -0.7752 0.6317 -0.0000
vn -0.6856 0.7280 -0.0000
vn -0.5857 0.8105 -0.0000
vn -0.4776 0.8786 -0.0000
vn -0.2446 0.9696 -0.0000
vn 0.2446 0.9696 -0.0000
vn -0.4777 0.8786 -0.0000
vn 0.4777 -0.8786 -0.0000
vn -0.0000 0.5000 0.8660
vn -0.0000 0.5000 -0.8660
vn -0.5000 -0.8365 -0.2241
vn -0.5000 0.8365 0.2241
vn 0.3090 -0.0000 0.9511
vn 0.3090 -0.0000 -0.9511
vn -0.8090 -0.0000 -0.5878
vn -0.8090 -0.0000 0.5878
vn 0.0001 -0.2586 0.9660
vn 0.0001 0.2586 -0.9660
vn -0.9732 -0.0000 -0.2298
vn 0.5000 0.8660 -0.0000
vn -0.5000 0.8660 -0.0000
vn 0.5000 -0.8660 -0.0000
vn -0.5000 -0.8660 -0.0000
vn -0.0000 -0.9221 0.3870
vn -0.0000 0.7705 0.6374
vn 0.0009 -1.0000 0.0001
vn -0.4777 -0.8786 -0.0000
vn -0.9563 -0.0000 0.2924
vn 0.9765 -0.0000 0.2155
vn -0.9724 0.0001 0.2333
vn -0.5075 -0.0000 0.8616
vn -0.4771 -0.0000 0.8788
vn 0.9724 -0.0001 -0.2335
vn 0.9724 -0.0000 -0.2335
vn -0.0526 -0.0000 0.9986
vn 0.0526 -0.0000 -0.9986
vn 0.9986 -0.0000 0.0526
vn -0.9986 -0.0000 -0.0526
vn -0.9966 -0.0000 0.0827
vn 0.9966 -0.0000 -0.0827
vn 0.0827 -0.0000 0.9966
vn -0.0827 -0.0000 -0.9966
vn 0.9563 -0.0001 -0.2924
vn 0.9563 -0.0000 -0.2924
vn -0.2924 -0.0000 -0.9563
vn -0.8615 0.0001 -0.5077
vn -0.8616 0.0001 -0.5077
vn -0.8616 -0.0000 -0.5076
vn -0.3746 0.0001 -0.9272
vn -0.9272 0.0001 0.3745
vn 0.1994 -0.0000 0.9799
vn 0.3745 -0.0000 0.9272
vn 0.5075 -0.0000 -0.8616
vn 0.5076 -0.0000 -0.8616
vn 0.2923 -0.0000 0.9563
vn -0.9724 0.0002 0.2333
vn -0.3338 -0.0000 -0.9426
vn 0.2334 -0.0000 0.9724
vn 0.9272 -0.0000 -0.3746
vn -0.9872 -0.0000 0.1595
vn 0.3338 -0.0001 0.9426
vn 0.3338 -0.0000 0.9426
vn 0.8039 -0.0000 0.5948
vn -0.9800 0.0001 0.1992
vn 0.9426 -0.0000 -0.3338
vn 0.8616 -0.0000 0.5076
vn -0.5949 -0.0000 0.8038
vn 0.9799 -0.0000 -0.1994
vn 0.9799 -0.0001 -0.1994
vn 0.5948 -0.0000 -0.8039
vn -0.2334 -0.0000 -0.9724
vn -0.9427 0.0001 0.3336
vn -0.9427 0.0001 0.3335
vn -0.9427 0.0002 0.3335
vn -0.1595 -0.0001 -0.9872
vn 0.8788 -0.0000 0.4771
vn -0.8038 -0.0000 -0.5949
vn -0.1994 -0.0000 -0.9799
vn 0.9872 0.0001 -0.1595
vn 0.1595 0.0001 0.9872
vn 0.1594 -0.0000 0.9872
vn -0.8789 -0.0000 -0.4771
vn 0.4773 0.0001 -0.8788
vn -0.9765 -0.0000 -0.2155
vn -0.2335 -0.0000 -0.9724
vn 0.9723 -0.0001 -0.2335
vn -0.2154 -0.0001 0.9765
vn 0.2157 0.0001 -0.9765
vn 0.2335 -0.0000 0.9724
vn 0.2335 -0.0001 0.9724
vn 0.0925 -0.0000 -0.9957
vn -0.0000 0.9997 0.0242
vn 0.0009 1.0000 0.0001
vn -0.9968 -0.0000 -0.0796
vn -0.0667 -0.0000 0.9978
vn 0.9968 -0.0000 0.0796
vt 0.000000 0.000000
vt 0.000000 1.000000
vt 1.000000 0.000000
vt 1.000000 1.000000
vt 8.000000 1.000000
vt 9.000000 1.000000
vt 8.000000 2.000000
vt 9.000000 2.000000
vt 0.006827 0.108080
vt 0.328712 0.108080
vt 0.035566 0.176558
vt 0.272066 0.176558
vt 2.999720 0.000000
vt 2.999720 0.253422
vt 1.999830 0.000000
vt 1.999830 0.253422
vt 0.999944 0.000000
vt 0.999944 0.253422
vt 0.000000 0.253422
vt -0.999832 0.253422
vt -0.999832 0.000000
vt 0.965634 0.380679
vt 0.965634 0.450529
vt 0.916188 0.366859
vt 0.916188 0.462202
vt 0.006827 0.001861
vt 0.997857 0.001860
vt 0.997857 0.108079
vt 0.000000 1.238680
vt 1.000000 1.238680
vt 0.000000 0.751892
vt 0.000000 0.998052
vt 1.000000 0.751890
vt 0.999871 0.998052
vt 0.000000 0.747846
vt 0.000000 1.012100
vt 0.999862 0.747844
vt 1.000000 1.012100
vt 1.000000 0.750004
vt -0.000104 0.750009
vt 0.999816 0.999934
vt -0.000104 0.999938
vt 9.998180 2.997050
vt 10.497200 2.498380
vt 10.497200 2.976270
vt 9.999150 2.498380
vt 10.995700 1.999710
vt 10.995700 2.498380
vt 10.497200 1.999710
vt 9.998690 2.498380
vt 9.998690 1.999710
vt 9.997570 2.995990
vt 10.479300 2.502570
vt 9.998500 2.502570
vt 10.479300 2.975430
vt 10.960000 2.995990
vt 10.961000 2.502570
vt 9.998030 2.502570
vt 10.479300 2.009150
vt 9.998030 2.009150
vt 10.960600 2.502570
vt 10.960600 2.009150
vt 10.502700 2.977390
vt 10.984500 2.504520
vt 10.983500 2.997940
vt 10.502700 2.504520
vt -0.130379 0.745150
vt -0.130379 0.655095
vt 1.130380 0.745148
vt 1.130380 0.655095
vt -0.130379 0.745149
vt 1.130380 0.745149
vt 0.021730 -2.385310
vt 0.021730 -2.609650
vt 1.034800 -2.385310
vt 1.034800 -2.609650
vt 0.099609 -2.385310
vt 0.099609 -2.609650
vt 0.685547 -2.385310
vt 0.685547 -2.609650
vt 1.268470 0.037431
vt -0.084200 0.037432
vt 1.048650 -0.392092
vt 0.758924 -0.721809
vt 0.355333 -0.959831
vt -0.084201 -0.967713
vt 1.310700 0.499999
vt 1.268470 0.962567
vt 0.466968 0.962568
vt 0.466968 0.037432
vt -0.084199 0.962568
vt 1.048650 1.392090
vt 0.758927 1.721810
vt 0.355335 1.959830
vt -0.084198 1.967710
vt -0.130301 0.744999
vt -0.040547 0.655245
vt 1.130300 0.744999
vt 1.040550 0.655245
vt 1.036810 0.653443
vt 1.130170 0.746802
vt -0.083491 0.653442
vt -0.083491 0.746801
vt 1.036810 0.653442
vt -0.083491 0.653444
vt 1.130170 0.746801
vt -0.083491 0.746802
vt -0.776964 0.250053
vt -0.776964 0.356068
vt 1.776960 0.250051
vt 1.776960 0.356068
vt 1.014810 0.654018
vt 1.014810 0.746226
vt -0.014812 0.654019
vt -0.014812 0.746226
vt 0.999972 0.656878
vt 0.999972 0.743365
vt 0.000000 0.656879
vt 0.000000 0.743367
vt -0.083491 0.653443
vt 1.036810 0.653444
vt -0.014812 0.654018
vt -0.014522 0.654015
vt 1.014520 0.654017
vt -0.014522 0.746228
vt 1.014520 0.746229
vt 1.014520 0.654016
vt -0.014522 0.654017
vt 1.014520 0.746228
vt -0.014522 0.746229
vt 0.999972 0.745122
vt 0.000000 0.745124
vt 0.999972 0.655120
vt 0.000000 0.655122
vt -0.130301 0.746228
vt -0.130301 0.654016
vt 1.130300 0.746228
vt 1.130300 0.654016
vt 1.049220 0.653444
vt 1.130590 0.746802
vt -0.089903 0.653443
vt -0.089903 0.746799
vt 1.049220 0.654019
vt -0.089903 0.654019
vt 1.130590 0.746225
vt -0.089903 0.746226
vt 1.000000 0.012207
vt 0.000000 0.012207
vt 1.000000 1.012210
vt 0.000000 0.090907
vt 0.923076 0.090906
vt 0.923077 1.909090
vt 1.000000 2.000000
vt 0.000000 2.000000
vt 0.000000 1.909090
vt 0.000000 1.246070
vt 0.611347 0.000000
vt 2.000000 0.000000
vt 2.000000 2.000000
vt 0.017624 0.008041
vt 0.017623 0.992841
vt 1.027650 0.992842
vt 0.000000 1.243750
vt 0.673616 0.000000
vt -0.541129 2.500000
vt -0.541129 -0.500000
vt -0.259622 2.500000
vt -0.259622 -0.500000
vt -0.259622 0.006633
vt 2.259620 0.006633
vt 2.259620 -0.500000
vt 2.259620 2.500000
vt 2.541130 2.500000
vt 2.541130 -0.500000
vt -0.259622 2.157980
vt 2.259620 2.157980
vt 1.736520 -1.431110
vt 2.231950 -1.431110
vt 1.736520 -0.377058
vt 2.231950 -0.377058
vt 2.541130 1.418460
vt 2.541130 0.746160
vt 2.950000 1.418460
vt 2.950000 0.746160
vt 2.541130 0.006633
vt 2.950000 0.006633
vt 2.541130 2.157980
vt 2.950000 2.157980
vt -0.950000 1.418460
vt -0.950000 0.746160
vt -0.541129 1.418460
vt -0.541129 0.746160
vt -2.493660 -1.431110
vt -1.998240 -1.431110
vt -2.493660 -0.377058
vt -1.998240 -0.377058
vt -0.950000 0.006633
vt -0.541129 0.006633
vt -0.950000 2.157980
vt -0.541129 2.157980
vt 1.812740 -1.431110
vt 1.812740 0.028347
vt 4.632860 -1.431110
vt 4.632860 0.028347
vt -1.998240 0.028347
vt -1.731470 0.028347
vt 1.469750 0.028347
vt 1.736520 0.028347
vt 2.003290 -1.431110
vt 2.003290 -0.377058
vt 2.841700 0.028347
vt 4.442310 -1.431110
vt 3.603900 0.028347
vt 4.442310 -0.377058
vt 3.000000 0.000000
vt 0.000000 4.000000
vt 3.000000 4.000000
vt 2.000000 1.000000
vt 0.491528 0.011470
vt 0.499961 -0.003226
vt 0.508471 0.011427
vt 0.000165 0.702496
vt 0.999998 0.702492
vt 0.000165 0.469123
vt 0.999997 0.469119
vt 0.000163 0.234873
vt 0.999995 0.234867
vt 0.000162 0.000169
vt 0.999994 0.000164
vt 1.000000 0.934619
vt 0.000166 0.934622
vt 1.000000 1.165210
vt 0.000167 1.165210
vt 1.000000 1.394070
vt 0.000167 1.394070
vt 1.000000 1.621130
vt 0.000167 1.621130
vt 1.000000 1.846440
vt 0.000167 1.846440
vt 1.000000 2.070170
vt 0.000166 2.070170
vt 1.000000 2.292590
vt 0.000166 2.292590
vt 1.000000 2.514090
vt 0.000165 2.514090
vt 1.000000 2.735110
vt 0.000165 2.735110
vt 0.500037 0.996748
vt 0.491529 0.982097
vt 0.508470 0.982054
vt 1.000000 1.479100
vt 0.000173 1.479100
vt 1.000000 1.720020
vt 0.000173 1.720020
vt 1.000000 1.959070
vt 0.000173 1.959070
vt 0.000172 2.196440
vt 1.000000 2.196440
vt 1.000000 2.432440
vt 0.000171 2.432430
vt 1.000000 2.667450
vt 0.000170 2.667440
vt 1.000000 2.901950
vt 0.000169 2.901950
vt 0.999998 0.745337
vt 0.000171 0.745343
vt 0.000170 0.497734
vt 0.999996 0.497728
vt 0.000168 0.249194
vt 0.999993 0.249187
vt 0.000167 0.000174
vt 0.999990 0.000168
vt 1.000000 0.991624
vt 0.000172 0.991628
vt 1.000000 1.236280
vt 0.000173 1.236280
vt 0.508982 0.011471
vt 0.506422 1.011440
vt 0.488968 1.011440
vt 0.508981 0.011427
vt 0.508961 1.011360
vt 0.491508 1.011400
vt 0.108497 0.543362
vt 0.100945 0.543325
vt 0.108497 0.110672
vt 0.100945 0.110634
vt 0.093393 0.543288
vt 0.093393 0.110596
vt 0.085841 0.543251
vt 0.085841 0.110558
vt 0.080289 0.116394
vt 0.087801 0.116372
vt 0.080289 0.546809
vt 0.087802 0.546786
vt 0.095314 0.116349
vt 0.095314 0.546764
vt 0.102826 0.116327
vt 0.102826 0.546742
vt 0.110339 0.116304
vt 0.110339 0.546719
vt 0.117851 0.116282
vt 0.117851 0.546697
vt 0.075194 0.027253
vt 0.120929 0.027254
vt 0.098062 0.066861
vt 0.098061 0.027253
vt 0.120929 0.066861
vt 0.075194 0.066861
vt 0.818939 0.526319
vt 0.889912 0.583477
vt 0.818939 0.352825
vt 0.889912 0.295666
vt 0.889912 1.000000
vt 0.889912 0.000000
vt 0.092714 0.000000
vt 0.092714 0.905698
vt 0.907286 0.905698
vt 0.907286 0.000000
vt -0.003165 -1.030110
vt -0.003165 -2.116980
vt 0.050050 -1.030090
vt 0.050050 -2.116970
vt -0.003165 -0.059073
vt 0.050050 -0.059053
vt 0.399024 1.500000
vt 0.399024 -0.499999
vt 0.600976 1.500000
vt 0.600976 -0.500001
vt -0.003165 1.027800
vt 0.050050 1.027820
vt 0.485779 1.228390
vt 0.485779 0.337385
vt 1.000000 1.275330
vt 1.514220 0.337385
vt 1.514220 1.228390
vt -0.631605 -0.275328
vt 0.485779 -0.275328
vt -0.622843 0.213286
vt -0.358243 0.661944
vt 0.008293 0.984017
vt 1.514220 -0.275328
vt 2.631610 -0.275328
vt 2.622840 0.213286
vt 2.358240 0.661944
vt 1.991710 0.984017
vt 0.182611 0.442567
vt 0.182611 0.650858
vt 0.094724 0.442567
vt 0.094724 0.650858
vt 0.890129 0.562103
vt 1.021130 0.562103
vt 0.890129 0.604911
vt 1.021130 0.604911
vt 0.890129 0.389357
vt 1.021130 0.389357
vt 0.890129 0.432166
vt 1.021130 0.432166
vt 0.053621 0.921385
vt -0.053552 0.921385
vt 0.053621 0.029787
vt -0.053552 0.029787
vt 0.890129 0.077405
vt 1.021130 0.077405
vt 0.890129 0.826348
vt 1.021130 0.826348
vt 0.620165 0.758726
vt 0.620164 0.508726
vt 0.870165 0.758726
vt 0.870164 0.508726
vt -0.045753 0.745363
vt -0.147665 0.745363
vt -0.147665 0.497756
vt -0.045753 0.497756
vt -0.147665 0.249218
vt -0.045753 0.249218
vt -0.147665 0.000200
vt -0.045753 0.000200
vt -0.045753 0.991647
vt -0.147665 0.991647
vt -0.045753 1.236300
vt -0.147665 1.236300
vt -0.045753 1.479120
vt -0.147665 1.479120
vt -0.045753 1.720030
vt -0.147665 1.720030
vt -0.045753 1.959080
vt -0.147665 1.959080
vt -0.045753 2.196450
vt -0.147665 2.196450
vt -0.045753 2.432440
vt -0.147665 2.432440
vt -0.045753 2.667450
vt -0.147665 2.667450
vt -0.045753 2.901950
vt -0.147665 2.901950
vt -0.069614 1.635900
vt -0.069617 1.412350
vt 1.069790 1.412350
vt 1.069800 1.635890
vt -0.069609 1.857710
vt 1.069800 1.857710
vt -0.069603 2.077970
vt 1.069800 2.077960
vt -0.069596 2.296940
vt 1.069810 2.296940
vt 1.069820 2.515000
vt -0.069588 2.515010
vt -0.069582 2.732600
vt 1.069830 2.732590
vt 1.069800 0.731501
vt 1.069810 0.501747
vt -0.069611 0.731495
vt -0.069604 0.501739
vt 1.069820 0.271128
vt -0.069595 0.271119
vt 1.069830 0.040063
vt -0.069584 0.040053
vt -0.069616 0.960024
vt 1.069800 0.960028
vt -0.069617 1.187040
vt 1.069790 1.187040
vt -0.078614 0.747905
vt 1.078690 0.747905
vt 1.078700 0.499454
vt -0.078615 0.499455
vt 1.078700 0.250069
vt -0.078616 0.250069
vt 1.078700 0.000202
vt -0.078616 0.000201
vt -0.078612 0.995028
vt 1.078690 0.995027
vt -0.078609 1.240510
vt 1.078690 1.240510
vt -0.078607 1.484160
vt 1.078690 1.484160
vt -0.078603 1.725890
vt 1.078690 1.725890
vt -0.078599 1.965750
vt 1.078700 1.965750
vt -0.078596 2.203920
vt 1.078700 2.203920
vt -0.078592 2.440720
vt 1.078700 2.440710
vt -0.078589 2.676520
vt 1.078700 2.676520
vt -0.078586 2.911810
vt 1.078700 2.911810
vt -0.054439 2.155210
vt 1.063310 2.155200
vt -0.054437 2.402630
vt 1.063310 2.402630
vt -0.054435 2.650990
vt 1.063310 2.650990
vt -0.054433 2.899830
vt 1.063320 2.899820
vt 1.063310 1.909090
vt -0.054440 1.909100
vt 1.063310 1.664620
vt -0.054442 1.664620
vt 1.063310 1.421980
vt -0.054441 1.421970
vt 1.063310 1.181240
vt -0.054441 1.181240
vt -0.054440 0.942357
vt 1.063310 0.942360
vt 1.063310 0.705162
vt -0.054438 0.705159
vt 1.063310 0.469343
vt -0.054436 0.469338
vt 1.063320 0.234504
vt -0.054435 0.234500
vt 1.063320 0.000174
vt -0.054433 0.000169
vt -0.058957 1.660740
vt -0.058957 1.880330
vt 1.059130 1.660740
vt 1.059130 1.880330
vt -0.058957 2.098230
vt 1.059130 2.098230
vt -0.058958 2.314600
vt 1.059130 2.314600
vt -0.058958 2.529710
vt 1.059120 2.529710
vt -0.058959 2.743920
vt 1.059120 2.743930
vt -0.058960 2.957670
vt 1.059120 2.957680
vt 1.059130 0.766195
vt 1.059130 0.991896
vt -0.058960 0.991899
vt -0.058961 0.766198
vt 1.059130 0.539645
vt -0.058962 0.539649
vt 1.059120 0.312658
vt -0.058963 0.312661
vt -0.058959 1.216390
vt 1.059130 1.216390
vt -0.058958 1.439400
vt 1.059130 1.439400
vt -0.056344 2.155210
vt -0.056342 2.402630
vt 1.056510 2.155200
vt 1.056510 2.402630
vt -0.056340 2.650990
vt 1.056510 2.650990
vt -0.056338 2.899830
vt 1.056510 2.899820
vt -0.056345 1.909100
vt 1.056510 1.909090
vt 1.056510 1.664620
vt -0.056346 1.664620
vt 1.056510 1.421980
vt -0.056346 1.421970
vt 1.056510 1.181240
vt -0.056346 1.181240
vt -0.056345 0.942357
vt 1.056510 0.942360
vt -0.056343 0.705159
vt 1.056510 0.705162
vt 1.056510 0.469343
vt -0.056341 0.469338
vt 1.056510 0.234504
vt -0.056340 0.234500
vt -0.056338 0.000169
vt 1.056510 0.000174
vt 0.999999 0.000000
vt 1.000000 0.999999
vt 0.999981 0.989551
vt 0.000000 0.987728
vt 0.999981 0.918959
vt 0.000000 0.920786
vt 0.272886 0.003664
vt 0.752229 0.003664
vt 0.272886 0.489612
vt 0.752229 0.489612
vt 0.000000 0.497392
vt 1.000000 0.497392
vt 0.150620 0.918959
vt 0.849380 0.918959
vt 0.150620 0.989553
vt 0.849380 0.989553
vt 0.000000 0.989553
vt 1.000000 0.989553
vt 0.000000 0.918959
vt 1.000000 0.918959
vt 0.849380 0.919209
vt 0.849380 0.989302
vt 0.150620 0.919210
vt 0.150620 0.989303
s 1
usemtl nf_buildingtexturesplate19
f 1/1/1 2/2/1 3/3/1
f 2/2/1 4/4/1 3/3/1
f 5/2/1 6/1/1 7/4/1
f 6/1/1 8/3/1 7/4/1
f 9/5/1 10/6/1 11/7/1
f 10/6/1 12/8/1 11/7/1
f 13/1/2 14/2/2 15/3/2
f 14/2/2 16/4/2 15/3/2
f 17/5/2 18/7/2 19/6/2
f 18/7/2 20/8/2 19/6/2
f 21/1/1 22/3/1 23/2/1
f 22/3/1 24/4/1 23/2/1
f 25/5/1 26/7/1 27/6/1
f 26/7/1 28/8/1 27/6/1
f 29/1/2 30/3/2 31/2/2
f 30/3/2 32/4/2 31/2/2
f 33/5/2 34/6/2 35/7/2
f 34/6/2 36/8/2 35/7/2
usemtl nf_buildingtexturesplate18
f 37/9/3 38/10/3 39/11/3
f 38/10/3 40/12/3 39/11/3
f 33/13/4 1/14/4 34/15/4
f 1/14/4 3/16/4 34/15/4
f 34/15/5 3/16/5 36/17/5
f 3/16/5 4/18/5 36/17/5
f 36/17/6 4/18/6 35/1/6
f 4/18/6 2/19/6 35/1/6
f 1/20/3 33/21/3 2/19/3
f 33/21/3 35/1/3 2/19/3
f 29/20/3 31/19/3 25/21/3
f 31/19/3 26/1/3 25/21/3
f 28/17/6 26/1/6 32/18/6
f 26/1/6 31/19/6 32/18/6
f 27/15/5 28/17/5 30/16/5
f 28/17/5 32/18/5 30/16/5
f 25/13/4 27/15/4 29/14/4
f 27/15/4 30/16/4 29/14/4
f 21/20/5 23/19/5 17/21/5
f 23/19/5 18/1/5 17/21/5
f 20/17/6 18/1/6 24/18/6
f 18/1/6 23/19/6 24/18/6
f 19/15/3 20/17/3 22/16/3
f 20/17/3 24/18/3 22/16/3
f 17/13/4 19/15/4 21/14/4
f 19/15/4 22/16/4 21/14/4
f 13/20/5 9/21/5 14/19/5
f 9/21/5 11/1/5 14/19/5
f 12/17/6 16/18/6 11/1/6
f 16/18/6 14/19/6 11/1/6
f 10/15/3 15/16/3 12/17/3
f 15/16/3 16/18/3 12/17/3
f 9/13/4 13/14/4 10/15/4
f 13/14/4 15/16/4 10/15/4
f 41/22/6 42/23/6 43/24/6
f 42/23/6 44/25/6 43/24/6
f 45/26/7 41/27/7 37/9/7
f 41/27/7 43/28/7 37/9/7
f 46/29/5 47/30/5 48/1/5
f 47/30/5 49/3/5 48/1/5
f 50/31/8 51/32/8 52/33/8
f 51/32/8 53/34/8 52/33/8
f 54/35/9 55/36/9 53/37/9
f 55/36/9 52/38/9 53/37/9
f 50/39/10 56/40/10 51/41/10
f 56/40/10 57/42/10 51/41/10
f 58/31/11 59/33/11 60/32/11
f 59/33/11 61/34/11 60/32/11
f 62/35/12 61/37/12 63/36/12
f 61/37/12 59/38/12 63/36/12
f 64/42/13 65/40/13 60/41/13
f 65/40/13 58/39/13 60/41/13
usemtl nf_logo
f 66/43/14 67/44/2 68/45/15
f 66/43/16 69/46/17 67/44/2
f 67/44/2 70/47/18 71/48/19
f 67/44/2 72/49/2 70/47/19
f 69/50/17 72/49/2 67/44/2
f 69/50/17 73/51/17 72/49/2
f 66/52/1 74/53/1 69/54/1
f 66/52/1 75/55/1 74/53/1
f 76/56/1 74/53/1 75/55/1
f 76/56/1 71/57/1 74/53/1
f 69/58/1 77/59/1 73/60/1
f 69/58/1 74/53/1 77/59/1
f 71/61/1 77/59/1 74/53/1
f 71/61/1 70/62/1 77/59/1
f 68/63/15 71/64/19 76/65/20
f 68/63/15 67/66/2 71/64/19
usemtl nf_buildingtexturesplate12
f 78/67/4 79/68/4 80/69/4
f 80/69/4 81/70/4 82/68/4
f 83/67/4 80/69/4 82/68/4
f 79/68/4 81/70/4 84/69/4
f 85/71/3 86/68/3 87/72/3
f 86/68/3 88/70/3 87/72/3
f 87/72/3 88/70/3 89/68/3
f 90/71/3 87/72/3 89/68/3
f 91/73/4 92/74/4 93/75/4
f 92/74/4 94/76/4 93/75/4
f 95/77/5 96/78/5 91/79/5
f 96/78/5 92/80/5 91/79/5
f 97/81/1 98/82/1 99/83/1
f 98/82/1 100/84/1 99/83/1
f 100/84/1 98/82/1 101/85/1
f 98/82/1 102/86/1 101/85/1
f 103/87/1 104/88/1 105/89/1
f 106/90/1 103/87/1 105/89/1
f 106/90/1 97/81/1 103/87/1
f 107/91/1 104/88/1 108/92/1
f 109/93/1 107/91/1 108/92/1
f 107/91/1 109/93/1 110/94/1
f 111/95/1 107/91/1 110/94/1
f 112/78/3 113/80/3 114/77/3
f 113/80/3 115/79/3 114/77/3
f 116/73/4 115/75/4 117/74/4
f 115/75/4 113/76/4 117/74/4
f 118/77/5 116/79/5 119/78/5
f 116/79/5 117/80/5 119/78/5
f 120/96/2 121/97/2 122/98/2
f 121/97/2 123/99/2 122/98/2
f 124/100/5 122/101/5 125/102/5
f 122/101/5 126/103/5 125/102/5
f 123/104/2 127/105/2 122/106/2
f 127/105/2 126/107/2 122/106/2
f 81/1/1 80/1/1 128/1/1
f 80/1/1 129/1/1 128/1/1
f 130/1/1 87/1/1 131/1/1
f 87/1/1 132/1/1 131/1/1
f 133/108/6 134/109/6 135/110/6
f 134/109/6 136/111/6 135/110/6
f 82/112/1 137/113/1 89/114/1
f 137/113/1 90/115/1 89/114/1
f 82/116/5 121/117/5 138/118/5
f 121/117/5 139/119/5 138/118/5
f 83/116/1 82/117/1 140/118/1
f 82/117/1 138/119/1 140/118/1
f 141/107/3 120/106/3 140/120/3
f 120/106/3 83/100/3 140/120/3
f 121/121/2 120/101/2 139/102/2
f 120/101/2 141/103/2 139/102/2
f 121/122/4 82/115/4 123/112/4
f 82/115/4 89/113/4 123/112/4
f 89/123/3 142/124/3 123/125/3
f 142/124/3 127/126/3 123/125/3
f 124/127/1 125/128/1 89/129/1
f 125/128/1 142/130/1 89/129/1
f 143/97/1 144/96/1 145/99/1
f 144/96/1 146/98/1 145/99/1
f 147/103/5 146/101/5 148/102/5
f 146/101/5 149/100/5 148/102/5
f 145/104/1 146/106/1 150/105/1
f 146/106/1 147/107/1 150/105/1
f 151/108/6 152/110/6 153/109/6
f 152/110/6 154/111/6 153/109/6
f 79/112/2 86/114/2 155/113/2
f 86/114/2 85/115/2 155/113/2
f 79/131/5 156/132/5 143/133/5
f 156/132/5 157/134/5 143/133/5
f 78/131/2 158/132/2 79/133/2
f 158/132/2 156/134/2 79/133/2
f 78/100/3 144/106/3 158/120/3
f 144/106/3 159/107/3 158/120/3
f 143/121/1 157/102/1 144/101/1
f 157/102/1 159/103/1 144/101/1
f 143/122/4 145/112/4 79/115/4
f 145/112/4 86/113/4 79/115/4
f 86/123/3 145/125/3 160/124/3
f 145/125/3 150/126/3 160/124/3
f 149/127/2 86/129/2 148/128/2
f 86/129/2 160/130/2 148/128/2
f 82/67/5 81/69/5 137/68/5
f 81/69/5 128/70/5 137/68/5
f 79/67/5 155/68/5 81/69/5
f 155/68/5 161/70/5 81/69/5
f 86/135/4 149/136/4 88/137/4
f 149/136/4 131/138/4 88/137/4
f 88/137/4 131/138/4 124/136/4
f 89/135/4 88/137/4 124/136/4
f 162/78/3 163/77/3 94/80/3
f 163/77/3 93/79/3 94/80/3
f 164/88/2 165/91/2 166/92/2
f 165/91/2 167/93/2 166/92/2
f 167/93/2 165/91/2 168/94/2
f 165/91/2 169/95/2 168/94/2
f 164/88/2 170/87/2 171/89/2
f 170/87/2 172/90/2 171/89/2
f 173/81/2 172/90/2 170/87/2
f 174/86/2 175/82/2 176/85/2
f 175/82/2 177/84/2 176/85/2
f 177/84/2 175/82/2 178/83/2
f 175/82/2 173/81/2 178/83/2
f 83/139/3 120/140/3 80/141/3
f 120/140/3 129/142/3 80/141/3
f 129/142/3 144/140/3 80/141/3
f 144/140/3 78/139/3 80/141/3
f 124/143/5 131/144/5 122/145/5
f 131/144/5 132/146/5 122/145/5
f 146/145/5 132/146/5 131/144/5
f 149/143/5 146/145/5 131/144/5
usemtl nf_buildingtexturesplate01
f 179/147/1 46/148/1 180/149/1
f 162/150/1 94/151/1 55/1/1
f 94/151/1 52/3/1 55/1/1
f 52/3/1 94/151/1 92/152/1
f 50/153/1 52/3/1 92/152/1
f 92/152/1 56/154/1 50/153/1
f 92/152/1 96/155/1 56/154/1
f 46/156/1 48/1/1 180/157/1
f 119/155/2 117/152/2 65/154/2
f 117/152/2 58/153/2 65/154/2
f 117/152/2 59/3/2 58/153/2
f 117/152/2 113/151/2 59/3/2
f 113/151/2 63/1/2 59/3/2
f 113/151/2 112/150/2 63/1/2
f 181/1/2 182/158/2 151/154/2
f 182/158/2 152/159/2 151/154/2
f 47/160/2 183/161/2 184/162/2
f 185/1/1 133/154/1 186/158/1
f 133/154/1 135/159/1 186/158/1
f 153/1/1 154/158/1 187/154/1
f 154/158/1 188/159/1 187/154/1
f 49/1/2 47/163/2 184/164/2
f 134/1/2 189/154/2 136/158/2
f 189/154/2 190/159/2 136/158/2
usemtl nf_buildingtexturesplate14
f 191/165/6 192/166/6 193/167/6
f 192/166/6 194/168/6 193/167/6
f 195/169/6 194/168/6 196/170/6
f 194/168/6 197/171/6 196/170/6
f 198/172/6 197/171/6 199/173/6
f 197/171/6 200/174/6 199/173/6
f 193/167/6 201/175/6 198/172/6
f 201/175/6 202/176/6 198/172/6
f 203/177/3 204/178/3 205/179/3
f 204/178/3 206/180/3 205/179/3
f 207/181/6 208/182/6 209/183/6
f 208/182/6 210/184/6 209/183/6
f 208/182/21 205/185/21 210/184/21
f 205/185/21 206/186/21 210/184/21
f 211/187/22 207/181/22 212/188/22
f 207/181/22 209/183/22 212/188/22
f 213/177/5 211/179/5 214/178/5
f 211/179/5 212/180/5 214/178/5
f 215/189/6 216/190/6 217/191/6
f 216/190/6 218/192/6 217/191/6
f 219/193/3 220/194/3 221/195/3
f 220/194/3 222/196/3 221/195/3
f 216/190/21 221/197/21 218/192/21
f 221/197/21 222/198/21 218/192/21
f 223/199/22 215/189/22 224/200/22
f 215/189/22 217/191/22 224/200/22
f 225/193/5 223/195/5 226/194/5
f 223/195/5 224/196/5 226/194/5
f 227/201/1 192/202/1 228/203/1
f 192/202/1 191/204/1 228/203/1
f 229/203/2 199/204/2 230/201/2
f 199/204/2 200/202/2 230/201/2
f 191/205/5 193/206/5 228/194/5
f 193/206/5 229/177/5 228/194/5
f 198/207/5 229/177/5 193/206/5
f 198/207/5 199/208/5 229/177/5
f 219/209/1 221/210/1 216/211/1
f 219/209/1 216/211/1 225/212/1
f 216/211/1 215/213/1 225/212/1
f 215/213/1 223/214/1 225/212/1
f 214/212/2 212/214/2 209/213/2
f 210/211/2 214/212/2 209/213/2
f 210/211/2 204/209/2 214/212/2
f 210/211/2 206/210/2 204/209/2
f 200/208/3 197/207/3 230/177/3
f 197/207/3 227/194/3 230/177/3
f 194/206/3 227/194/3 197/207/3
f 194/206/3 192/205/3 227/194/3
usemtl nf_buildingtexturesfloor01
f 201/1/6 195/215/6 202/216/6
f 195/215/6 196/217/6 202/216/6
f 231/1/6 5/158/6 232/2/6
f 5/158/6 7/218/6 232/2/6
f 183/1/23 47/3/23 179/2/23
f 47/3/23 46/4/23 179/2/23
usemtl nf_buildingtexturesplate09
f 233/219/5 234/220/5 235/221/5
f 236/222/24 237/223/24 238/224/25
f 237/223/24 239/225/25 238/224/25
f 238/224/25 239/225/25 240/226/26
f 239/225/25 241/227/26 240/226/26
f 240/226/26 241/227/26 242/228/4
f 241/227/26 243/229/4 242/228/4
f 242/228/4 243/229/4 244/227/27
f 245/226/27 242/228/4 244/227/27
f 245/226/27 244/227/27 246/225/28
f 247/224/28 245/226/27 246/225/28
f 247/224/28 246/225/28 248/223/29
f 249/222/29 247/224/28 248/223/29
f 249/222/29 248/223/29 250/230/30
f 251/231/30 249/222/29 250/230/30
f 251/231/30 250/230/30 252/232/31
f 253/233/31 251/231/30 252/232/31
f 253/233/31 252/232/31 254/234/32
f 255/235/32 253/233/31 254/234/32
f 255/235/32 254/234/32 256/236/33
f 257/237/33 255/235/32 256/236/33
f 257/237/33 256/236/33 258/238/34
f 259/239/34 257/237/33 258/238/34
f 259/239/34 258/238/34 260/240/35
f 261/241/35 259/239/34 260/240/35
f 261/241/35 260/240/35 262/242/36
f 263/243/36 261/241/35 262/242/36
f 263/243/36 262/242/36 264/244/37
f 265/245/37 263/243/36 264/244/37
f 265/245/37 264/244/37 266/246/38
f 267/247/38 265/245/37 266/246/38
f 268/248/3 269/249/3 270/250/3
f 271/247/39 272/246/39 273/245/40
f 272/246/39 274/244/40 273/245/40
f 273/245/40 274/244/40 275/243/41
f 274/244/40 276/242/41 275/243/41
f 275/243/41 276/242/41 277/241/42
f 276/242/41 278/240/42 277/241/42
f 277/241/42 278/240/42 279/239/43
f 278/240/42 280/238/43 279/239/43
f 279/239/43 280/238/43 281/237/44
f 280/238/43 282/236/44 281/237/44
f 281/237/44 282/236/44 283/235/45
f 282/236/44 284/234/45 283/235/45
f 283/235/45 284/234/45 285/233/46
f 284/234/45 286/232/46 285/233/46
f 285/233/46 286/232/46 287/231/47
f 286/232/46 288/230/47 287/231/47
f 287/231/47 288/230/47 236/222/24
f 288/230/47 237/223/24 236/222/24
f 289/251/48 290/252/48 291/253/49
f 290/252/48 292/254/49 291/253/49
f 291/253/49 292/254/49 293/255/50
f 292/254/49 294/256/50 293/255/50
f 293/255/50 294/256/50 295/257/51
f 296/258/51 293/255/50 295/257/51
f 296/258/51 295/257/51 297/259/52
f 295/257/51 298/260/52 297/259/52
f 297/259/52 298/260/52 299/261/53
f 298/260/52 300/262/53 299/261/53
f 299/261/53 300/262/53 301/263/54
f 300/262/53 302/264/54 301/263/54
f 303/265/55 304/266/55 305/267/56
f 306/268/56 303/265/55 305/267/56
f 306/268/56 305/267/56 307/269/57
f 308/270/57 306/268/56 307/269/57
f 308/270/57 307/269/57 309/271/6
f 310/272/6 308/270/57 309/271/6
f 310/272/6 309/271/6 311/270/58
f 309/271/6 312/269/58 311/270/58
f 311/270/58 312/269/58 313/268/59
f 312/269/58 314/267/59 313/268/59
f 313/268/59 314/267/59 315/265/60
f 314/267/59 316/266/60 315/265/60
f 315/265/60 316/266/60 317/273/61
f 316/266/60 318/274/61 317/273/61
f 317/273/61 318/274/61 319/275/62
f 318/274/61 320/276/62 319/275/62
f 319/275/62 320/276/62 290/252/48
f 289/251/48 319/275/62 290/252/48
f 321/263/63 322/264/63 323/262/64
f 324/261/64 321/263/63 323/262/64
f 324/261/64 323/262/64 325/260/65
f 326/259/65 324/261/64 325/260/65
f 326/259/65 325/260/65 327/257/66
f 328/258/66 326/259/65 327/257/66
f 328/258/66 327/257/66 329/256/67
f 330/255/67 328/258/66 329/256/67
f 330/255/67 329/256/67 331/254/68
f 332/253/68 330/255/67 331/254/68
f 332/253/68 331/254/68 333/252/69
f 334/251/69 332/253/68 333/252/69
f 334/251/69 333/252/69 335/276/70
f 336/275/70 334/251/69 335/276/70
f 336/275/70 335/276/70 337/274/71
f 338/273/71 336/275/70 337/274/71
f 338/273/71 337/274/71 304/266/55
f 303/265/55 338/273/71 304/266/55
f 339/267/72 340/266/55 341/265/55
f 342/268/56 339/267/72 341/265/55
f 343/269/57 339/267/72 342/268/56
f 344/270/57 343/269/57 342/268/56
f 345/271/6 343/269/57 344/270/57
f 346/272/6 345/271/6 344/270/57
f 346/272/6 347/270/58 345/271/6
f 347/270/58 348/269/58 345/271/6
f 347/270/58 349/268/59 348/269/58
f 349/268/59 350/267/73 348/269/58
f 349/268/59 351/265/60 350/267/73
f 351/265/60 352/266/60 350/267/73
f 351/265/60 353/273/61 352/266/60
f 353/273/61 354/274/61 352/266/60
f 353/273/61 355/275/62 354/274/61
f 355/275/62 356/276/62 354/274/61
f 355/275/62 357/251/48 356/276/62
f 357/251/48 358/252/48 356/276/62
f 357/251/48 359/253/49 358/252/48
f 359/253/49 360/254/49 358/252/48
f 359/253/49 361/255/50 360/254/49
f 361/255/50 362/256/50 360/254/49
f 361/255/50 363/258/51 362/256/50
f 363/258/51 364/257/51 362/256/50
f 363/258/51 365/259/52 364/257/51
f 365/259/52 366/260/52 364/257/51
f 365/259/52 367/261/53 366/260/52
f 367/261/53 368/262/53 366/260/52
f 367/261/53 369/263/54 368/262/53
f 369/263/54 370/264/54 368/262/53
f 371/219/5 372/220/5 373/221/5
f 374/262/64 375/264/63 376/263/63
f 377/261/64 374/262/64 376/263/63
f 378/260/65 374/262/64 377/261/64
f 379/259/65 378/260/65 377/261/64
f 380/257/66 378/260/65 379/259/65
f 381/258/66 380/257/66 379/259/65
f 381/258/66 382/255/67 380/257/66
f 382/255/67 383/256/67 380/257/66
f 384/254/68 383/256/67 382/255/67
f 385/253/68 384/254/68 382/255/67
f 386/252/69 384/254/68 385/253/68
f 387/251/69 386/252/69 385/253/68
f 387/251/69 388/275/70 386/252/69
f 388/275/70 389/276/70 386/252/69
f 390/274/71 389/276/70 388/275/70
f 391/273/74 390/274/71 388/275/70
f 340/266/55 390/274/71 391/273/74
f 341/265/55 340/266/55 391/273/74
f 392/236/33 393/234/32 394/235/32
f 395/237/33 392/236/33 394/235/32
f 396/238/34 392/236/33 395/237/33
f 397/239/34 396/238/34 395/237/33
f 398/240/35 396/238/34 397/239/34
f 399/241/35 398/240/35 397/239/34
f 400/242/36 398/240/35 399/241/35
f 401/243/36 400/242/36 399/241/35
f 402/244/37 400/242/36 401/243/36
f 403/245/37 402/244/37 401/243/36
f 404/246/38 402/244/37 403/245/37
f 405/247/38 404/246/38 403/245/37
f 406/222/24 407/224/25 408/223/24
f 407/224/25 409/225/25 408/223/24
f 407/224/25 410/226/26 409/225/25
f 410/226/26 411/227/26 409/225/25
f 410/226/26 412/228/4 411/227/26
f 412/228/4 413/229/4 411/227/26
f 414/227/27 413/229/4 412/228/4
f 415/226/27 414/227/27 412/228/4
f 416/225/28 414/227/27 415/226/27
f 417/224/28 416/225/28 415/226/27
f 418/223/29 416/225/28 417/224/28
f 419/222/29 418/223/29 417/224/28
f 420/230/75 418/223/29 419/222/29
f 421/231/30 420/230/75 419/222/29
f 422/232/31 420/230/75 421/231/30
f 423/233/31 422/232/31 421/231/30
f 393/234/32 422/232/31 423/233/31
f 394/235/32 393/234/32 423/233/31
f 373/221/76 424/250/76 371/219/76
f 424/250/76 425/249/76 371/219/76
f 426/248/3 425/249/3 424/250/3
f 427/247/39 428/245/40 429/246/39
f 428/245/40 430/244/40 429/246/39
f 428/245/40 431/243/41 430/244/40
f 431/243/41 432/242/41 430/244/40
f 431/243/41 433/241/42 432/242/41
f 433/241/42 434/240/42 432/242/41
f 433/241/42 435/239/43 434/240/42
f 435/239/43 436/238/43 434/240/42
f 435/239/43 437/237/44 436/238/43
f 437/237/44 438/236/44 436/238/43
f 437/237/44 439/235/45 438/236/44
f 439/235/45 440/234/45 438/236/44
f 439/235/45 441/233/46 440/234/45
f 441/233/46 442/232/46 440/234/45
f 441/233/46 443/231/47 442/232/46
f 443/231/47 444/230/47 442/232/46
f 443/231/47 406/222/24 444/230/47
f 406/222/24 408/223/24 444/230/47
f 235/221/76 270/250/76 233/219/76
f 270/250/76 269/249/76 233/219/76
f 445/277/4 446/278/4 447/219/4
f 446/278/4 448/279/4 447/219/4
f 233/280/77 269/281/77 234/219/77
f 269/281/77 268/282/77 234/219/77
f 234/277/4 268/278/4 235/219/4
f 268/278/4 270/279/4 235/219/4
f 449/280/77 450/281/77 451/219/77
f 450/281/77 452/282/77 451/219/77
f 451/277/4 452/278/4 453/219/4
f 452/278/4 454/279/4 453/219/4
f 455/280/77 456/281/77 457/219/77
f 456/281/77 458/282/77 457/219/77
f 457/277/4 458/278/4 459/219/4
f 458/278/4 460/279/4 459/219/4
f 461/280/77 462/281/77 463/219/77
f 462/281/77 464/282/77 463/219/77
f 463/277/4 464/278/4 465/219/4
f 464/278/4 466/279/4 465/219/4
f 467/280/77 468/281/77 469/219/77
f 468/281/77 470/282/77 469/219/77
f 469/277/4 470/278/4 471/219/4
f 470/278/4 472/279/4 471/219/4
f 473/280/77 474/281/77 475/219/77
f 474/281/77 476/282/77 475/219/77
f 475/277/4 476/278/4 477/219/4
f 476/278/4 478/279/4 477/219/4
f 479/283/3 480/284/3 481/285/3
f 480/284/3 482/286/3 481/285/3
f 480/284/78 483/287/78 482/286/78
f 483/287/78 484/288/78 482/286/78
f 479/289/79 481/290/79 483/287/79
f 481/290/79 484/288/79 483/287/79
f 485/280/77 486/281/77 487/219/77
f 486/281/77 488/282/77 487/219/77
f 487/277/4 488/278/4 489/219/4
f 488/278/4 490/279/4 489/219/4
f 371/280/77 425/281/77 372/219/77
f 425/281/77 426/282/77 372/219/77
f 372/277/4 426/278/4 373/219/4
f 426/278/4 424/279/4 373/219/4
f 491/280/77 492/281/77 445/219/77
f 492/281/77 446/282/77 445/219/77
f 493/291/80 494/292/80 495/293/80
f 494/292/80 496/294/80 495/293/80
f 497/295/3 498/296/3 494/292/3
f 498/296/3 496/294/3 494/292/3
f 499/297/81 500/298/81 497/295/81
f 500/298/81 498/296/81 497/295/81
f 499/297/82 501/299/82 500/298/82
f 501/299/82 502/300/82 500/298/82
f 493/301/83 495/302/83 501/299/83
f 495/302/83 502/300/83 501/299/83
f 452/248/3 450/249/3 454/250/3
f 485/219/5 487/220/5 489/221/5
f 453/221/76 454/250/76 449/219/76
f 454/250/76 450/249/76 449/219/76
f 449/219/5 451/220/5 453/221/5
f 489/221/76 490/250/76 485/219/76
f 490/250/76 486/249/76 485/219/76
f 488/248/3 486/249/3 490/250/3
f 458/248/3 456/249/3 460/250/3
f 473/219/5 475/220/5 477/221/5
f 459/221/76 460/250/76 455/219/76
f 460/250/76 456/249/76 455/219/76
f 455/219/5 457/220/5 459/221/5
f 477/221/76 478/250/76 473/219/76
f 478/250/76 474/249/76 473/219/76
f 476/248/3 474/249/3 478/250/3
f 464/248/3 462/249/3 466/250/3
f 483/303/84 480/304/84 479/305/84
f 465/221/76 466/250/76 461/219/76
f 466/250/76 462/249/76 461/219/76
f 461/219/5 463/220/5 465/221/5
f 491/219/5 445/220/5 447/221/5
f 467/219/5 469/220/5 471/221/5
f 447/221/76 448/250/76 491/219/76
f 448/250/76 492/249/76 491/219/76
f 446/248/3 492/249/3 448/250/3
f 471/221/76 472/250/76 467/219/76
f 472/250/76 468/249/76 467/219/76
f 470/248/3 468/249/3 472/250/3
f 482/306/85 484/307/85 481/308/85
usemtl nf_buildingtexturesplate03
f 231/1/5 503/3/5 5/154/5
f 503/3/5 6/153/5 5/154/5
f 504/309/5 505/310/5 506/311/5
f 505/310/5 507/312/5 506/311/5
f 44/313/86 42/4/86 507/314/86
f 42/4/86 508/3/86 507/314/86
f 232/1/3 7/158/3 509/2/3
f 7/158/3 8/218/3 509/2/3
f 503/1/2 231/2/2 510/315/2
f 231/2/2 511/316/2 510/315/2
f 231/2/2 232/4/2 511/316/2
f 232/4/2 512/317/2 511/316/2
f 512/317/2 232/4/2 513/318/2
f 232/4/2 509/3/2 513/318/2
usemtl nf_buildingtexturesplate13
f 512/319/5 513/320/5 514/321/5
f 513/320/5 515/322/5 514/321/5
f 511/323/4 512/319/4 516/324/4
f 512/319/4 514/321/4 516/324/4
f 517/325/87 518/326/87 519/327/87
f 518/326/87 520/328/87 519/327/87
f 519/325/88 520/326/88 521/327/88
f 520/326/88 522/328/88 521/327/88
f 517/327/3 523/325/3 518/328/3
f 523/325/3 524/326/3 518/328/3
f 523/327/89 525/325/89 524/328/89
f 525/325/89 526/326/89 524/328/89
f 527/325/90 528/326/90 525/327/90
f 528/326/90 526/328/90 525/327/90
f 521/325/5 522/326/5 527/327/5
f 522/326/5 528/328/5 527/327/5
f 510/329/3 511/323/3 529/330/3
f 511/323/3 516/324/3 529/330/3
f 530/331/1 115/332/1 531/333/1
f 531/333/1 115/332/1 116/334/1
f 532/335/1 531/333/1 116/334/1
f 533/336/1 114/337/1 534/338/1
f 114/337/1 535/339/1 534/338/1
f 535/339/1 114/337/1 536/340/1
f 114/337/1 530/331/1 536/340/1
f 118/341/1 537/342/1 538/343/1
f 539/344/1 118/341/1 538/343/1
f 118/341/1 539/344/1 540/345/1
f 532/335/1 118/341/1 540/345/1
f 541/342/2 95/341/2 542/343/2
f 95/341/2 543/344/2 542/343/2
f 543/344/2 95/341/2 544/345/2
f 95/341/2 545/335/2 544/345/2
f 546/333/2 545/335/2 91/334/2
f 93/332/2 546/333/2 91/334/2
f 93/332/2 547/331/2 546/333/2
f 163/337/2 548/336/2 549/338/2
f 550/339/2 163/337/2 549/338/2
f 163/337/2 550/339/2 551/340/2
f 547/331/2 163/337/2 551/340/2
usemtl nf_commandvehicle
f 529/346/2 516/347/2 515/348/2
f 516/347/2 514/349/2 515/348/2
usemtl nf_buildingtexturesplate20
f 39/350/91 506/351/91 37/352/91
f 506/351/91 507/353/91 552/352/91
f 38/354/92 505/355/92 40/356/92
f 505/355/92 504/357/92 40/356/92
f 40/356/1 504/357/1 39/350/1
f 504/357/1 506/351/1 39/350/1
f 42/358/2 41/359/2 508/360/2
f 41/359/2 45/361/2 508/360/2
f 43/362/1 44/363/1 37/364/1
f 44/363/1 507/365/1 37/364/1
f 553/366/93 554/367/93 555/368/93
f 554/367/93 556/369/93 555/368/93
f 557/370/1 558/371/1 559/372/1
f 560/373/1 557/370/1 559/372/1
f 560/373/1 559/372/1 561/374/1
f 562/375/1 560/373/1 561/374/1
f 562/375/1 561/374/1 563/376/1
f 564/377/1 562/375/1 563/376/1
f 564/377/1 563/376/1 565/375/1
f 563/376/1 566/374/1 565/375/1
f 565/375/1 566/374/1 567/373/1
f 566/374/1 568/372/1 567/373/1
f 567/373/1 568/372/1 569/370/1
f 568/372/1 570/371/1 569/370/1
f 569/370/1 570/371/1 571/378/1
f 570/371/1 572/379/1 571/378/1
f 571/378/1 572/379/1 573/380/1
f 572/379/1 574/381/1 573/380/1
f 573/380/1 574/381/1 575/382/1
f 574/381/1 576/383/1 575/382/1
f 575/382/1 576/383/1 577/384/1
f 576/383/1 578/385/1 577/384/1
f 577/384/1 578/385/1 579/386/1
f 578/385/1 580/387/1 579/386/1
f 579/386/1 580/387/1 581/388/1
f 580/387/1 582/389/1 581/388/1
f 581/388/1 582/389/1 583/390/1
f 582/389/1 584/391/1 583/390/1
f 583/390/1 584/391/1 585/392/1
f 584/391/1 586/393/1 585/392/1
f 585/392/1 586/393/1 587/394/1
f 586/393/1 588/395/1 587/394/1
f 438/396/44 440/397/45 284/398/45
f 282/399/44 438/396/44 284/398/45
f 436/400/43 438/396/44 282/399/44
f 280/401/43 436/400/43 282/399/44
f 434/402/42 436/400/43 280/401/43
f 278/403/42 434/402/42 280/401/43
f 432/404/41 434/402/42 278/403/42
f 276/405/41 432/404/41 278/403/42
f 276/405/41 274/406/40 432/404/41
f 274/406/40 430/407/40 432/404/41
f 429/408/39 430/407/40 274/406/40
f 272/409/39 429/408/39 274/406/40
f 248/410/29 246/411/28 418/412/29
f 246/411/28 416/413/28 418/412/29
f 246/411/28 244/414/27 416/413/28
f 244/414/27 414/415/27 416/413/28
f 244/414/27 243/416/4 414/415/27
f 243/416/4 413/417/4 414/415/27
f 411/415/26 413/417/4 243/416/4
f 241/414/26 411/415/26 243/416/4
f 409/413/25 411/415/26 241/414/26
f 239/411/25 409/413/25 241/414/26
f 239/411/25 237/410/24 409/413/25
f 237/410/24 408/412/24 409/413/25
f 444/418/47 408/412/24 237/410/24
f 288/419/47 444/418/47 237/410/24
f 442/420/46 444/418/47 288/419/47
f 286/421/46 442/420/46 288/419/47
f 440/397/45 442/420/46 286/421/46
f 284/398/45 440/397/45 286/421/46
f 589/394/1 590/395/1 591/393/1
f 592/392/1 589/394/1 591/393/1
f 592/392/1 591/393/1 593/391/1
f 594/390/1 592/392/1 593/391/1
f 594/390/1 593/391/1 595/389/1
f 596/388/1 594/390/1 595/389/1
f 596/388/1 595/389/1 597/387/1
f 598/386/1 596/388/1 597/387/1
f 598/386/1 597/387/1 599/385/1
f 600/384/1 598/386/1 599/385/1
f 600/384/1 599/385/1 601/383/1
f 602/382/1 600/384/1 601/383/1
f 602/382/1 601/383/1 603/381/1
f 604/380/1 602/382/1 603/381/1
f 604/380/1 603/381/1 605/379/1
f 606/378/1 604/380/1 605/379/1
f 606/378/1 605/379/1 558/371/1
f 557/370/1 606/378/1 558/371/1
f 266/409/38 264/406/37 404/408/38
f 264/406/37 402/407/37 404/408/38
f 264/406/37 262/405/36 402/407/37
f 262/405/36 400/404/36 402/407/37
f 262/405/36 260/403/35 400/404/36
f 260/403/35 398/402/35 400/404/36
f 260/403/35 258/401/34 398/402/35
f 258/401/34 396/400/34 398/402/35
f 258/401/34 256/399/33 396/400/34
f 256/399/33 392/396/33 396/400/34
f 256/399/33 254/398/32 392/396/33
f 254/398/32 393/397/32 392/396/33
f 254/398/32 252/421/31 393/397/32
f 252/421/31 422/420/31 393/397/32
f 252/421/31 250/419/30 422/420/31
f 250/419/30 420/418/75 422/420/31
f 250/419/30 248/410/29 420/418/75
f 248/410/29 418/412/29 420/418/75
f 304/422/55 340/423/55 339/424/72
f 305/425/56 304/422/55 339/424/72
f 305/425/56 339/424/72 343/426/57
f 307/427/57 305/425/56 343/426/57
f 307/427/57 343/426/57 345/428/6
f 309/429/6 307/427/57 345/428/6
f 309/429/6 345/428/6 312/427/58
f 345/428/6 348/426/58 312/427/58
f 312/427/58 348/426/58 314/425/59
f 348/426/58 350/424/73 314/425/59
f 314/425/59 350/424/73 316/422/60
f 350/424/73 352/423/60 316/422/60
f 316/422/60 352/423/60 318/430/61
f 352/423/60 354/431/61 318/430/61
f 318/430/61 354/431/61 320/432/62
f 354/431/61 356/433/62 320/432/62
f 320/432/62 356/433/62 290/434/48
f 356/433/62 358/435/48 290/434/48
f 290/434/48 358/435/48 292/436/49
f 358/435/48 360/437/49 292/436/49
f 292/436/49 360/437/49 294/438/50
f 360/437/49 362/439/50 294/438/50
f 294/438/50 362/439/50 295/440/51
f 362/439/50 364/441/51 295/440/51
f 295/440/51 364/441/51 298/442/52
f 364/441/51 366/443/52 298/442/52
f 298/442/52 366/443/52 300/444/53
f 366/443/52 368/445/53 300/444/53
f 300/444/53 368/445/53 302/446/54
f 368/445/53 370/447/54 302/446/54
f 607/448/55 303/449/55 608/450/56
f 303/449/55 306/451/56 608/450/56
f 608/450/56 306/451/56 609/452/57
f 306/451/56 308/453/57 609/452/57
f 609/452/57 308/453/57 610/454/6
f 308/453/57 310/455/6 610/454/6
f 610/454/6 310/455/6 311/453/58
f 611/452/58 610/454/6 311/453/58
f 611/452/58 311/453/58 313/451/59
f 612/450/59 611/452/58 313/451/59
f 612/450/59 313/451/59 315/449/60
f 613/448/60 612/450/59 315/449/60
f 613/448/60 315/449/60 317/456/61
f 614/457/61 613/448/60 317/456/61
f 614/457/61 317/456/61 319/458/62
f 615/459/62 614/457/61 319/458/62
f 615/459/62 319/458/62 289/460/48
f 616/461/48 615/459/62 289/460/48
f 616/461/48 289/460/48 291/462/49
f 617/463/49 616/461/48 291/462/49
f 618/464/50 617/463/49 291/462/49
f 293/465/50 618/464/50 291/462/49
f 618/464/50 293/465/50 296/466/51
f 619/467/51 618/464/50 296/466/51
f 619/467/51 296/466/51 297/468/52
f 620/469/52 619/467/51 297/468/52
f 620/469/52 297/468/52 299/470/53
f 621/471/53 620/469/52 299/470/53
f 621/471/53 299/470/53 301/472/54
f 622/473/54 621/471/53 301/472/54
f 322/446/63 375/447/63 374/445/64
f 323/444/64 322/446/63 374/445/64
f 323/444/64 374/445/64 378/443/65
f 325/442/65 323/444/64 378/443/65
f 325/442/65 378/443/65 380/441/66
f 327/440/66 325/442/65 380/441/66
f 329/438/67 327/440/66 380/441/66
f 383/439/67 329/438/67 380/441/66
f 329/438/67 383/439/67 384/437/68
f 331/436/68 329/438/67 384/437/68
f 331/436/68 384/437/68 386/435/69
f 333/434/69 331/436/68 386/435/69
f 333/434/69 386/435/69 389/433/70
f 335/432/70 333/434/69 389/433/70
f 335/432/70 389/433/70 390/431/71
f 337/430/71 335/432/70 390/431/71
f 337/430/71 390/431/71 340/423/55
f 304/422/55 337/430/71 340/423/55
f 623/473/63 321/472/63 324/470/64
f 624/471/64 623/473/63 324/470/64
f 624/471/64 324/470/64 625/469/65
f 324/470/64 326/468/65 625/469/65
f 625/469/65 326/468/65 626/467/66
f 326/468/65 328/466/66 626/467/66
f 626/467/66 328/466/66 330/465/67
f 627/464/67 626/467/66 330/465/67
f 627/464/67 330/465/67 332/462/68
f 628/463/68 627/464/67 332/462/68
f 628/463/68 332/462/68 629/461/69
f 332/462/68 334/460/69 629/461/69
f 629/461/69 334/460/69 630/459/70
f 334/460/69 336/458/70 630/459/70
f 630/459/70 336/458/70 631/457/71
f 336/458/70 338/456/71 631/457/71
f 631/457/71 338/456/71 303/449/55
f 607/448/55 631/457/71 303/449/55
f 632/474/45 633/475/44 283/476/45
f 633/475/44 281/477/44 283/476/45
f 633/475/44 634/478/43 281/477/44
f 634/478/43 279/479/43 281/477/44
f 634/478/43 635/480/42 279/479/43
f 635/480/42 277/481/42 279/479/43
f 635/480/42 636/482/41 277/481/42
f 636/482/41 275/483/41 277/481/42
f 636/482/41 637/484/40 275/483/41
f 637/484/40 273/485/40 275/483/41
f 637/484/40 638/486/39 273/485/40
f 638/486/39 271/487/39 273/485/40
f 247/488/28 249/489/29 639/490/29
f 640/491/28 247/488/28 639/490/29
f 245/492/27 247/488/28 640/491/28
f 641/493/27 245/492/27 640/491/28
f 242/494/4 245/492/27 641/493/27
f 642/495/4 242/494/4 641/493/27
f 642/495/4 643/493/26 242/494/4
f 643/493/26 240/492/26 242/494/4
f 643/493/26 644/491/25 240/492/26
f 644/491/25 238/488/25 240/492/26
f 644/491/25 645/490/24 238/488/25
f 645/490/24 236/489/24 238/488/25
f 645/490/24 646/496/94 236/489/24
f 646/496/94 287/497/47 236/489/24
f 646/496/94 647/498/46 287/497/47
f 647/498/46 285/499/46 287/497/47
f 285/499/46 647/498/46 283/476/45
f 647/498/46 632/474/45 283/476/45
f 265/485/37 267/487/38 648/486/38
f 649/484/37 265/485/37 648/486/38
f 263/483/36 265/485/37 649/484/37
f 650/482/36 263/483/36 649/484/37
f 261/481/35 263/483/36 650/482/36
f 651/480/35 261/481/35 650/482/36
f 259/479/34 261/481/35 651/480/35
f 652/478/34 259/479/34 651/480/35
f 257/477/33 259/479/34 652/478/34
f 653/475/33 257/477/33 652/478/34
f 255/476/32 257/477/33 653/475/33
f 654/474/32 255/476/32 653/475/33
f 654/474/32 655/498/31 255/476/32
f 655/498/31 253/499/31 255/476/32
f 251/497/30 253/499/31 655/498/31
f 656/496/30 251/497/30 655/498/31
f 656/496/30 639/490/29 251/497/30
f 639/490/29 249/489/29 251/497/30
f 576/474/45 439/476/45 578/475/44
f 439/476/45 437/477/44 578/475/44
f 578/475/44 437/477/44 580/478/43
f 437/477/44 435/479/43 580/478/43
f 580/478/43 435/479/43 582/480/42
f 435/479/43 433/481/42 582/480/42
f 582/480/42 433/481/42 584/482/41
f 433/481/42 431/483/41 584/482/41
f 584/482/41 431/483/41 586/484/40
f 431/483/41 428/485/40 586/484/40
f 586/484/40 428/485/40 588/486/39
f 428/485/40 427/487/39 588/486/39
f 558/490/29 419/489/29 417/488/28
f 559/491/28 558/490/29 417/488/28
f 559/491/28 417/488/28 415/492/27
f 561/493/27 559/491/28 415/492/27
f 561/493/27 415/492/27 412/494/4
f 563/495/4 561/493/27 412/494/4
f 563/495/4 412/494/4 566/493/26
f 412/494/4 410/492/26 566/493/26
f 566/493/26 410/492/26 568/491/25
f 410/492/26 407/488/25 568/491/25
f 568/491/25 407/488/25 570/490/24
f 407/488/25 406/489/24 570/490/24
f 570/490/24 406/489/24 443/497/47
f 572/496/47 570/490/24 443/497/47
f 572/496/47 443/497/47 574/498/46
f 443/497/47 441/499/46 574/498/46
f 574/498/46 441/499/46 439/476/45
f 576/474/45 574/498/46 439/476/45
f 590/486/38 405/487/38 403/485/37
f 591/484/37 590/486/38 403/485/37
f 591/484/37 403/485/37 401/483/36
f 593/482/36 591/484/37 401/483/36
f 593/482/36 401/483/36 399/481/35
f 595/480/35 593/482/36 399/481/35
f 595/480/35 399/481/35 397/479/34
f 597/478/34 595/480/35 397/479/34
f 597/478/34 397/479/34 395/477/33
f 599/475/33 597/478/34 395/477/33
f 599/475/33 395/477/33 394/476/32
f 601/474/32 599/475/33 394/476/32
f 603/498/31 601/474/32 394/476/32
f 423/499/31 603/498/31 394/476/32
f 603/498/31 423/499/31 421/497/30
f 605/496/75 603/498/31 421/497/30
f 605/496/75 421/497/30 419/489/29
f 558/490/29 605/496/75 419/489/29
f 640/372/2 639/371/2 607/370/2
f 608/373/2 640/372/2 607/370/2
f 641/374/2 640/372/2 608/373/2
f 609/375/2 641/374/2 608/373/2
f 642/376/2 641/374/2 609/375/2
f 610/377/2 642/376/2 609/375/2
f 610/377/2 611/375/2 642/376/2
f 611/375/2 643/374/2 642/376/2
f 611/375/2 612/373/2 643/374/2
f 612/373/2 644/372/2 643/374/2
f 612/373/2 613/370/2 644/372/2
f 613/370/2 645/371/2 644/372/2
f 613/370/2 614/378/2 645/371/2
f 614/378/2 646/379/2 645/371/2
f 614/378/2 615/380/2 646/379/2
f 615/380/2 647/381/2 646/379/2
f 615/380/2 616/382/2 647/381/2
f 616/382/2 632/383/2 647/381/2
f 616/382/2 617/384/2 632/383/2
f 617/384/2 633/385/2 632/383/2
f 617/384/2 618/386/2 633/385/2
f 618/386/2 634/387/2 633/385/2
f 618/386/2 619/388/2 634/387/2
f 619/388/2 635/389/2 634/387/2
f 619/388/2 620/390/2 635/389/2
f 620/390/2 636/391/2 635/389/2
f 620/390/2 621/392/2 636/391/2
f 621/392/2 637/393/2 636/391/2
f 621/392/2 622/394/2 637/393/2
f 622/394/2 638/395/2 637/393/2
f 557/500/55 560/501/56 341/502/55
f 560/501/56 342/503/56 341/502/55
f 560/501/56 562/504/57 342/503/56
f 562/504/57 344/505/57 342/503/56
f 562/504/57 564/506/6 344/505/57
f 564/506/6 346/507/6 344/505/57
f 347/505/58 346/507/6 564/506/6
f 565/504/58 347/505/58 564/506/6
f 349/503/59 347/505/58 565/504/58
f 567/501/59 349/503/59 565/504/58
f 351/502/60 349/503/59 567/501/59
f 569/500/60 351/502/60 567/501/59
f 569/500/60 571/508/61 351/502/60
f 571/508/61 353/509/61 351/502/60
f 355/510/62 353/509/61 571/508/61
f 573/511/62 355/510/62 571/508/61
f 357/512/48 355/510/62 573/511/62
f 575/513/48 357/512/48 573/511/62
f 359/514/49 357/512/48 575/513/48
f 577/515/49 359/514/49 575/513/48
f 577/515/49 579/516/50 359/514/49
f 579/516/50 361/517/50 359/514/49
f 579/516/50 581/518/51 361/517/50
f 581/518/51 363/519/51 361/517/50
f 365/520/52 363/519/51 581/518/51
f 583/521/52 365/520/52 581/518/51
f 367/522/53 365/520/52 583/521/52
f 585/523/53 367/522/53 583/521/52
f 585/523/53 587/524/54 367/522/53
f 587/524/54 369/525/54 367/522/53
f 589/524/63 592/523/64 376/525/63
f 592/523/64 377/522/64 376/525/63
f 592/523/64 594/521/65 377/522/64
f 594/521/65 379/520/65 377/522/64
f 594/521/65 596/518/66 379/520/65
f 596/518/66 381/519/66 379/520/65
f 596/518/66 598/516/67 381/519/66
f 598/516/67 382/517/67 381/519/66
f 382/517/67 598/516/67 385/514/68
f 598/516/67 600/515/68 385/514/68
f 600/515/68 602/513/69 385/514/68
f 602/513/69 387/512/69 385/514/68
f 602/513/69 604/511/70 387/512/69
f 604/511/70 388/510/70 387/512/69
f 604/511/70 606/508/71 388/510/70
f 606/508/71 391/509/74 388/510/70
f 606/508/71 557/500/55 391/509/74
f 557/500/55 341/502/55 391/509/74
f 649/393/2 648/395/2 623/394/2
f 624/392/2 649/393/2 623/394/2
f 650/391/2 649/393/2 624/392/2
f 625/390/2 650/391/2 624/392/2
f 651/389/2 650/391/2 625/390/2
f 626/388/2 651/389/2 625/390/2
f 652/387/2 651/389/2 626/388/2
f 627/386/2 652/387/2 626/388/2
f 653/385/2 652/387/2 627/386/2
f 628/384/2 653/385/2 627/386/2
f 654/383/2 653/385/2 628/384/2
f 629/382/2 654/383/2 628/384/2
f 655/381/2 654/383/2 629/382/2
f 630/380/2 655/381/2 629/382/2
f 656/379/2 655/381/2 630/380/2
f 631/378/2 656/379/2 630/380/2
f 639/371/2 656/379/2 631/378/2
f 607/370/2 639/371/2 631/378/2
usemtl nf_crate02
f 657/1/6 658/3/6 659/2/6
f 658/3/6 660/4/6 659/2/6
f 661/2/4 662/1/4 663/4/4
f 662/1/4 664/3/4 663/4/4
f 665/1/6 666/526/6 667/2/6
f 666/526/6 668/527/6 667/2/6
f 669/1/6 670/526/6 671/2/6
f 670/526/6 672/527/6 671/2/6
f 673/2/4 674/1/4 675/4/4
f 674/1/4 676/3/4 675/4/4
f 677/2/4 678/1/4 679/4/4
f 678/1/4 680/3/4 679/4/4
f 681/1/4 682/3/4 683/2/4
f 682/3/4 684/4/4 683/2/4
f 685/2/4 686/1/4 687/4/4
f 686/1/4 688/3/4 687/4/4
f 689/1/6 690/3/6 691/2/6
f 690/3/6 692/4/6 691/2/6
f 693/2/6 694/1/6 695/4/6
f 694/1/6 696/3/6 695/4/6
f 697/1/6 698/3/6 699/2/6
f 698/3/6 700/4/6 699/2/6
f 701/2/4 702/1/4 703/4/4
f 702/1/4 704/3/4 703/4/4
f 705/1/6 706/3/6 707/2/6
f 706/3/6 708/4/6 707/2/6
f 709/1/6 710/3/6 711/2/6
f 710/3/6 712/4/6 711/2/6
f 713/1/6 714/3/6 715/2/6
f 714/3/6 716/4/6 715/2/6
f 717/1/6 718/3/6 719/2/6
f 718/3/6 720/4/6 719/2/6
f 721/1/6 722/3/6 723/2/6
f 722/3/6 724/4/6 723/2/6
f 725/1/6 726/3/6 727/2/6
f 726/3/6 728/4/6 727/2/6
f 729/2/4 730/1/4 731/4/4
f 730/1/4 732/3/4 731/4/4
f 733/1/6 734/3/6 735/2/6
f 734/3/6 736/4/6 735/2/6
f 737/2/4 738/1/4 739/4/4
f 738/1/4 740/3/4 739/4/4
f 741/1/4 742/3/4 743/2/4
f 742/3/4 744/4/4 743/2/4
f 745/1/6 746/3/6 747/2/6
f 746/3/6 748/4/6 747/2/6
f 749/1/6 750/3/6 751/2/6
f 750/3/6 752/4/6 751/2/6
f 753/1/6 754/3/6 755/2/6
f 754/3/6 756/4/6 755/2/6
usemtl nf_crate03
f 757/1/95 758/3/95 711/2/95
f 758/3/95 709/4/95 711/2/95
f 738/1/96 737/3/96 734/2/96
f 737/3/96 736/4/96 734/2/96
f 759/1/97 760/3/97 660/2/97
f 760/3/97 659/4/97 660/2/97
f 691/2/98 675/1/98 689/4/98
f 675/1/98 676/3/98 689/4/98
f 717/2/99 732/1/99 718/4/99
f 732/1/99 730/3/99 718/4/99
f 685/1/100 687/3/100 721/2/100
f 687/3/100 722/4/101 721/2/100
f 761/526/102 667/527/102 762/1/102
f 667/527/102 668/2/102 762/1/102
f 763/526/103 666/527/103 764/1/103
f 666/527/103 665/2/103 764/1/103
f 761/1/104 764/526/104 667/2/104
f 764/526/104 665/527/104 667/2/104
f 762/526/105 668/527/105 763/1/105
f 668/527/105 666/2/105 763/1/105
f 765/526/106 671/527/106 766/1/106
f 671/527/106 672/2/106 766/1/106
f 767/1/107 768/526/107 669/2/107
f 768/526/107 670/527/107 669/2/107
f 765/1/108 767/526/108 671/2/108
f 767/526/108 669/527/108 671/2/108
f 766/526/109 672/527/109 768/1/109
f 672/527/109 670/2/109 768/1/109
f 710/2/110 769/1/111 712/4/111
f 769/1/111 770/3/111 712/4/111
f 712/2/112 770/1/112 711/4/112
f 770/1/112 757/3/112 711/4/112
f 675/2/113 691/1/114 673/4/114
f 691/1/114 692/3/115 673/4/114
f 678/1/116 677/3/116 706/2/116
f 677/3/116 708/4/116 706/2/116
f 708/2/117 677/1/117 707/4/117
f 677/1/117 679/3/117 707/4/117
f 727/2/118 702/1/118 725/4/118
f 702/1/118 701/3/118 725/4/118
f 707/2/119 679/1/119 705/4/119
f 679/1/119 680/3/119 705/4/119
f 674/1/120 673/3/121 690/2/121
f 673/3/121 692/4/121 690/2/121
f 709/2/122 758/1/122 710/4/122
f 758/1/122 769/3/122 710/4/122
f 724/2/97 688/1/97 723/4/97
f 688/1/97 686/3/123 723/4/97
f 663/1/124 664/3/124 750/2/124
f 664/3/124 752/4/124 750/2/124
f 771/1/3 716/3/3 772/2/3
f 716/3/3 714/4/3 772/2/3
f 683/1/3 700/3/3 681/2/3
f 700/3/3 698/4/3 681/2/3
f 773/1/5 713/3/5 774/2/5
f 713/3/5 715/4/5 774/2/5
f 681/1/1 698/3/1 682/2/1
f 698/3/1 697/4/1 682/2/1
f 774/1/2 715/3/2 771/2/2
f 715/3/2 716/4/2 771/2/2
f 723/2/125 686/1/125 721/4/125
f 686/1/125 685/3/125 721/4/125
f 680/1/126 678/3/126 705/2/126
f 678/3/126 706/4/126 705/2/126
f 775/1/127 776/3/127 755/2/127
f 776/3/127 753/4/127 755/2/127
f 751/2/128 662/1/129 749/4/129
f 662/1/129 661/3/129 749/4/129
f 696/2/130 777/1/130 695/4/130
f 777/1/130 778/3/130 695/4/130
f 704/1/131 702/3/131 728/2/131
f 702/3/131 727/4/131 728/2/131
f 749/2/132 661/1/132 750/4/132
f 661/1/132 663/3/132 750/4/132
f 684/1/2 699/3/2 683/2/2
f 699/3/2 700/4/2 683/2/2
f 676/1/133 674/3/133 689/2/133
f 674/3/133 690/4/133 689/2/133
f 779/1/134 777/3/134 694/2/134
f 777/3/134 696/4/134 694/2/134
f 701/1/135 703/3/136 725/2/136
f 703/3/136 726/4/136 725/2/136
f 772/1/1 714/3/1 773/2/1
f 714/3/1 713/4/1 773/2/1
f 695/2/137 778/1/137 693/4/137
f 778/1/137 780/3/137 693/4/137
f 687/1/138 688/3/138 722/2/138
f 688/3/138 724/4/138 722/2/138
f 752/2/139 664/1/140 751/4/140
f 664/1/140 662/3/141 751/4/140
f 682/1/5 697/3/5 684/2/5
f 697/3/5 699/4/5 684/2/5
f 756/2/142 781/1/142 755/4/142
f 781/1/142 775/3/142 755/4/142
f 730/1/143 729/3/143 718/2/143
f 729/3/143 720/4/143 718/2/143
f 780/1/144 779/3/144 693/2/144
f 779/3/144 694/4/144 693/2/144
f 703/1/145 704/3/145 726/2/145
f 704/3/145 728/4/145 726/2/145
f 754/2/146 782/1/146 756/4/146
f 782/1/146 781/3/146 756/4/146
f 776/1/147 782/3/147 753/2/147
f 782/3/148 754/4/148 753/2/148
f 719/2/149 731/1/149 717/4/149
f 731/1/149 732/3/149 717/4/149
f 729/1/150 731/3/150 720/2/150
f 731/3/150 719/4/150 720/2/150
f 741/1/1 746/3/1 742/2/1
f 746/3/1 745/4/1 742/2/1
f 735/2/151 739/1/151 733/4/151
f 739/1/151 740/3/151 733/4/151
f 783/1/152 759/3/152 658/2/152
f 759/3/152 660/4/152 658/2/152
f 784/1/100 783/3/100 657/2/100
f 783/3/153 658/4/153 657/2/153
f 733/2/154 740/1/154 734/4/154
f 740/1/154 738/3/154 734/4/154
f 744/1/2 747/3/2 743/2/2
f 747/3/2 748/4/2 743/2/2
f 736/2/155 737/1/155 735/4/155
f 737/1/155 739/3/155 735/4/155
f 743/1/3 748/3/3 741/2/3
f 748/3/3 746/4/3 741/2/3
f 742/1/5 745/3/5 744/2/5
f 745/3/5 747/4/5 744/2/5
f 659/2/125 760/1/156 657/4/156
f 760/1/156 784/3/157 657/4/156
usemtl nf_table
f 785/528/158 786/529/158 553/530/158
f 786/529/158 554/531/158 553/530/158
f 787/532/159 788/533/159 789/534/159
f 788/533/159 790/535/159 789/534/159
f 791/536/160 792/537/160 785/2/160
f 792/537/160 786/4/160 785/2/160
f 791/538/161 785/539/161 555/540/161
f 785/539/161 553/541/161 555/540/161
f 792/542/162 791/543/162 556/544/162
f 791/543/162 555/545/162 556/544/162
f 554/546/163 786/547/163 556/548/163
f 786/547/163 792/549/163 556/548/163
